<?xml version="1.0" encoding="UTF-8"?>
<svg width="200" height="200" viewBox="0 0 200 200" version="1.1" xmlns="http://www.w3.org/2000/svg" xmlns:xlink="http://www.w3.org/1999/xlink">
 <path d="M0,0 l200,0 l0,200 l-200,0 Z M0,0" fill="rgb(255,255,255)" transform="matrix(1,0,0,-1,0,200)"/>
 <clipPath id="clip31">
  <path clip-rule="evenodd" d="M0,43.79 l200,0 l0,200 l-200,0 Z M0,43.79" transform="matrix(1,0,0,-1,0,150)"/>
 </clipPath>
 <g clip-path="url(#clip31)">
  <path d="M90.92,-2.42 c16.25,0,26.17,8.25,31.5,20.42 l1.0,0 l1.92,-18.83 l19.92,0.75 l0,3.17 c-6.08,2.25,-8.17,10.83,-8.17,23.58 l0,32.58 c0,21.33,-11.75,30.92,-36.42,30.92 c-23.5,0,-33.5,-11.75,-36.08,-28.75 l5.67,-0.75 c2.83,13.5,10.75,21.25,30.25,21.25 c15.67,0,22.67,-6.67,22.67,-22.67 l0,-10.25 l-32.0,-1.5 c-7.92,-0.33,-14.92,-1.67,-18.75,-3.75 c-8.17,-4.33,-11.58,-11.83,-11.58,-21.5 c0,-16.25,11.17,-24.67,30.08,-24.67 Z M75.08,24.58 c0,9.33,4.92,16.17,18.75,17.0 l29.33,1.75 l0,-9.0 c0,-16.58,-11.58,-28.0,-29.25,-28.0 c-12.67,0,-18.83,6.58,-18.83,18.25 Z M75.08,24.58" fill="rgb(0,0,0)" transform="matrix(1,0,0,-1,0,150)"/>
 </g>
 <clipPath id="clip32">
  <path clip-rule="evenodd" d="M0,-50 l200,0 l0,93.79 l-200,0 Z M0,-50" transform="matrix(1,0,0,-1,0,150)"/>
 </clipPath>
 <g clip-path="url(#clip32)">
  <path d="M90.92,-2.42 c16.25,0,26.17,8.25,31.5,20.42 l1.0,0 l1.92,-18.83 l19.92,0.75 l0,3.17 c-6.08,2.25,-8.17,10.83,-8.17,23.58 l0,32.58 c0,21.33,-11.75,30.92,-36.42,30.92 c-23.5,0,-33.5,-11.75,-36.08,-28.75 l5.67,-0.75 c2.83,13.5,10.75,21.25,30.25,21.25 c15.67,0,22.67,-6.67,22.67,-22.67 l0,-10.25 l-32.0,-1.5 c-7.92,-0.33,-14.92,-1.67,-18.75,-3.75 c-8.17,-4.33,-11.58,-11.83,-11.58,-21.5 c0,-16.25,11.17,-24.67,30.08,-24.67 Z M75.08,24.58 c0,9.33,4.92,16.17,18.75,17.0 l29.33,1.75 l0,-9.0 c0,-16.58,-11.58,-28.0,-29.25,-28.0 c-12.67,0,-18.83,6.58,-18.83,18.25 Z M75.08,24.58" fill="rgb(0,0,0)" transform="matrix(1,0,0,-1,0,150)"/>
 </g>
 <path d="M0,43.79 l200,0" fill="none" stroke="rgb(255,0,0)" stroke-width="1" transform="matrix(1,0,0,-1,0,150)"/>
</svg>