<?xml version="1.0" encoding="UTF-8"?>
<svg width="200" height="200" viewBox="0 0 200 200" version="1.1" xmlns="http://www.w3.org/2000/svg" xmlns:xlink="http://www.w3.org/1999/xlink">
 <path d="M0,0 l200,0 l0,200 l-200,0 Z M0,0" fill="rgb(255,255,255)" transform="matrix(1,0,0,-1,0,200)"/>
 <clipPath id="clip71">
  <path clip-rule="evenodd" d="M0,43.79 l200,0 l0,200 l-200,0 Z M0,43.79" transform="matrix(1,0,0,-1,0,150)"/>
 </clipPath>
 <g clip-path="url(#clip71)">
  <path d="M100.92,-2.5 c24.33,0,36.92,11.33,39.08,30.25 l-13.5,1.5 c-2.0,-13.0,-9.5,-19.67,-25.33,-19.67 c-19.17,0,-28.58,11.67,-28.58,34.17 c0,22.67,9.25,34.17,28.5,34.17 c15.58,0,23.33,-6.33,25.17,-19.67 l13.5,1.5 c-2.33,18.83,-14.0,30.33,-38.92,30.33 c-27.5,0,-42.67,-17.0,-42.67,-46.33 c0,-29.08,15.58,-46.25,42.75,-46.25 Z M100.92,-2.5" fill="rgb(0,0,0)" transform="matrix(1,0,0,-1,0,150)"/>
 </g>
 <clipPath id="clip72">
  <path clip-rule="evenodd" d="M0,-50 l200,0 l0,93.79 l-200,0 Z M0,-50" transform="matrix(1,0,0,-1,0,150)"/>
 </clipPath>
 <g clip-path="url(#clip72)">
  <path d="M100.92,-2.5 c20.5,0,31.75,6.67,38.25,16.5 l-4.0,17.67 l-3.75,0 c-2.75,-19.58,-12.25,-28.5,-30.25,-28.5 c-19.17,0,-28.58,13.83,-28.58,40.58 c0,26.92,9.25,40.58,28.5,40.58 c17.5,0,27.0,-8.33,29.58,-27.17 l3.75,0 l4.0,15.75 c-6.42,10.25,-17.25,17.17,-37.58,17.17 c-27.5,0,-42.67,-17.0,-42.67,-46.33 c0,-29.08,15.58,-46.25,42.75,-46.25 Z M100.92,-2.5" fill="rgb(0,0,0)" transform="matrix(1,0,0,-1,0,150)"/>
 </g>
 <path d="M0,43.79 l200,0" fill="none" stroke="rgb(255,0,0)" stroke-width="1" transform="matrix(1,0,0,-1,0,150)"/>
</svg>