<?xml version="1.0" encoding="UTF-8"?>
<svg width="200" height="200" viewBox="0 0 200 200" version="1.1" xmlns="http://www.w3.org/2000/svg" xmlns:xlink="http://www.w3.org/1999/xlink">
 <path d="M0,0 l200,0 l0,200 l-200,0 Z M0,0" fill="rgb(255,255,255)" transform="matrix(1,0,0,-1,0,200)"/>
 <clipPath id="clip141">
  <path clip-rule="evenodd" d="M0,43.79 l200,0 l0,200 l-200,0 Z M0,43.79" transform="matrix(1,0,0,-1,0,150)"/>
 </clipPath>
 <g clip-path="url(#clip141)">
  <path d="M58.25,43.25 c0,-30.08,15.67,-45.75,43.0,-45.75 c24.0,0,35.25,10.0,39.0,26.92 l-11.0,1.17 c-3.58,-12.5,-11.75,-17.83,-27.75,-17.83 c-17.58,0,-28.17,10.5,-29.08,32.42 l69.33,0 l0,6.08 c0,28.42,-15.17,43.92,-41.42,43.92 c-26.08,0,-42.08,-17.17,-42.08,-46.92 Z M72.58,48.67 c1.5,22.08,11.0,32.17,27.83,32.17 c17.5,0,26.92,-10.42,27.67,-32.17 Z M72.58,48.67" fill="rgb(0,0,0)" transform="matrix(1,0,0,-1,0,150)"/>
 </g>
 <clipPath id="clip142">
  <path clip-rule="evenodd" d="M0,-50 l200,0 l0,93.79 l-200,0 Z M0,-50" transform="matrix(1,0,0,-1,0,150)"/>
 </clipPath>
 <g clip-path="url(#clip142)">
  <path d="M58.25,43.25 c0,-30.08,15.67,-45.75,43.0,-45.75 c23.92,0,35.08,10.25,38.67,27.58 l-8.25,0.92 c-4.0,-13.5,-12.83,-19.33,-30.17,-19.33 c-17.58,0,-28.17,11.08,-29.08,34.17 l69.33,0 l0,5.42 c0,28.42,-15.17,43.92,-41.42,43.92 c-26.08,0,-42.08,-17.17,-42.08,-46.92 Z M72.58,47.67 c1.5,24.08,11.0,35.08,27.83,35.08 c17.5,0,26.92,-11.33,27.67,-35.08 Z M72.58,47.67" fill="rgb(0,0,0)" transform="matrix(1,0,0,-1,0,150)"/>
 </g>
 <path d="M0,43.79 l200,0" fill="none" stroke="rgb(255,0,0)" stroke-width="1" transform="matrix(1,0,0,-1,0,150)"/>
</svg>