<?xml version="1.0" encoding="UTF-8"?>
<svg width="200" height="200" viewBox="0 0 200 200" version="1.1" xmlns="http://www.w3.org/2000/svg" xmlns:xlink="http://www.w3.org/1999/xlink">
 <path d="M0,0 l200,0 l0,200 l-200,0 Z M0,0" fill="rgb(255,255,255)" transform="matrix(1,0,0,-1,0,200)"/>
 <clipPath id="clip171">
  <path clip-rule="evenodd" d="M0,43.79 l200,0 l0,200 l-200,0 Z M0,43.79" transform="matrix(1,0,0,-1,0,150)"/>
 </clipPath>
 <g clip-path="url(#clip171)">
  <path d="M143.08,87.58 l-44.33,0 l0,6.67 c0,16.75,5.83,23.42,22.42,23.42 c8.42,0,16.67,-2.83,22.83,-8.42 l1.25,0 l2.67,13.75 c-7.5,2.92,-17.33,4.5,-26.25,4.5 c-25.75,0,-37.08,-10.67,-37.08,-32.83 l0,-7.08 l-25.75,0 l0,-9.58 l25.75,0 l0,-51.33 c0,-10.25,-0.92,-18.92,-2.67,-25.58 l0,-1.08 l19.58,0 l0,1.08 c-1.83,6.67,-2.75,15.33,-2.75,25.58 l0,51.33 l44.33,0 Z M143.08,87.58" fill="rgb(0,0,0)" transform="matrix(1,0,0,-1,0,150)"/>
 </g>
 <clipPath id="clip172">
  <path clip-rule="evenodd" d="M0,-50 l200,0 l0,93.79 l-200,0 Z M0,-50" transform="matrix(1,0,0,-1,0,150)"/>
 </clipPath>
 <g clip-path="url(#clip172)">
  <path d="M143.08,87.58 l-44.33,0 l0,6.67 c0,16.75,5.83,23.42,22.42,23.42 c8.42,0,16.67,-2.83,22.83,-8.42 l1.25,0 l2.67,13.75 c-7.5,2.92,-17.33,4.5,-26.25,4.5 c-25.75,0,-37.08,-10.67,-37.08,-32.83 l0,-7.08 l-25.75,0 l0,-9.58 l25.75,0 l0,-51.33 c0,-10.25,-0.92,-18.92,-2.67,-25.58 l0,-1.08 l19.58,0 l0,1.08 c-1.83,6.67,-2.75,15.33,-2.75,25.58 l0,51.33 l44.33,0 Z M143.08,87.58" fill="rgb(0,0,0)" transform="matrix(1,0,0,-1,0,150)"/>
 </g>
 <path d="M0,43.79 l200,0" fill="none" stroke="rgb(255,0,0)" stroke-width="1" transform="matrix(1,0,0,-1,0,150)"/>
</svg>