<?xml version="1.0" encoding="UTF-8"?>
<svg width="200" height="200" viewBox="0 0 200 200" version="1.1" xmlns="http://www.w3.org/2000/svg" xmlns:xlink="http://www.w3.org/1999/xlink">
 <path d="M0,0 l200,0 l0,200 l-200,0 Z M0,0" fill="rgb(255,255,255)" transform="matrix(1,0,0,-1,0,200)"/>
 <clipPath id="clip187">
  <path clip-rule="evenodd" d="M0,43.79 l200,0 l0,200 l-200,0 Z M0,43.79" transform="matrix(1,0,0,-1,0,150)"/>
 </clipPath>
 <g clip-path="url(#clip187)">
  <path d="M141.0,87.58 l-42.25,0 l0,7.92 c0,18.92,5.83,26.33,21.33,26.33 c8.67,0,14.17,-5.42,18.17,-17.67 l3.75,0 l2.0,19.33 c-6.0,2.67,-12.83,4.0,-22.5,4.0 c-25.83,0,-36.92,-12.42,-36.92,-32.83 l0,-7.08 l-23.67,0 l0,-5.58 l23.67,0 l0,-55.33 c0,-12.83,-2.83,-21.33,-8.08,-23.5 l0,-3.17 l30.42,0 l0,3.17 c-5.33,2.17,-8.17,10.67,-8.17,23.5 l0,55.33 l42.25,0 Z M141.0,87.58" fill="rgb(0,0,0)" transform="matrix(1,0,0,-1,0,150)"/>
 </g>
 <clipPath id="clip188">
  <path clip-rule="evenodd" d="M0,-50 l200,0 l0,93.79 l-200,0 Z M0,-50" transform="matrix(1,0,0,-1,0,150)"/>
 </clipPath>
 <g clip-path="url(#clip188)">
  <path d="M143.08,87.58 l-44.33,0 l0,6.67 c0,16.75,5.83,23.42,22.42,23.42 c8.42,0,16.67,-2.83,22.83,-8.42 l1.25,0 l2.67,13.75 c-7.5,2.92,-17.33,4.5,-26.25,4.5 c-25.75,0,-37.08,-10.67,-37.08,-32.83 l0,-7.08 l-25.75,0 l0,-9.58 l25.75,0 l0,-51.33 c0,-10.25,-0.92,-18.92,-2.67,-25.58 l0,-1.08 l19.58,0 l0,1.08 c-1.83,6.67,-2.75,15.33,-2.75,25.58 l0,51.33 l44.33,0 Z M143.08,87.58" fill="rgb(0,0,0)" transform="matrix(1,0,0,-1,0,150)"/>
 </g>
 <path d="M0,43.79 l200,0" fill="none" stroke="rgb(255,0,0)" stroke-width="1" transform="matrix(1,0,0,-1,0,150)"/>
</svg>