<?xml version="1.0" encoding="UTF-8"?>
<svg width="200" height="200" viewBox="0 0 200 200" version="1.1" xmlns="http://www.w3.org/2000/svg" xmlns:xlink="http://www.w3.org/1999/xlink">
 <path d="M0,0 l200,0 l0,200 l-200,0 Z M0,0" fill="rgb(255,255,255)" transform="matrix(1,0,0,-1,0,200)"/>
 <clipPath id="clip273">
  <path clip-rule="evenodd" d="M0,43.79 l200,0 l0,200 l-200,0 Z M0,43.79" transform="matrix(1,0,0,-1,0,150)"/>
 </clipPath>
 <g clip-path="url(#clip273)">
  <path d="M79.33,-26.08 l-0.92,-6.5 c11.33,0.17,27.42,2.33,35.67,12.08 c5.42,6.67,8.25,15.33,8.25,29.17 l0,79.5 l-19.58,-0.58 l0,-2.08 c3.58,-4.0,5.42,-11.0,5.42,-22.17 l0,-54.67 c0,-12.75,-1.25,-18.17,-4.58,-23.67 c-5.25,-7.42,-16.17,-9.5,-24.25,-11.08 Z M103.42,113.0 c0,-7.25,4.42,-10.92,11.25,-10.92 c6.67,0,11.25,3.67,11.25,10.92 c0,7.25,-4.58,10.92,-11.25,10.92 c-6.83,0,-11.25,-3.67,-11.25,-10.92 Z M103.42,113.0" fill="rgb(0,0,0)" transform="matrix(1,0,0,-1,0,150)"/>
 </g>
 <clipPath id="clip274">
  <path clip-rule="evenodd" d="M0,-50 l200,0 l0,93.79 l-200,0 Z M0,-50" transform="matrix(1,0,0,-1,0,150)"/>
 </clipPath>
 <g clip-path="url(#clip274)">
  <path d="M63.17,-19.08 l-3.33,-11.58 c14.92,-6.25,41.58,-7.67,53.0,2.25 c6.83,5.92,9.5,15.5,9.5,29.17 l0,86.83 l-14.17,0 l0,-24.25 l0,-62.17 c0,-9.67,-1.83,-15.92,-6.08,-19.67 c-7.92,-6.92,-27.33,-4.83,-38.92,-0.58 Z M103.42,113.0 c0,-7.25,4.42,-10.92,11.25,-10.92 c6.67,0,11.25,3.67,11.25,10.92 c0,7.25,-4.58,10.92,-11.25,10.92 c-6.83,0,-11.25,-3.67,-11.25,-10.92 Z M103.42,113.0" fill="rgb(0,0,0)" transform="matrix(1,0,0,-1,0,150)"/>
 </g>
 <path d="M0,43.79 l200,0" fill="none" stroke="rgb(255,0,0)" stroke-width="1" transform="matrix(1,0,0,-1,0,150)"/>
</svg>