<?xml version="1.0" encoding="UTF-8"?>
<svg width="200" height="200" viewBox="0 0 200 200" version="1.1" xmlns="http://www.w3.org/2000/svg" xmlns:xlink="http://www.w3.org/1999/xlink">
 <path d="M0,0 l200,0 l0,200 l-200,0 Z M0,0" fill="rgb(255,255,255)" transform="matrix(1,0,0,-1,0,200)"/>
 <clipPath id="clip283">
  <path clip-rule="evenodd" d="M0,43.79 l200,0 l0,200 l-200,0 Z M0,43.79" transform="matrix(1,0,0,-1,0,150)"/>
 </clipPath>
 <g clip-path="url(#clip283)">
  <path d="M87.42,-29.58 l0.33,-3.92 c9.5,3.25,20.33,7.33,27.0,16.92 c4.67,7.08,7.58,15.25,7.58,29.25 l0,75.83 l-22.25,-0.92 l0,-3.08 c5.25,-2.08,8.08,-8.5,8.08,-21.17 l0,-50.92 c0,-14.25,-1.0,-19.25,-3.83,-25.67 c-3.92,-7.75,-10.67,-11.92,-16.92,-16.33 Z M103.42,113.0 c0,-7.25,4.42,-10.92,11.25,-10.92 c6.67,0,11.25,3.67,11.25,10.92 c0,7.25,-4.58,10.92,-11.25,10.92 c-6.83,0,-11.25,-3.67,-11.25,-10.92 Z M103.42,113.0" fill="rgb(0,0,0)" transform="matrix(1,0,0,-1,0,150)"/>
 </g>
 <clipPath id="clip284">
  <path clip-rule="evenodd" d="M0,-50 l200,0 l0,93.79 l-200,0 Z M0,-50" transform="matrix(1,0,0,-1,0,150)"/>
 </clipPath>
 <g clip-path="url(#clip284)">
  <path d="M71.25,-22.58 l-2.08,-9.0 c13.08,-3.08,34.5,-2.67,44.33,7.08 c6.08,6.33,8.83,15.42,8.83,29.25 l0,83.17 l-16.83,-0.33 l0,-1.0 c1.75,-6.08,2.67,-13.67,2.67,-23.25 l0,-58.42 c0,-11.17,-1.58,-17.0,-5.33,-21.67 c-6.58,-7.17,-21.75,-7.17,-31.58,-5.83 Z M103.42,113.0 c0,-7.25,4.42,-10.92,11.25,-10.92 c6.67,0,11.25,3.67,11.25,10.92 c0,7.25,-4.58,10.92,-11.25,10.92 c-6.83,0,-11.25,-3.67,-11.25,-10.92 Z M103.42,113.0" fill="rgb(0,0,0)" transform="matrix(1,0,0,-1,0,150)"/>
 </g>
 <path d="M0,43.79 l200,0" fill="none" stroke="rgb(255,0,0)" stroke-width="1" transform="matrix(1,0,0,-1,0,150)"/>
</svg>