<?xml version="1.0" encoding="UTF-8"?>
<svg width="200" height="200" viewBox="0 0 200 200" version="1.1" xmlns="http://www.w3.org/2000/svg" xmlns:xlink="http://www.w3.org/1999/xlink">
 <path d="M0,0 l200,0 l0,200 l-200,0 Z M0,0" fill="rgb(255,255,255)" transform="matrix(1,0,0,-1,0,200)"/>
 <clipPath id="clip347">
  <path clip-rule="evenodd" d="M0,43.79 l200,0 l0,200 l-200,0 Z M0,43.79" transform="matrix(1,0,0,-1,0,150)"/>
 </clipPath>
 <g clip-path="url(#clip347)">
  <path d="M55.67,3.17 l0,-3.17 l30.42,0 l0,3.17 c-5.33,2.17,-8.17,10.67,-8.17,23.5 l0,20.33 c0,20.17,10.0,33.25,27.17,33.25 c13.83,0,20.33,-8.08,20.33,-25.58 l0,-28.0 c0,-12.83,-2.83,-21.33,-8.08,-23.5 l0,-3.17 l30.42,0 l0,3.17 c-5.33,2.17,-8.17,10.67,-8.17,23.5 l0,31.17 c0,21.08,-10.33,32.25,-29.42,32.25 c-16.25,0,-26.33,-9.42,-31.5,-22.17 l-1.0,0 l-2.0,20.5 l-20.0,-0.83 l0,-3.08 c5.25,-2.08,8.08,-8.5,8.08,-21.17 l0,-36.67 c0,-12.83,-2.83,-21.33,-8.08,-23.5 Z M55.67,3.17" fill="rgb(0,0,0)" transform="matrix(1,0,0,-1,0,150)"/>
 </g>
 <clipPath id="clip348">
  <path clip-rule="evenodd" d="M0,-50 l200,0 l0,93.79 l-200,0 Z M0,-50" transform="matrix(1,0,0,-1,0,150)"/>
 </clipPath>
 <g clip-path="url(#clip348)">
  <path d="M61.08,1.08 l0,-1.08 l19.58,0 l0,1.08 c-1.83,6.67,-2.75,15.33,-2.75,25.58 l0,20.33 c0,18.92,11.0,31.17,27.58,31.17 c13.5,0,19.92,-7.42,19.92,-23.5 l0,-28.0 c0,-10.25,-0.92,-18.92,-2.67,-25.58 l0,-1.08 l19.58,0 l0,1.08 c-1.83,6.67,-2.75,15.33,-2.75,25.58 l0,31.17 c0,21.08,-10.33,32.25,-29.42,32.25 c-16.25,0,-26.33,-8.5,-31.5,-19.92 l-1.0,0 l-2.0,17.67 l-14.58,-0.25 l0,-1.0 c1.75,-6.08,2.67,-13.67,2.67,-23.25 l0,-36.67 c0,-10.25,-0.92,-18.92,-2.67,-25.58 Z M61.08,1.08" fill="rgb(0,0,0)" transform="matrix(1,0,0,-1,0,150)"/>
 </g>
 <path d="M0,43.79 l200,0" fill="none" stroke="rgb(255,0,0)" stroke-width="1" transform="matrix(1,0,0,-1,0,150)"/>
</svg>