<?xml version="1.0" encoding="UTF-8"?>
<svg width="200" height="200" viewBox="0 0 200 200" version="1.1" xmlns="http://www.w3.org/2000/svg" xmlns:xlink="http://www.w3.org/1999/xlink">
 <path d="M0,0 l200,0 l0,200 l-200,0 Z M0,0" fill="rgb(255,255,255)" transform="matrix(1,0,0,-1,0,200)"/>
 <clipPath id="clip463">
  <path clip-rule="evenodd" d="M0,43.79 l200,0 l0,200 l-200,0 Z M0,43.79" transform="matrix(1,0,0,-1,0,150)"/>
 </clipPath>
 <g clip-path="url(#clip463)">
  <path d="M128.75,90.08 c-15.75,0,-27.17,-7.75,-33.08,-22.67 l-1.0,0 l-1.58,20.42 l-29.83,-0.25 l0,-9.75 c6.67,0,12.5,-1.42,17.42,-5.0 l0,-57.5 c-5.33,-3.5,-11.58,-5.58,-18.67,-5.58 l0,-9.75 l60.58,0 l0,9.75 c-10.58,0,-19.83,2.08,-27.75,5.58 l0,25.92 c0,23.42,10.83,36.67,30.83,36.67 c7.17,0,12.92,-2.5,18.17,-7.33 l1.25,0 l2.08,16.67 c-5.5,1.83,-11.67,2.83,-18.42,2.83 Z M128.75,90.08" fill="rgb(0,0,0)" transform="matrix(1,0,0,-1,0,150)"/>
 </g>
 <clipPath id="clip464">
  <path clip-rule="evenodd" d="M0,-50 l200,0 l0,93.79 l-200,0 Z M0,-50" transform="matrix(1,0,0,-1,0,150)"/>
 </clipPath>
 <g clip-path="url(#clip464)">
  <path d="M127.67,90.08 c-16.08,0,-26.67,-9.17,-32.08,-23.08 l-1.0,0 l-1.83,21.42 l-25.08,-0.83 l0,-6.0 c6.92,0,11.33,-4.42,13.0,-15.08 l0,-43.58 c-1.75,-10.67,-6.33,-16.92,-13.42,-16.92 l0,-6.0 l47.92,0 l0,6.0 c-10.75,0,-17.67,6.25,-20.33,16.92 l0,22.17 c0,20.33,10.92,35.08,27.42,35.08 c7.17,0,11.83,-4.92,15.5,-16.0 l3.75,0 l1.25,24.17 c-4.83,1.17,-9.83,1.75,-15.08,1.75 Z M127.67,90.08" fill="rgb(0,0,0)" transform="matrix(1,0,0,-1,0,150)"/>
 </g>
 <path d="M0,43.79 l200,0" fill="none" stroke="rgb(255,0,0)" stroke-width="1" transform="matrix(1,0,0,-1,0,150)"/>
</svg>