<?xml version="1.0" encoding="UTF-8"?>
<svg width="200" height="200" viewBox="0 0 200 200" version="1.1" xmlns="http://www.w3.org/2000/svg" xmlns:xlink="http://www.w3.org/1999/xlink">
 <path d="M0,0 l200,0 l0,200 l-200,0 Z M0,0" fill="rgb(255,255,255)" transform="matrix(1,0,0,-1,0,200)"/>
 <clipPath id="clip473">
  <path clip-rule="evenodd" d="M0,43.79 l200,0 l0,200 l-200,0 Z M0,43.79" transform="matrix(1,0,0,-1,0,150)"/>
 </clipPath>
 <g clip-path="url(#clip473)">
  <path d="M127.67,90.08 c-16.08,0,-26.67,-9.17,-32.08,-23.08 l-1.0,0 l-1.83,21.42 l-25.08,-0.83 l0,-6.0 c6.92,0,11.33,-4.42,13.0,-15.08 l0,-43.58 c-1.75,-10.67,-6.33,-16.92,-13.42,-16.92 l0,-6.0 l47.92,0 l0,6.0 c-10.75,0,-17.67,6.25,-20.33,16.92 l0,22.17 c0,20.33,10.92,35.08,27.42,35.08 c7.17,0,11.83,-4.92,15.5,-16.0 l3.75,0 l1.25,24.17 c-4.83,1.17,-9.83,1.75,-15.08,1.75 Z M127.67,90.08" fill="rgb(0,0,0)" transform="matrix(1,0,0,-1,0,150)"/>
 </g>
 <clipPath id="clip474">
  <path clip-rule="evenodd" d="M0,-50 l200,0 l0,93.79 l-200,0 Z M0,-50" transform="matrix(1,0,0,-1,0,150)"/>
 </clipPath>
 <g clip-path="url(#clip474)">
  <path d="M129.33,90.08 c-15.67,0,-27.5,-7.0,-33.67,-22.42 l-1.0,0 l-1.42,19.92 l-32.25,0 l0,-11.58 l19.67,0 l0,-64.42 l-21.25,0 l0,-11.58 l66.83,0 l0,11.58 l-31.42,0 l0,27.75 c0,24.92,10.75,37.42,32.5,37.42 c7.17,0,13.5,-1.25,19.5,-2.92 l2.5,12.92 c-5.75,2.08,-12.58,3.33,-20.0,3.33 Z M129.33,90.08" fill="rgb(0,0,0)" transform="matrix(1,0,0,-1,0,150)"/>
 </g>
 <path d="M0,43.79 l200,0" fill="none" stroke="rgb(255,0,0)" stroke-width="1" transform="matrix(1,0,0,-1,0,150)"/>
</svg>