<?xml version="1.0" encoding="UTF-8"?>
<svg width="200" height="200" viewBox="0 0 200 200" version="1.1" xmlns="http://www.w3.org/2000/svg" xmlns:xlink="http://www.w3.org/1999/xlink">
 <path d="M0,0 l200,0 l0,200 l-200,0 Z M0,0" fill="rgb(255,255,255)" transform="matrix(1,0,0,-1,0,200)"/>
 <clipPath id="clip575">
  <path clip-rule="evenodd" d="M0,43.79 l200,0 l0,200 l-200,0 Z M0,43.79" transform="matrix(1,0,0,-1,0,150)"/>
 </clipPath>
 <g clip-path="url(#clip575)">
  <path d="M65.92,63.33 l25.17,-63.33 l5.75,0 c-5.83,-19.58,-12.33,-26.08,-23.83,-26.08 c-6.33,0,-10.58,4.67,-13.58,15.58 l-4.75,0 l-1.58,-23.75 c4.67,-0.92,10.25,-1.42,18.0,-1.42 c22.08,0,29.67,12.33,38.67,35.67 l24.58,63.33 c4.5,11.58,8.0,19.08,14.17,21.17 l0,3.08 l-30.75,0 l0,-3.08 c4.5,-2.08,6.92,-9.58,2.5,-21.17 l-19.0,-50.08 l-1.0,0 l-19.5,50.08 c-4.75,11.5,-2.17,19.08,2.33,21.17 l0,3.08 l-30.67,0 l0,-3.08 c6.17,-2.08,8.92,-9.67,13.5,-21.17 Z M65.92,63.33" fill="rgb(0,0,0)" transform="matrix(1,0,0,-1,0,150)"/>
 </g>
 <clipPath id="clip576">
  <path clip-rule="evenodd" d="M0,-50 l200,0 l0,93.79 l-200,0 Z M0,-50" transform="matrix(1,0,0,-1,0,150)"/>
 </clipPath>
 <g clip-path="url(#clip576)">
  <path d="M65.92,63.33 l25.17,-63.33 l5.75,0 c-5.83,-19.58,-12.33,-26.08,-23.83,-26.08 c-6.33,0,-10.58,4.67,-13.58,15.58 l-4.75,0 l-1.58,-23.75 c4.67,-0.92,10.25,-1.42,18.0,-1.42 c22.08,0,29.67,12.33,38.67,35.67 l24.58,63.33 c4.5,11.58,8.0,19.08,14.17,21.17 l0,3.08 l-30.75,0 l0,-3.08 c4.5,-2.08,6.92,-9.58,2.5,-21.17 l-19.0,-50.08 l-1.0,0 l-19.5,50.08 c-4.75,11.5,-2.17,19.08,2.33,21.17 l0,3.08 l-30.67,0 l0,-3.08 c6.17,-2.08,8.92,-9.67,13.5,-21.17 Z M65.92,63.33" fill="rgb(0,0,0)" transform="matrix(1,0,0,-1,0,150)"/>
 </g>
 <path d="M0,43.79 l200,0" fill="none" stroke="rgb(255,0,0)" stroke-width="1" transform="matrix(1,0,0,-1,0,150)"/>
</svg>