<?xml version="1.0" encoding="UTF-8"?>
<svg width="200" height="200" viewBox="0 0 200 200" version="1.1" xmlns="http://www.w3.org/2000/svg" xmlns:xlink="http://www.w3.org/1999/xlink">
 <path d="M0,0 l200,0 l0,200 l-200,0 Z M0,0" fill="rgb(255,255,255)" transform="matrix(1,0,0,-1,0,200)"/>
 <clipPath id="clip197">
  <path clip-rule="evenodd" d="M0,43.79 l200,0 l0,200 l-200,0 Z M0,43.79" transform="matrix(1,0,0,-1,0,150)"/>
 </clipPath>
 <g clip-path="url(#clip197)">
  <path d="M91.25,-2.42 c16.58,0,26.75,6.83,32.17,16.83 l1.08,0 l1.58,-14.42 l11.33,0 l0,26.67 l0,32.58 c0,21.33,-11.75,30.92,-36.42,30.92 c-24.08,0,-34.17,-10.92,-36.83,-26.75 l13.83,-1.42 c2.17,10.5,8.08,16.58,22.83,16.58 c15.67,0,22.67,-5.67,22.67,-19.33 l0,-6.83 l-32.0,-3.42 c-7.92,-0.83,-14.08,-2.58,-18.75,-5.25 c-8.08,-4.5,-11.58,-11.75,-11.58,-21.5 c0,-16.25,11.17,-24.67,30.08,-24.67 Z M94.25,9.17 c-12.67,0,-18.83,5.08,-18.83,14.17 c0,8.42,5.0,13.92,18.75,15.58 l29.33,3.5 l0,-8.08 c0,-14.92,-11.58,-25.17,-29.25,-25.17 Z M94.25,9.17" fill="rgb(0,0,0)" transform="matrix(1,0,0,-1,0,150)"/>
 </g>
 <clipPath id="clip198">
  <path clip-rule="evenodd" d="M0,-50 l200,0 l0,93.79 l-200,0 Z M0,-50" transform="matrix(1,0,0,-1,0,150)"/>
 </clipPath>
 <g clip-path="url(#clip198)">
  <path d="M91.0,-2.42 c16.33,0,26.33,7.42,31.58,18.17 l1.08,0 l1.83,-16.42 l18.17,0.58 l0,2.5 c-4.83,3.58,-6.5,12.25,-6.5,24.25 l0,32.58 c0,21.33,-11.75,30.92,-36.42,30.92 c-24.0,0,-34.08,-11.5,-36.75,-28.33 l9.33,-1.0 c2.5,12.92,9.67,20.42,27.25,20.42 c15.67,0,22.67,-6.5,22.67,-22.0 l0,-8.5 l-32.0,-2.5 c-7.92,-0.67,-14.25,-2.0,-18.75,-4.5 c-8.08,-4.5,-11.58,-11.83,-11.58,-21.5 c0,-16.25,11.17,-24.67,30.08,-24.67 Z M94.0,6.92 c-12.67,0,-18.83,5.92,-18.83,16.42 c0,9.83,4.92,16.33,18.75,17.5 l29.33,2.33 l0,-8.83 c0,-16.25,-11.58,-27.42,-29.25,-27.42 Z M94.0,6.92" fill="rgb(0,0,0)" transform="matrix(1,0,0,-1,0,150)"/>
 </g>
 <path d="M0,43.79 l200,0" fill="none" stroke="rgb(255,0,0)" stroke-width="1" transform="matrix(1,0,0,-1,0,150)"/>
</svg>