<?xml version="1.0" encoding="UTF-8"?>
<svg width="200" height="200" viewBox="0 0 200 200" version="1.1" xmlns="http://www.w3.org/2000/svg" xmlns:xlink="http://www.w3.org/1999/xlink">
 <path d="M0,0 l200,0 l0,200 l-200,0 Z M0,0" fill="rgb(255,255,255)" transform="matrix(1,0,0,-1,0,200)"/>
 <clipPath id="clip9">
  <path clip-rule="evenodd" d="M0,43.79 l200,0 l0,200 l-200,0 Z M0,43.79" transform="matrix(1,0,0,-1,0,150)"/>
 </clipPath>
 <g clip-path="url(#clip9)">
  <path d="M91.08,-2.42 c16.42,0,26.42,7.17,31.83,17.75 l1.0,0 l1.75,-15.83 l15.92,0.5 l0,1.67 c-3.25,5.33,-4.33,14.08,-4.33,25.0 l0,32.58 c0,21.33,-11.75,30.92,-36.42,30.92 c-24.0,0,-34.08,-11.33,-36.75,-27.75 l10.75,-1.25 c2.5,12.17,9.17,19.17,25.83,19.17 c15.67,0,22.67,-6.17,22.67,-21.08 l0,-7.92 l-32.0,-2.83 c-7.92,-0.67,-14.25,-2.17,-18.75,-4.75 c-8.08,-4.5,-11.58,-11.75,-11.58,-21.5 c0,-16.25,11.17,-24.67,30.08,-24.67 Z M94.08,7.67 c-12.67,0,-18.83,5.58,-18.83,15.67 c0,9.33,5.0,15.58,18.75,16.83 l29.33,2.75 l0,-8.58 c0,-15.83,-11.58,-26.67,-29.25,-26.67 Z M94.08,7.67" fill="rgb(0,0,0)" transform="matrix(1,0,0,-1,0,150)"/>
 </g>
 <clipPath id="clip10">
  <path clip-rule="evenodd" d="M0,-50 l200,0 l0,93.79 l-200,0 Z M0,-50" transform="matrix(1,0,0,-1,0,150)"/>
 </clipPath>
 <g clip-path="url(#clip10)">
  <path d="M91.25,-2.42 c16.58,0,26.75,6.83,32.17,16.83 l1.08,0 l1.58,-14.42 l11.33,0 l0,26.67 l0,32.58 c0,21.33,-11.75,30.92,-36.42,30.92 c-24.08,0,-34.17,-10.92,-36.83,-26.75 l13.83,-1.42 c2.17,10.5,8.08,16.58,22.83,16.58 c15.67,0,22.67,-5.67,22.67,-19.33 l0,-6.83 l-32.0,-3.42 c-7.92,-0.83,-14.08,-2.58,-18.75,-5.25 c-8.08,-4.5,-11.58,-11.75,-11.58,-21.5 c0,-16.25,11.17,-24.67,30.08,-24.67 Z M94.25,9.17 c-12.67,0,-18.83,5.08,-18.83,14.17 c0,8.42,5.0,13.92,18.75,15.58 l29.33,3.5 l0,-8.08 c0,-14.92,-11.58,-25.17,-29.25,-25.17 Z M94.25,9.17" fill="rgb(0,0,0)" transform="matrix(1,0,0,-1,0,150)"/>
 </g>
 <path d="M0,43.79 l200,0" fill="none" stroke="rgb(255,0,0)" stroke-width="1" transform="matrix(1,0,0,-1,0,150)"/>
</svg>