<?xml version="1.0" encoding="UTF-8"?>
<svg width="200" height="200" viewBox="0 0 200 200" version="1.1" xmlns="http://www.w3.org/2000/svg" xmlns:xlink="http://www.w3.org/1999/xlink">
 <path d="M0,0 l200,0 l0,200 l-200,0 Z M0,0" fill="rgb(255,255,255)" transform="matrix(1,0,0,-1,0,200)"/>
 <clipPath id="clip79">
  <path clip-rule="evenodd" d="M0,43.79 l200,0 l0,200 l-200,0 Z M0,43.79" transform="matrix(1,0,0,-1,0,150)"/>
 </clipPath>
 <g clip-path="url(#clip79)">
  <path d="M90.83,-2.42 c16.17,0,26.0,7.75,31.25,19.08 l1.0,0 l2.0,-17.83 l22.75,1.08 l0,4.17 c-8.08,0,-10.83,8.58,-10.83,22.58 l0,32.58 c0,21.33,-11.75,30.92,-36.42,30.92 c-23.92,0,-34.0,-11.92,-36.67,-29.33 l6.25,-0.83 c2.83,14.58,10.75,23.0,30.25,23.0 c15.67,0,22.67,-7.0,22.67,-23.75 l0,-9.58 l-32.0,-1.92 c-7.92,-0.5,-14.42,-1.58,-18.75,-4.0 c-8.08,-4.5,-11.58,-11.83,-11.58,-21.5 c0,-16.25,11.17,-24.67,30.08,-24.67 Z M93.83,5.42 c-12.67,0,-18.83,6.42,-18.83,17.92 c0,10.75,4.92,18.0,18.75,18.75 l29.33,1.58 l0,-9.33 c0,-17.17,-11.58,-28.92,-29.25,-28.92 Z M93.83,5.42" fill="rgb(0,0,0)" transform="matrix(1,0,0,-1,0,150)"/>
 </g>
 <clipPath id="clip80">
  <path clip-rule="evenodd" d="M0,-50 l200,0 l0,93.79 l-200,0 Z M0,-50" transform="matrix(1,0,0,-1,0,150)"/>
 </clipPath>
 <g clip-path="url(#clip80)">
  <path d="M90.83,-2.42 c16.17,0,26.0,7.75,31.25,19.08 l1.0,0 l2.0,-17.83 l22.75,1.08 l0,4.17 c-8.08,0,-10.83,8.58,-10.83,22.58 l0,32.58 c0,21.33,-11.75,30.92,-36.42,30.92 c-23.92,0,-34.0,-11.92,-36.67,-29.33 l6.25,-0.83 c2.83,14.58,10.75,23.0,30.25,23.0 c15.67,0,22.67,-7.0,22.67,-23.75 l0,-9.58 l-32.0,-1.92 c-7.92,-0.5,-14.42,-1.58,-18.75,-4.0 c-8.08,-4.5,-11.58,-11.83,-11.58,-21.5 c0,-16.25,11.17,-24.67,30.08,-24.67 Z M93.83,5.42 c-12.67,0,-18.83,6.42,-18.83,17.92 c0,10.75,4.92,18.0,18.75,18.75 l29.33,1.58 l0,-9.33 c0,-17.17,-11.58,-28.92,-29.25,-28.92 Z M93.83,5.42" fill="rgb(0,0,0)" transform="matrix(1,0,0,-1,0,150)"/>
 </g>
 <path d="M0,43.79 l200,0" fill="none" stroke="rgb(255,0,0)" stroke-width="1" transform="matrix(1,0,0,-1,0,150)"/>
</svg>