<?xml version="1.0" encoding="UTF-8"?>
<svg width="200" height="200" viewBox="0 0 200 200" version="1.1" xmlns="http://www.w3.org/2000/svg" xmlns:xlink="http://www.w3.org/1999/xlink">
 <path d="M0,0 l200,0 l0,200 l-200,0 Z M0,0" fill="rgb(255,255,255)" transform="matrix(1,0,0,-1,0,200)"/>
 <clipPath id="clip207">
  <path clip-rule="evenodd" d="M0,43.79 l200,0 l0,200 l-200,0 Z M0,43.79" transform="matrix(1,0,0,-1,0,150)"/>
 </clipPath>
 <g clip-path="url(#clip207)">
  <path d="M91.08,-2.42 c16.42,0,26.42,7.17,31.83,17.75 l1.0,0 l1.75,-15.83 l15.92,0.5 l0,1.67 c-3.25,5.33,-4.33,14.08,-4.33,25.0 l0,32.58 c0,21.33,-11.75,30.92,-36.42,30.92 c-24.0,0,-34.08,-11.33,-36.75,-27.75 l10.75,-1.25 c2.5,12.17,9.17,19.17,25.83,19.17 c15.67,0,22.67,-6.17,22.67,-21.08 l0,-7.92 l-32.0,-2.83 c-7.92,-0.67,-14.25,-2.17,-18.75,-4.75 c-8.08,-4.5,-11.58,-11.75,-11.58,-21.5 c0,-16.25,11.17,-24.67,30.08,-24.67 Z M94.08,7.67 c-12.67,0,-18.83,5.58,-18.83,15.67 c0,9.33,5.0,15.58,18.75,16.83 l29.33,2.75 l0,-8.58 c0,-15.83,-11.58,-26.67,-29.25,-26.67 Z M94.08,7.67" fill="rgb(0,0,0)" transform="matrix(1,0,0,-1,0,150)"/>
 </g>
 <clipPath id="clip208">
  <path clip-rule="evenodd" d="M0,-50 l200,0 l0,93.79 l-200,0 Z M0,-50" transform="matrix(1,0,0,-1,0,150)"/>
 </clipPath>
 <g clip-path="url(#clip208)">
  <path d="M91.0,-2.42 c16.33,0,26.33,7.42,31.58,18.17 l1.08,0 l1.83,-16.42 l18.17,0.58 l0,2.5 c-4.83,3.58,-6.5,12.25,-6.5,24.25 l0,32.58 c0,21.33,-11.75,30.92,-36.42,30.92 c-24.0,0,-34.08,-11.5,-36.75,-28.33 l9.33,-1.0 c2.5,12.92,9.67,20.42,27.25,20.42 c15.67,0,22.67,-6.5,22.67,-22.0 l0,-8.5 l-32.0,-2.5 c-7.92,-0.67,-14.25,-2.0,-18.75,-4.5 c-8.08,-4.5,-11.58,-11.83,-11.58,-21.5 c0,-16.25,11.17,-24.67,30.08,-24.67 Z M94.0,6.92 c-12.67,0,-18.83,5.92,-18.83,16.42 c0,9.83,4.92,16.33,18.75,17.5 l29.33,2.33 l0,-8.83 c0,-16.25,-11.58,-27.42,-29.25,-27.42 Z M94.0,6.92" fill="rgb(0,0,0)" transform="matrix(1,0,0,-1,0,150)"/>
 </g>
 <path d="M0,43.79 l200,0" fill="none" stroke="rgb(255,0,0)" stroke-width="1" transform="matrix(1,0,0,-1,0,150)"/>
</svg>