<?xml version="1.0" encoding="UTF-8"?>
<svg width="200" height="200" viewBox="0 0 200 200" version="1.1" xmlns="http://www.w3.org/2000/svg" xmlns:xlink="http://www.w3.org/1999/xlink">
 <path d="M0,0 l200,0 l0,200 l-200,0 Z M0,0" fill="rgb(255,255,255)" transform="matrix(1,0,0,-1,0,200)"/>
 <clipPath id="clip17">
  <path clip-rule="evenodd" d="M0,43.79 l200,0 l0,200 l-200,0 Z M0,43.79" transform="matrix(1,0,0,-1,0,150)"/>
 </clipPath>
 <g clip-path="url(#clip17)">
  <path d="M91.04,-2.42 c16.42,0,26.42,7.83,31.75,19.25 l1.0,0 l1.83,-17.42 l17.0,0.58 l0,2.08 c-4.0,4.42,-5.42,13.17,-5.42,24.58 l0,32.58 c0,21.33,-11.75,30.92,-36.42,30.92 c-23.67,0,-33.67,-11.42,-36.33,-28.08 l8.42,-0.92 c2.58,12.42,9.83,19.67,27.75,19.67 c15.67,0,22.67,-6.33,22.67,-21.58 l0,-9.08 l-32.0,-2.17 c-7.92,-0.5,-14.67,-2.0,-18.75,-4.25 c-8.08,-4.42,-11.58,-11.75,-11.58,-21.5 c0,-16.25,11.17,-24.67,30.08,-24.67 Z M75.21,24.17 c0,9.0,5.0,15.42,18.75,16.58 l29.33,2.33 l0,-8.75 c0,-16.0,-11.58,-27.0,-29.25,-27.0 c-12.67,0,-18.83,6.0,-18.83,16.83 Z M75.21,24.17" fill="rgb(0,0,0)" transform="matrix(1,0,0,-1,0,150)"/>
 </g>
 <clipPath id="clip18">
  <path clip-rule="evenodd" d="M0,-50 l200,0 l0,93.79 l-200,0 Z M0,-50" transform="matrix(1,0,0,-1,0,150)"/>
 </clipPath>
 <g clip-path="url(#clip18)">
  <path d="M91.25,-2.42 c16.58,0,26.75,6.83,32.17,16.83 l1.08,0 l1.58,-14.42 l11.33,0 l0,26.67 l0,32.58 c0,21.33,-11.75,30.92,-36.42,30.92 c-24.08,0,-34.17,-10.92,-36.83,-26.75 l13.83,-1.42 c2.17,10.5,8.08,16.58,22.83,16.58 c15.67,0,22.67,-5.67,22.67,-19.33 l0,-6.83 l-32.0,-3.42 c-7.92,-0.83,-14.08,-2.58,-18.75,-5.25 c-8.08,-4.5,-11.58,-11.75,-11.58,-21.5 c0,-16.25,11.17,-24.67,30.08,-24.67 Z M75.42,23.33 c0,8.42,5.0,13.92,18.75,15.58 l29.33,3.5 l0,-8.08 c0,-14.92,-11.58,-25.17,-29.25,-25.17 c-12.67,0,-18.83,5.08,-18.83,14.17 Z M75.42,23.33" fill="rgb(0,0,0)" transform="matrix(1,0,0,-1,0,150)"/>
 </g>
 <path d="M0,43.79 l200,0" fill="none" stroke="rgb(255,0,0)" stroke-width="1" transform="matrix(1,0,0,-1,0,150)"/>
</svg>