<?xml version="1.0" encoding="UTF-8"?>
<svg width="200" height="200" viewBox="0 0 200 200" version="1.1" xmlns="http://www.w3.org/2000/svg" xmlns:xlink="http://www.w3.org/1999/xlink">
 <path d="M0,0 l200,0 l0,200 l-200,0 Z M0,0" fill="rgb(255,255,255)" transform="matrix(1,0,0,-1,0,200)"/>
 <clipPath id="clip19">
  <path clip-rule="evenodd" d="M0,43.79 l200,0 l0,200 l-200,0 Z M0,43.79" transform="matrix(1,0,0,-1,0,150)"/>
 </clipPath>
 <g clip-path="url(#clip19)">
  <path d="M91.04,-2.42 c16.42,0,26.42,7.83,31.75,19.25 l1.0,0 l1.83,-17.42 l17.0,0.58 l0,2.08 c-4.0,4.42,-5.42,13.17,-5.42,24.58 l0,32.58 c0,21.33,-11.75,30.92,-36.42,30.92 c-23.67,0,-33.67,-11.42,-36.33,-28.08 l8.42,-0.92 c2.58,12.42,9.83,19.67,27.75,19.67 c15.67,0,22.67,-6.33,22.67,-21.58 l0,-9.08 l-32.0,-2.17 c-7.92,-0.5,-14.67,-2.0,-18.75,-4.25 c-8.08,-4.42,-11.58,-11.75,-11.58,-21.5 c0,-16.25,11.17,-24.67,30.08,-24.67 Z M75.21,24.17 c0,9.0,5.0,15.42,18.75,16.58 l29.33,2.33 l0,-8.75 c0,-16.0,-11.58,-27.0,-29.25,-27.0 c-12.67,0,-18.83,6.0,-18.83,16.83 Z M75.21,24.17" fill="rgb(0,0,0)" transform="matrix(1,0,0,-1,0,150)"/>
 </g>
 <clipPath id="clip20">
  <path clip-rule="evenodd" d="M0,-50 l200,0 l0,93.79 l-200,0 Z M0,-50" transform="matrix(1,0,0,-1,0,150)"/>
 </clipPath>
 <g clip-path="url(#clip20)">
  <path d="M91.12,-2.42 c16.5,0,26.58,7.33,31.92,18.0 l1.08,0 l1.67,-15.83 l14.25,0.25 l0,1.0 c-2.08,6.75,-2.75,15.5,-2.75,25.67 l0,32.58 c0,21.33,-11.75,30.92,-36.42,30.92 c-23.92,0,-33.92,-11.17,-36.58,-27.42 l11.08,-1.17 c2.42,11.5,9.0,18.08,25.33,18.08 c15.67,0,22.67,-6.0,22.67,-20.42 l0,-8.0 l-32.0,-2.75 c-7.92,-0.67,-14.33,-2.25,-18.75,-4.75 c-8.08,-4.42,-11.58,-11.75,-11.58,-21.5 c0,-16.25,11.17,-24.67,30.08,-24.67 Z M75.29,23.75 c0,8.75,5.0,14.67,18.75,16.08 l29.33,2.92 l0,-8.42 c0,-15.5,-11.58,-26.08,-29.25,-26.08 c-12.67,0,-18.83,5.58,-18.83,15.5 Z M75.29,23.75" fill="rgb(0,0,0)" transform="matrix(1,0,0,-1,0,150)"/>
 </g>
 <path d="M0,43.79 l200,0" fill="none" stroke="rgb(255,0,0)" stroke-width="1" transform="matrix(1,0,0,-1,0,150)"/>
</svg>