<?xml version="1.0" encoding="UTF-8"?>
<svg width="200" height="200" viewBox="0 0 200 200" version="1.1" xmlns="http://www.w3.org/2000/svg" xmlns:xlink="http://www.w3.org/1999/xlink">
 <path d="M0,0 l200,0 l0,200 l-200,0 Z M0,0" fill="rgb(255,255,255)" transform="matrix(1,0,0,-1,0,200)"/>
 <clipPath id="clip21">
  <path clip-rule="evenodd" d="M0,43.79 l200,0 l0,200 l-200,0 Z M0,43.79" transform="matrix(1,0,0,-1,0,150)"/>
 </clipPath>
 <g clip-path="url(#clip21)">
  <path d="M91.0,-2.42 c16.33,0,26.33,8.0,31.58,19.67 l1.08,0 l1.83,-17.92 l18.17,0.58 l0,2.5 c-4.83,3.58,-6.5,12.25,-6.5,24.25 l0,32.58 c0,21.33,-11.75,30.92,-36.42,30.92 c-23.67,0,-33.58,-11.58,-36.25,-28.33 l7.33,-0.92 c2.67,12.92,10.17,20.33,28.75,20.33 c15.67,0,22.67,-6.5,22.67,-22.0 l0,-9.58 l-32.0,-1.83 c-7.92,-0.5,-14.75,-1.92,-18.75,-4.08 c-8.17,-4.42,-11.58,-11.83,-11.58,-21.5 c0,-16.25,11.17,-24.67,30.08,-24.67 Z M94.0,6.92 c-12.67,0,-18.83,6.25,-18.83,17.42 c0,9.08,4.92,15.75,18.75,16.75 l29.33,2.08 l0,-8.83 c0,-16.25,-11.58,-27.42,-29.25,-27.42 Z M94.0,6.92" fill="rgb(0,0,0)" transform="matrix(1,0,0,-1,0,150)"/>
 </g>
 <clipPath id="clip22">
  <path clip-rule="evenodd" d="M0,-50 l200,0 l0,93.79 l-200,0 Z M0,-50" transform="matrix(1,0,0,-1,0,150)"/>
 </clipPath>
 <g clip-path="url(#clip22)">
  <path d="M91.0,-2.42 c16.33,0,26.33,8.0,31.58,19.67 l1.08,0 l1.83,-17.92 l18.17,0.58 l0,2.5 c-4.83,3.58,-6.5,12.25,-6.5,24.25 l0,32.58 c0,21.33,-11.75,30.92,-36.42,30.92 c-23.67,0,-33.58,-11.58,-36.25,-28.33 l7.33,-0.92 c2.67,12.92,10.17,20.33,28.75,20.33 c15.67,0,22.67,-6.5,22.67,-22.0 l0,-9.58 l-32.0,-1.83 c-7.92,-0.5,-14.75,-1.92,-18.75,-4.08 c-8.17,-4.42,-11.58,-11.83,-11.58,-21.5 c0,-16.25,11.17,-24.67,30.08,-24.67 Z M94.0,6.92 c-12.67,0,-18.83,6.25,-18.83,17.42 c0,9.08,4.92,15.75,18.75,16.75 l29.33,2.08 l0,-8.83 c0,-16.25,-11.58,-27.42,-29.25,-27.42 Z M94.0,6.92" fill="rgb(0,0,0)" transform="matrix(1,0,0,-1,0,150)"/>
 </g>
 <path d="M0,43.79 l200,0" fill="none" stroke="rgb(255,0,0)" stroke-width="1" transform="matrix(1,0,0,-1,0,150)"/>
</svg>