<?xml version="1.0" encoding="UTF-8"?>
<svg width="200" height="200" viewBox="0 0 200 200" version="1.1" xmlns="http://www.w3.org/2000/svg" xmlns:xlink="http://www.w3.org/1999/xlink">
 <path d="M0,0 l200,0 l0,200 l-200,0 Z M0,0" fill="rgb(255,255,255)" transform="matrix(1,0,0,-1,0,200)"/>
 <clipPath id="clip27">
  <path clip-rule="evenodd" d="M0,43.79 l200,0 l0,200 l-200,0 Z M0,43.79" transform="matrix(1,0,0,-1,0,150)"/>
 </clipPath>
 <g clip-path="url(#clip27)">
  <path d="M90.83,-2.42 c16.17,0,26.0,8.75,31.25,21.58 l1.0,0 l2.0,-20.33 l22.75,1.08 l0,4.17 c-8.08,0,-10.83,8.58,-10.83,22.58 l0,32.58 c0,21.33,-11.75,30.92,-36.42,30.92 c-23.33,0,-33.25,-12.0,-35.83,-29.42 l2.92,-0.5 c3.08,14.42,11.67,22.75,32.75,22.75 c15.67,0,22.67,-7.0,22.67,-23.75 l0,-11.42 l-32.0,-0.83 c-7.92,-0.17,-15.25,-1.42,-18.75,-3.25 c-8.17,-4.33,-11.58,-11.83,-11.58,-21.5 c0,-16.25,11.17,-24.67,30.08,-24.67 Z M93.83,5.42 c-12.67,0,-18.83,7.0,-18.83,19.58 c0,9.58,4.92,16.92,18.75,17.5 l29.33,1.17 l0,-9.33 c0,-17.17,-11.58,-28.92,-29.25,-28.92 Z M93.83,5.42" fill="rgb(0,0,0)" transform="matrix(1,0,0,-1,0,150)"/>
 </g>
 <clipPath id="clip28">
  <path clip-rule="evenodd" d="M0,-50 l200,0 l0,93.79 l-200,0 Z M0,-50" transform="matrix(1,0,0,-1,0,150)"/>
 </clipPath>
 <g clip-path="url(#clip28)">
  <path d="M91.08,-2.42 c16.42,0,26.42,7.58,31.83,18.75 l1.0,0 l1.75,-16.83 l15.92,0.5 l0,1.67 c-3.25,5.33,-4.33,14.08,-4.33,25.0 l0,32.58 c0,21.33,-11.75,30.92,-36.42,30.92 c-23.75,0,-33.83,-11.33,-36.42,-27.83 l9.42,-1.0 c2.58,12.0,9.58,19.0,26.83,19.0 c15.67,0,22.67,-6.17,22.67,-21.08 l0,-8.67 l-32.0,-2.42 c-7.92,-0.5,-14.58,-2.08,-18.75,-4.42 c-8.08,-4.42,-11.58,-11.75,-11.58,-21.5 c0,-16.25,11.17,-24.67,30.08,-24.67 Z M94.08,7.67 c-12.67,0,-18.83,5.83,-18.83,16.33 c0,8.92,5.0,15.08,18.75,16.33 l29.33,2.58 l0,-8.58 c0,-15.83,-11.58,-26.67,-29.25,-26.67 Z M94.08,7.67" fill="rgb(0,0,0)" transform="matrix(1,0,0,-1,0,150)"/>
 </g>
 <path d="M0,43.79 l200,0" fill="none" stroke="rgb(255,0,0)" stroke-width="1" transform="matrix(1,0,0,-1,0,150)"/>
</svg>