<?xml version="1.0" encoding="UTF-8"?>
<svg width="200" height="200" viewBox="0 0 200 200" version="1.1" xmlns="http://www.w3.org/2000/svg" xmlns:xlink="http://www.w3.org/1999/xlink">
 <path d="M0,0 l200,0 l0,200 l-200,0 Z M0,0" fill="rgb(255,255,255)" transform="matrix(1,0,0,-1,0,200)"/>
 <clipPath id="clip27">
  <path clip-rule="evenodd" d="M0,43.79 l200,0 l0,200 l-200,0 Z M0,43.79" transform="matrix(1,0,0,-1,0,150)"/>
 </clipPath>
 <g clip-path="url(#clip27)">
  <path d="M90.92,-2.42 c16.25,0,26.17,8.25,31.5,20.42 l1.0,0 l1.92,-18.83 l19.92,0.75 l0,3.17 c-6.08,2.25,-8.17,10.83,-8.17,23.58 l0,32.58 c0,21.33,-11.75,30.92,-36.42,30.92 c-23.5,0,-33.5,-11.75,-36.08,-28.75 l5.67,-0.75 c2.83,13.5,10.75,21.25,30.25,21.25 c15.67,0,22.67,-6.67,22.67,-22.67 l0,-10.25 l-32.0,-1.5 c-7.92,-0.33,-14.92,-1.67,-18.75,-3.75 c-8.17,-4.33,-11.58,-11.83,-11.58,-21.5 c0,-16.25,11.17,-24.67,30.08,-24.67 Z M75.08,24.58 c0,9.33,4.92,16.17,18.75,17.0 l29.33,1.75 l0,-9.0 c0,-16.58,-11.58,-28.0,-29.25,-28.0 c-12.67,0,-18.83,6.58,-18.83,18.25 Z M75.08,24.58" fill="rgb(0,0,0)" transform="matrix(1,0,0,-1,0,150)"/>
 </g>
 <clipPath id="clip28">
  <path clip-rule="evenodd" d="M0,-50 l200,0 l0,93.79 l-200,0 Z M0,-50" transform="matrix(1,0,0,-1,0,150)"/>
 </clipPath>
 <g clip-path="url(#clip28)">
  <path d="M91.12,-2.42 c16.5,0,26.58,7.33,31.92,18.0 l1.08,0 l1.67,-15.83 l14.25,0.25 l0,1.0 c-2.08,6.75,-2.75,15.5,-2.75,25.67 l0,32.58 c0,21.33,-11.75,30.92,-36.42,30.92 c-23.92,0,-33.92,-11.17,-36.58,-27.42 l11.08,-1.17 c2.42,11.5,9.0,18.08,25.33,18.08 c15.67,0,22.67,-6.0,22.67,-20.42 l0,-8.0 l-32.0,-2.75 c-7.92,-0.67,-14.33,-2.25,-18.75,-4.75 c-8.08,-4.42,-11.58,-11.75,-11.58,-21.5 c0,-16.25,11.17,-24.67,30.08,-24.67 Z M75.29,23.75 c0,8.75,5.0,14.67,18.75,16.08 l29.33,2.92 l0,-8.42 c0,-15.5,-11.58,-26.08,-29.25,-26.08 c-12.67,0,-18.83,5.58,-18.83,15.5 Z M75.29,23.75" fill="rgb(0,0,0)" transform="matrix(1,0,0,-1,0,150)"/>
 </g>
 <path d="M0,43.79 l200,0" fill="none" stroke="rgb(255,0,0)" stroke-width="1" transform="matrix(1,0,0,-1,0,150)"/>
</svg>