<?xml version="1.0" encoding="UTF-8"?>
<svg width="200" height="200" viewBox="0 0 200 200" version="1.1" xmlns="http://www.w3.org/2000/svg" xmlns:xlink="http://www.w3.org/1999/xlink">
 <path d="M0,0 l200,0 l0,200 l-200,0 Z M0,0" fill="rgb(255,255,255)" transform="matrix(1,0,0,-1,0,200)"/>
 <clipPath id="clip241">
  <path clip-rule="evenodd" d="M0,43.79 l200,0 l0,200 l-200,0 Z M0,43.79" transform="matrix(1,0,0,-1,0,150)"/>
 </clipPath>
 <g clip-path="url(#clip241)">
  <path d="M91.25,-2.42 c16.58,0,26.75,6.83,32.17,16.83 l1.08,0 l1.58,-14.42 l28.0,0 l0,11.58 l-16.67,0 l0,47.67 c0,21.17,-11.75,30.92,-36.42,30.92 c-12.08,0,-24.17,-1.67,-35.17,-5.08 l0,-27.5 l13.0,-0.08 l0,18.92 c7.58,1.33,14.17,2.17,22.0,2.17 c15.67,0,22.67,-5.67,22.67,-19.33 l0,-6.83 l-32.0,-3.42 c-7.92,-0.83,-14.08,-2.58,-18.75,-5.25 c-8.08,-4.5,-11.58,-11.75,-11.58,-21.5 c0,-16.25,11.17,-24.67,30.08,-24.67 Z M94.25,9.17 c-12.67,0,-18.83,5.08,-18.83,14.17 c0,8.42,5.0,13.92,18.75,15.58 l29.33,3.5 l0,-8.08 c0,-14.92,-11.58,-25.17,-29.25,-25.17 Z M94.25,9.17" fill="rgb(0,0,0)" transform="matrix(1,0,0,-1,0,150)"/>
 </g>
 <clipPath id="clip242">
  <path clip-rule="evenodd" d="M0,-50 l200,0 l0,93.79 l-200,0 Z M0,-50" transform="matrix(1,0,0,-1,0,150)"/>
 </clipPath>
 <g clip-path="url(#clip242)">
  <path d="M91.25,-2.42 c16.58,0,26.75,6.83,32.17,16.83 l1.08,0 l1.58,-14.42 l28.0,0 l0,11.58 l-16.67,0 l0,47.67 c0,21.17,-11.75,30.92,-36.42,30.92 c-12.08,0,-24.17,-1.67,-35.17,-5.08 l0,-27.5 l13.0,-0.08 l0,18.92 c7.58,1.33,14.17,2.17,22.0,2.17 c15.67,0,22.67,-5.67,22.67,-19.33 l0,-6.83 l-32.0,-3.42 c-7.92,-0.83,-14.08,-2.58,-18.75,-5.25 c-8.08,-4.5,-11.58,-11.75,-11.58,-21.5 c0,-16.25,11.17,-24.67,30.08,-24.67 Z M94.25,9.17 c-12.67,0,-18.83,5.08,-18.83,14.17 c0,8.42,5.0,13.92,18.75,15.58 l29.33,3.5 l0,-8.08 c0,-14.92,-11.58,-25.17,-29.25,-25.17 Z M94.25,9.17" fill="rgb(0,0,0)" transform="matrix(1,0,0,-1,0,150)"/>
 </g>
 <path d="M0,43.79 l200,0" fill="none" stroke="rgb(255,0,0)" stroke-width="1" transform="matrix(1,0,0,-1,0,150)"/>
</svg>