<?xml version="1.0" encoding="UTF-8"?>
<svg width="200" height="200" viewBox="0 0 200 200" version="1.1" xmlns="http://www.w3.org/2000/svg" xmlns:xlink="http://www.w3.org/1999/xlink">
 <path d="M0,0 l200,0 l0,200 l-200,0 Z M0,0" fill="rgb(255,255,255)" transform="matrix(1,0,0,-1,0,200)"/>
 <clipPath id="clip37">
  <path clip-rule="evenodd" d="M0,43.79 l200,0 l0,200 l-200,0 Z M0,43.79" transform="matrix(1,0,0,-1,0,150)"/>
 </clipPath>
 <g clip-path="url(#clip37)">
  <path d="M108.5,-2.5 c26.5,0,38.83,17.17,38.83,46.33 c0,29.0,-12.33,46.25,-38.58,46.25 c-17.17,0,-26.58,-7.75,-31.75,-18.42 l-1.08,0 l0.33,53.33 l-14.25,0 l0,-24.25 l0.08,-100.75 l11.83,0 l2.25,15.08 l0.75,0 c5.08,-10.42,14.42,-17.58,31.58,-17.58 Z M104.17,9.67 c-19.75,0,-28.5,15.0,-28.5,34.17 c0,19.08,8.75,34.08,28.5,34.08 c20.83,0,28.67,-11.08,28.67,-34.08 c0,-23.08,-7.83,-34.17,-28.67,-34.17 Z M104.17,9.67" fill="rgb(0,0,0)" transform="matrix(1,0,0,-1,0,150)"/>
 </g>
 <clipPath id="clip38">
  <path clip-rule="evenodd" d="M0,-50 l200,0 l0,93.79 l-200,0 Z M0,-50" transform="matrix(1,0,0,-1,0,150)"/>
 </clipPath>
 <g clip-path="url(#clip38)">
  <path d="M108.5,-2.5 c26.5,0,38.83,17.17,38.83,46.33 c0,29.0,-12.33,46.25,-38.58,46.25 c-17.17,0,-26.58,-8.75,-31.75,-21.33 l-1.0,0 l0.25,56.92 l-20.67,-0.67 l0,-2.5 c4.25,-3.25,6.5,-10.0,6.5,-21.75 l0,-103.25 l6.75,0 l7.42,20.58 l0.75,0 c5.08,-12.25,14.33,-20.58,31.5,-20.58 Z M104.17,7.17 c-19.75,0,-28.5,16.08,-28.5,36.67 c0,20.5,8.75,36.58,28.5,36.58 c20.83,0,28.67,-11.92,28.67,-36.58 c0,-24.75,-7.83,-36.67,-28.67,-36.67 Z M104.17,7.17" fill="rgb(0,0,0)" transform="matrix(1,0,0,-1,0,150)"/>
 </g>
 <path d="M0,43.79 l200,0" fill="none" stroke="rgb(255,0,0)" stroke-width="1" transform="matrix(1,0,0,-1,0,150)"/>
</svg>