<?xml version="1.0" encoding="UTF-8"?>
<svg width="200" height="200" viewBox="0 0 200 200" version="1.1" xmlns="http://www.w3.org/2000/svg" xmlns:xlink="http://www.w3.org/1999/xlink">
 <path d="M0,0 l200,0 l0,200 l-200,0 Z M0,0" fill="rgb(255,255,255)" transform="matrix(1,0,0,-1,0,200)"/>
 <clipPath id="clip41">
  <path clip-rule="evenodd" d="M0,43.79 l200,0 l0,200 l-200,0 Z M0,43.79" transform="matrix(1,0,0,-1,0,150)"/>
 </clipPath>
 <g clip-path="url(#clip41)">
  <path d="M108.5,-2.5 c26.5,0,38.83,17.17,38.83,46.33 c0,29.0,-12.33,46.25,-38.58,46.25 c-17.17,0,-26.58,-8.42,-31.75,-20.42 l-1.08,0 l0.33,55.75 l-18.58,-0.42 l0,-1.67 c2.83,-4.83,4.33,-12.08,4.33,-22.58 l0.08,-102.42 l8.42,0 l5.67,18.75 l0.75,0 c5.08,-11.58,14.42,-19.58,31.58,-19.58 Z M104.17,8.0 c-19.75,0,-28.5,15.75,-28.5,35.83 c0,20.0,8.75,35.75,28.5,35.75 c20.83,0,28.67,-11.58,28.67,-35.75 c0,-24.25,-7.83,-35.83,-28.67,-35.83 Z M104.17,8.0" fill="rgb(0,0,0)" transform="matrix(1,0,0,-1,0,150)"/>
 </g>
 <clipPath id="clip42">
  <path clip-rule="evenodd" d="M0,-50 l200,0 l0,93.79 l-200,0 Z M0,-50" transform="matrix(1,0,0,-1,0,150)"/>
 </clipPath>
 <g clip-path="url(#clip42)">
  <path d="M108.5,-2.5 c26.5,0,38.83,17.17,38.83,46.33 c0,29.0,-12.33,46.25,-38.58,46.25 c-17.17,0,-26.58,-7.75,-31.75,-18.42 l-1.08,0 l0.33,53.33 l-14.25,0 l0,-24.25 l0.08,-100.75 l11.83,0 l2.25,15.08 l0.75,0 c5.08,-10.42,14.42,-17.58,31.58,-17.58 Z M104.17,9.67 c-19.75,0,-28.5,15.0,-28.5,34.17 c0,19.08,8.75,34.08,28.5,34.08 c20.83,0,28.67,-11.08,28.67,-34.08 c0,-23.08,-7.83,-34.17,-28.67,-34.17 Z M104.17,9.67" fill="rgb(0,0,0)" transform="matrix(1,0,0,-1,0,150)"/>
 </g>
 <path d="M0,43.79 l200,0" fill="none" stroke="rgb(255,0,0)" stroke-width="1" transform="matrix(1,0,0,-1,0,150)"/>
</svg>