<?xml version="1.0" encoding="UTF-8"?>
<svg width="200" height="200" viewBox="0 0 200 200" version="1.1" xmlns="http://www.w3.org/2000/svg" xmlns:xlink="http://www.w3.org/1999/xlink">
 <path d="M0,0 l200,0 l0,200 l-200,0 Z M0,0" fill="rgb(255,255,255)" transform="matrix(1,0,0,-1,0,200)"/>
 <clipPath id="clip53">
  <path clip-rule="evenodd" d="M0,43.79 l200,0 l0,200 l-200,0 Z M0,43.79" transform="matrix(1,0,0,-1,0,150)"/>
 </clipPath>
 <g clip-path="url(#clip53)">
  <path d="M108.5,-2.5 c26.5,0,38.83,17.17,38.83,46.33 c0,29.0,-12.33,46.25,-38.58,46.25 c-17.17,0,-26.58,-8.58,-31.75,-20.83 l-1.0,0 l0.25,56.33 l-19.58,-0.58 l0,-2.08 c3.5,-4.0,5.42,-11.0,5.42,-22.17 l0,-102.83 l7.58,0 l6.58,19.67 l0.75,0 c5.08,-11.92,14.33,-20.08,31.5,-20.08 Z M75.67,43.83 c0,20.25,8.75,36.17,28.5,36.17 c20.83,0,28.67,-11.75,28.67,-36.17 c0,-24.5,-7.83,-36.25,-28.67,-36.25 c-19.75,0,-28.5,15.92,-28.5,36.25 Z M75.67,43.83" fill="rgb(0,0,0)" transform="matrix(1,0,0,-1,0,150)"/>
 </g>
 <clipPath id="clip54">
  <path clip-rule="evenodd" d="M0,-50 l200,0 l0,93.79 l-200,0 Z M0,-50" transform="matrix(1,0,0,-1,0,150)"/>
 </clipPath>
 <g clip-path="url(#clip54)">
  <path d="M108.5,-2.5 c26.5,0,38.83,17.17,38.83,46.33 c0,29.0,-12.33,46.25,-38.58,46.25 c-17.17,0,-26.58,-8.58,-31.75,-20.83 l-1.0,0 l0.25,56.33 l-19.58,-0.58 l0,-2.08 c3.5,-4.0,5.42,-11.0,5.42,-22.17 l0,-102.83 l7.58,0 l6.58,19.67 l0.75,0 c5.08,-11.92,14.33,-20.08,31.5,-20.08 Z M75.67,43.83 c0,20.25,8.75,36.17,28.5,36.17 c20.83,0,28.67,-11.75,28.67,-36.17 c0,-24.5,-7.83,-36.25,-28.67,-36.25 c-19.75,0,-28.5,15.92,-28.5,36.25 Z M75.67,43.83" fill="rgb(0,0,0)" transform="matrix(1,0,0,-1,0,150)"/>
 </g>
 <path d="M0,43.79 l200,0" fill="none" stroke="rgb(255,0,0)" stroke-width="1" transform="matrix(1,0,0,-1,0,150)"/>
</svg>