<?xml version="1.0" encoding="UTF-8"?>
<svg width="200" height="200" viewBox="0 0 200 200" version="1.1" xmlns="http://www.w3.org/2000/svg" xmlns:xlink="http://www.w3.org/1999/xlink">
 <path d="M0,0 l200,0 l0,200 l-200,0 Z M0,0" fill="rgb(255,255,255)" transform="matrix(1,0,0,-1,0,200)"/>
 <clipPath id="clip63">
  <path clip-rule="evenodd" d="M0,43.79 l200,0 l0,200 l-200,0 Z M0,43.79" transform="matrix(1,0,0,-1,0,150)"/>
 </clipPath>
 <g clip-path="url(#clip63)">
  <path d="M108.5,-2.5 c26.5,0,38.83,17.17,38.83,46.33 c0,29.0,-12.33,46.25,-38.58,46.25 c-17.17,0,-26.58,-7.75,-31.75,-19.17 l-1.0,0 l0.25,55.17 l-25.0,-1.08 l0,-4.17 c7.08,0,10.83,-5.92,10.83,-20.08 l0,-103.25 l7.5,0 l6.67,18.42 l0.75,0 c5.08,-10.92,14.33,-18.42,31.5,-18.42 Z M104.17,5.5 c-19.75,0,-28.5,16.83,-28.5,38.33 c0,21.42,8.75,38.25,28.5,38.25 c20.83,0,28.67,-12.42,28.67,-38.25 c0,-25.92,-7.83,-38.33,-28.67,-38.33 Z M104.17,5.5" fill="rgb(0,0,0)" transform="matrix(1,0,0,-1,0,150)"/>
 </g>
 <clipPath id="clip64">
  <path clip-rule="evenodd" d="M0,-50 l200,0 l0,93.79 l-200,0 Z M0,-50" transform="matrix(1,0,0,-1,0,150)"/>
 </clipPath>
 <g clip-path="url(#clip64)">
  <path d="M108.5,-2.5 c26.5,0,38.83,17.17,38.83,46.33 c0,29.0,-12.33,46.25,-38.58,46.25 c-17.17,0,-26.58,-7.75,-31.75,-19.17 l-1.0,0 l0.25,55.17 l-25.0,-1.08 l0,-4.17 c7.08,0,10.83,-5.92,10.83,-20.08 l0,-103.25 l7.5,0 l6.67,18.42 l0.75,0 c5.08,-10.92,14.33,-18.42,31.5,-18.42 Z M104.17,5.5 c-19.75,0,-28.5,16.83,-28.5,38.33 c0,21.42,8.75,38.25,28.5,38.25 c20.83,0,28.67,-12.42,28.67,-38.25 c0,-25.92,-7.83,-38.33,-28.67,-38.33 Z M104.17,5.5" fill="rgb(0,0,0)" transform="matrix(1,0,0,-1,0,150)"/>
 </g>
 <path d="M0,43.79 l200,0" fill="none" stroke="rgb(255,0,0)" stroke-width="1" transform="matrix(1,0,0,-1,0,150)"/>
</svg>