<?xml version="1.0" encoding="UTF-8"?>
<svg width="200" height="200" viewBox="0 0 200 200" version="1.1" xmlns="http://www.w3.org/2000/svg" xmlns:xlink="http://www.w3.org/1999/xlink">
 <path d="M0,0 l200,0 l0,200 l-200,0 Z M0,0" fill="rgb(255,255,255)" transform="matrix(1,0,0,-1,0,200)"/>
 <clipPath id="clip69">
  <path clip-rule="evenodd" d="M0,43.79 l200,0 l0,200 l-200,0 Z M0,43.79" transform="matrix(1,0,0,-1,0,150)"/>
 </clipPath>
 <g clip-path="url(#clip69)">
  <path d="M100.92,-2.5 c24.33,0,36.92,11.33,39.08,30.25 l-13.5,1.5 c-2.0,-13.0,-9.5,-19.67,-25.33,-19.67 c-19.17,0,-28.58,11.67,-28.58,34.17 c0,22.67,9.25,34.17,28.5,34.17 c15.58,0,23.33,-6.33,25.17,-19.67 l13.5,1.5 c-2.33,18.83,-14.0,30.33,-38.92,30.33 c-27.5,0,-42.67,-17.0,-42.67,-46.33 c0,-29.08,15.58,-46.25,42.75,-46.25 Z M100.92,-2.5" fill="rgb(0,0,0)" transform="matrix(1,0,0,-1,0,150)"/>
 </g>
 <clipPath id="clip70">
  <path clip-rule="evenodd" d="M0,-50 l200,0 l0,93.79 l-200,0 Z M0,-50" transform="matrix(1,0,0,-1,0,150)"/>
 </clipPath>
 <g clip-path="url(#clip70)">
  <path d="M100.92,-2.5 c21.25,0,32.75,7.58,38.42,19.25 l-5.92,14.42 l-3.0,0 c-2.58,-18.25,-11.75,-26.75,-29.25,-26.75 c-19.17,0,-28.58,13.42,-28.58,39.33 c0,26.08,9.25,39.33,28.5,39.33 c17.17,0,26.25,-8.0,28.67,-25.75 l3.0,0 l5.92,13.0 c-5.58,11.92,-16.58,19.75,-37.83,19.75 c-27.5,0,-42.67,-17.0,-42.67,-46.33 c0,-29.08,15.58,-46.25,42.75,-46.25 Z M100.92,-2.5" fill="rgb(0,0,0)" transform="matrix(1,0,0,-1,0,150)"/>
 </g>
 <path d="M0,43.79 l200,0" fill="none" stroke="rgb(255,0,0)" stroke-width="1" transform="matrix(1,0,0,-1,0,150)"/>
</svg>