<?xml version="1.0" encoding="UTF-8"?>
<svg width="200" height="200" viewBox="0 0 200 200" version="1.1" xmlns="http://www.w3.org/2000/svg" xmlns:xlink="http://www.w3.org/1999/xlink">
 <path d="M0,0 l200,0 l0,200 l-200,0 Z M0,0" fill="rgb(255,255,255)" transform="matrix(1,0,0,-1,0,200)"/>
 <clipPath id="clip73">
  <path clip-rule="evenodd" d="M0,43.79 l200,0 l0,200 l-200,0 Z M0,43.79" transform="matrix(1,0,0,-1,0,150)"/>
 </clipPath>
 <g clip-path="url(#clip73)">
  <path d="M100.92,-2.5 c22.25,0,34.17,8.83,38.58,22.92 l-8.42,10.17 l-2.0,0 c-2.33,-16.58,-10.92,-24.42,-27.92,-24.42 c-19.17,0,-28.58,12.83,-28.58,37.58 c0,24.92,9.25,37.58,28.5,37.58 c16.58,0,25.25,-7.42,27.5,-23.67 l2.0,0 l8.42,9.08 c-4.5,14.25,-15.75,23.33,-38.17,23.33 c-27.5,0,-42.67,-17.0,-42.67,-46.33 c0,-29.08,15.58,-46.25,42.75,-46.25 Z M100.92,-2.5" fill="rgb(0,0,0)" transform="matrix(1,0,0,-1,0,150)"/>
 </g>
 <clipPath id="clip74">
  <path clip-rule="evenodd" d="M0,-50 l200,0 l0,93.79 l-200,0 Z M0,-50" transform="matrix(1,0,0,-1,0,150)"/>
 </clipPath>
 <g clip-path="url(#clip74)">
  <path d="M100.92,-2.5 c24.33,0,36.92,11.33,39.08,30.25 l-13.5,1.5 c-2.0,-13.0,-9.5,-19.67,-25.33,-19.67 c-19.17,0,-28.58,11.67,-28.58,34.17 c0,22.67,9.25,34.17,28.5,34.17 c15.58,0,23.33,-6.33,25.17,-19.67 l13.5,1.5 c-2.33,18.83,-14.0,30.33,-38.92,30.33 c-27.5,0,-42.67,-17.0,-42.67,-46.33 c0,-29.08,15.58,-46.25,42.75,-46.25 Z M100.92,-2.5" fill="rgb(0,0,0)" transform="matrix(1,0,0,-1,0,150)"/>
 </g>
 <path d="M0,43.79 l200,0" fill="none" stroke="rgb(255,0,0)" stroke-width="1" transform="matrix(1,0,0,-1,0,150)"/>
</svg>