<?xml version="1.0" encoding="UTF-8"?>
<svg width="200" height="200" viewBox="0 0 200 200" version="1.1" xmlns="http://www.w3.org/2000/svg" xmlns:xlink="http://www.w3.org/1999/xlink">
 <path d="M0,0 l200,0 l0,200 l-200,0 Z M0,0" fill="rgb(255,255,255)" transform="matrix(1,0,0,-1,0,200)"/>
 <clipPath id="clip75">
  <path clip-rule="evenodd" d="M0,43.79 l200,0 l0,200 l-200,0 Z M0,43.79" transform="matrix(1,0,0,-1,0,150)"/>
 </clipPath>
 <g clip-path="url(#clip75)">
  <path d="M100.92,-2.5 c22.42,0,34.42,8.67,38.92,22.58 l-8.75,10.5 l-2.0,0 c-2.33,-16.08,-10.92,-23.75,-27.92,-23.75 c-19.17,0,-28.58,12.58,-28.58,36.92 c0,24.5,9.25,36.92,28.5,36.92 c16.58,0,25.25,-7.25,27.5,-23.0 l2.0,0 l8.75,9.42 c-4.58,14.08,-15.92,23.0,-38.5,23.0 c-27.5,0,-42.67,-17.0,-42.67,-46.33 c0,-29.08,15.58,-46.25,42.75,-46.25 Z M100.92,-2.5" fill="rgb(0,0,0)" transform="matrix(1,0,0,-1,0,150)"/>
 </g>
 <clipPath id="clip76">
  <path clip-rule="evenodd" d="M0,-50 l200,0 l0,93.79 l-200,0 Z M0,-50" transform="matrix(1,0,0,-1,0,150)"/>
 </clipPath>
 <g clip-path="url(#clip76)">
  <path d="M100.92,-2.5 c22.42,0,34.42,8.67,38.92,22.58 l-8.75,10.5 l-2.0,0 c-2.33,-16.08,-10.92,-23.75,-27.92,-23.75 c-19.17,0,-28.58,12.58,-28.58,36.92 c0,24.5,9.25,36.92,28.5,36.92 c16.58,0,25.25,-7.25,27.5,-23.0 l2.0,0 l8.75,9.42 c-4.58,14.08,-15.92,23.0,-38.5,23.0 c-27.5,0,-42.67,-17.0,-42.67,-46.33 c0,-29.08,15.58,-46.25,42.75,-46.25 Z M100.92,-2.5" fill="rgb(0,0,0)" transform="matrix(1,0,0,-1,0,150)"/>
 </g>
 <path d="M0,43.79 l200,0" fill="none" stroke="rgb(255,0,0)" stroke-width="1" transform="matrix(1,0,0,-1,0,150)"/>
</svg>