<?xml version="1.0" encoding="UTF-8"?>
<svg width="200" height="200" viewBox="0 0 200 200" version="1.1" xmlns="http://www.w3.org/2000/svg" xmlns:xlink="http://www.w3.org/1999/xlink">
 <path d="M0,0 l200,0 l0,200 l-200,0 Z M0,0" fill="rgb(255,255,255)" transform="matrix(1,0,0,-1,0,200)"/>
 <clipPath id="clip89">
  <path clip-rule="evenodd" d="M0,43.79 l200,0 l0,200 l-200,0 Z M0,43.79" transform="matrix(1,0,0,-1,0,150)"/>
 </clipPath>
 <g clip-path="url(#clip89)">
  <path d="M100.92,-2.5 c19.58,0,30.67,4.75,38.75,11.08 l-1.67,23.92 l-5.0,0 c-2.92,-20.67,-13.17,-29.83,-31.83,-29.83 c-19.17,0,-28.58,14.0,-28.58,41.08 c0,27.25,9.25,41.08,28.5,41.08 c18.17,0,28.17,-8.58,31.0,-28.08 l5.0,0 l1.67,21.42 c-7.92,6.83,-18.75,11.92,-37.92,11.92 c-27.5,0,-42.67,-17.0,-42.67,-46.33 c0,-29.08,15.58,-46.25,42.75,-46.25 Z M100.92,-2.5" fill="rgb(0,0,0)" transform="matrix(1,0,0,-1,0,150)"/>
 </g>
 <clipPath id="clip90">
  <path clip-rule="evenodd" d="M0,-50 l200,0 l0,93.79 l-200,0 Z M0,-50" transform="matrix(1,0,0,-1,0,150)"/>
 </clipPath>
 <g clip-path="url(#clip90)">
  <path d="M100.92,-2.5 c24.33,0,36.92,11.33,39.08,30.25 l-13.5,1.5 c-2.0,-13.0,-9.5,-19.67,-25.33,-19.67 c-19.17,0,-28.58,11.67,-28.58,34.17 c0,22.67,9.25,34.17,28.5,34.17 c15.58,0,23.33,-6.33,25.17,-19.67 l13.5,1.5 c-2.33,18.83,-14.0,30.33,-38.92,30.33 c-27.5,0,-42.67,-17.0,-42.67,-46.33 c0,-29.08,15.58,-46.25,42.75,-46.25 Z M100.92,-2.5" fill="rgb(0,0,0)" transform="matrix(1,0,0,-1,0,150)"/>
 </g>
 <path d="M0,43.79 l200,0" fill="none" stroke="rgb(255,0,0)" stroke-width="1" transform="matrix(1,0,0,-1,0,150)"/>
</svg>