<?xml version="1.0" encoding="UTF-8"?>
<svg width="200" height="200" viewBox="0 0 200 200" version="1.1" xmlns="http://www.w3.org/2000/svg" xmlns:xlink="http://www.w3.org/1999/xlink">
 <path d="M0,0 l200,0 l0,200 l-200,0 Z M0,0" fill="rgb(255,255,255)" transform="matrix(1,0,0,-1,0,200)"/>
 <clipPath id="clip91">
  <path clip-rule="evenodd" d="M0,43.79 l200,0 l0,200 l-200,0 Z M0,43.79" transform="matrix(1,0,0,-1,0,150)"/>
 </clipPath>
 <g clip-path="url(#clip91)">
  <path d="M100.92,-2.5 c20.5,0,31.75,6.67,38.25,16.5 l-4.0,17.67 l-3.75,0 c-2.75,-19.58,-12.25,-28.5,-30.25,-28.5 c-19.17,0,-28.58,13.83,-28.58,40.58 c0,26.92,9.25,40.58,28.5,40.58 c17.5,0,27.0,-8.33,29.58,-27.17 l3.75,0 l4.0,15.75 c-6.42,10.25,-17.25,17.17,-37.58,17.17 c-27.5,0,-42.67,-17.0,-42.67,-46.33 c0,-29.08,15.58,-46.25,42.75,-46.25 Z M100.92,-2.5" fill="rgb(0,0,0)" transform="matrix(1,0,0,-1,0,150)"/>
 </g>
 <clipPath id="clip92">
  <path clip-rule="evenodd" d="M0,-50 l200,0 l0,93.79 l-200,0 Z M0,-50" transform="matrix(1,0,0,-1,0,150)"/>
 </clipPath>
 <g clip-path="url(#clip92)">
  <path d="M100.92,-2.5 c23.08,0,35.17,9.75,38.83,25.67 l-10.33,6.92 l-1.25,0 c-2.25,-15.25,-10.42,-22.67,-27.0,-22.67 c-19.17,0,-28.58,12.42,-28.58,36.33 c0,24.08,9.25,36.33,28.5,36.33 c16.25,0,24.58,-7.0,26.67,-22.17 l1.25,0 l10.33,6.25 c-3.75,15.92,-15.08,25.92,-38.5,25.92 c-27.5,0,-42.67,-17.0,-42.67,-46.33 c0,-29.08,15.58,-46.25,42.75,-46.25 Z M100.92,-2.5" fill="rgb(0,0,0)" transform="matrix(1,0,0,-1,0,150)"/>
 </g>
 <path d="M0,43.79 l200,0" fill="none" stroke="rgb(255,0,0)" stroke-width="1" transform="matrix(1,0,0,-1,0,150)"/>
</svg>