<?xml version="1.0" encoding="UTF-8"?>
<svg width="200" height="200" viewBox="0 0 200 200" version="1.1" xmlns="http://www.w3.org/2000/svg" xmlns:xlink="http://www.w3.org/1999/xlink">
 <path d="M0,0 l200,0 l0,200 l-200,0 Z M0,0" fill="rgb(255,255,255)" transform="matrix(1,0,0,-1,0,200)"/>
 <clipPath id="clip93">
  <path clip-rule="evenodd" d="M0,43.79 l200,0 l0,200 l-200,0 Z M0,43.79" transform="matrix(1,0,0,-1,0,150)"/>
 </clipPath>
 <g clip-path="url(#clip93)">
  <path d="M100.92,-2.5 c19.17,0,30.0,5.08,37.92,11.92 l-0.83,23.08 l-5.0,0 c-2.92,-21.83,-13.17,-31.5,-31.83,-31.5 c-19.17,0,-28.58,14.58,-28.58,42.75 c0,28.33,9.25,42.75,28.5,42.75 c18.17,0,28.17,-9.08,31.0,-29.75 l5.0,0 l0.83,20.58 c-7.75,7.33,-18.33,12.75,-37.08,12.75 c-27.5,0,-42.67,-17.0,-42.67,-46.33 c0,-29.08,15.58,-46.25,42.75,-46.25 Z M100.92,-2.5" fill="rgb(0,0,0)" transform="matrix(1,0,0,-1,0,150)"/>
 </g>
 <clipPath id="clip94">
  <path clip-rule="evenodd" d="M0,-50 l200,0 l0,93.79 l-200,0 Z M0,-50" transform="matrix(1,0,0,-1,0,150)"/>
 </clipPath>
 <g clip-path="url(#clip94)">
  <path d="M100.92,-2.5 c21.25,0,32.75,7.58,38.42,19.25 l-5.92,14.42 l-3.0,0 c-2.58,-18.25,-11.75,-26.75,-29.25,-26.75 c-19.17,0,-28.58,13.42,-28.58,39.33 c0,26.08,9.25,39.33,28.5,39.33 c17.17,0,26.25,-8.0,28.67,-25.75 l3.0,0 l5.92,13.0 c-5.58,11.92,-16.58,19.75,-37.83,19.75 c-27.5,0,-42.67,-17.0,-42.67,-46.33 c0,-29.08,15.58,-46.25,42.75,-46.25 Z M100.92,-2.5" fill="rgb(0,0,0)" transform="matrix(1,0,0,-1,0,150)"/>
 </g>
 <path d="M0,43.79 l200,0" fill="none" stroke="rgb(255,0,0)" stroke-width="1" transform="matrix(1,0,0,-1,0,150)"/>
</svg>