<?xml version="1.0" encoding="UTF-8"?>
<svg width="200" height="200" viewBox="0 0 200 200" version="1.1" xmlns="http://www.w3.org/2000/svg" xmlns:xlink="http://www.w3.org/1999/xlink">
 <path d="M0,0 l200,0 l0,200 l-200,0 Z M0,0" fill="rgb(255,255,255)" transform="matrix(1,0,0,-1,0,200)"/>
 <clipPath id="clip107">
  <path clip-rule="evenodd" d="M0,43.79 l200,0 l0,200 l-200,0 Z M0,43.79" transform="matrix(1,0,0,-1,0,150)"/>
 </clipPath>
 <g clip-path="url(#clip107)">
  <path d="M91.58,-2.42 c17.17,0,26.42,7.25,31.5,17.92 l0.75,0 l4.08,-16.42 l10.08,0 l0,126.42 l-20.17,-0.42 l0,-1.67 c4.0,-4.92,6.08,-12.08,6.08,-22.58 l0.17,-29.42 l-1.0,0 c-5.17,11.0,-14.58,18.75,-31.75,18.75 c-26.25,0,-38.58,-17.25,-38.58,-46.25 c0,-29.17,12.33,-46.33,38.83,-46.33 Z M95.92,8.08 c-20.83,0,-28.67,11.58,-28.67,35.83 c0,24.08,7.83,35.75,28.67,35.75 c19.75,0,28.5,-15.75,28.5,-35.75 c0,-20.17,-8.75,-35.83,-28.5,-35.83 Z M95.92,8.08" fill="rgb(0,0,0)" transform="matrix(1,0,0,-1,0,150)"/>
 </g>
 <clipPath id="clip108">
  <path clip-rule="evenodd" d="M0,-50 l200,0 l0,93.79 l-200,0 Z M0,-50" transform="matrix(1,0,0,-1,0,150)"/>
 </clipPath>
 <g clip-path="url(#clip108)">
  <path d="M91.58,-2.42 c17.17,0,26.42,7.25,31.5,17.92 l0.75,0 l4.08,-16.42 l10.08,0 l0,126.42 l-20.17,-0.42 l0,-1.67 c4.0,-4.92,6.08,-12.08,6.08,-22.58 l0.17,-29.42 l-1.0,0 c-5.17,11.0,-14.58,18.75,-31.75,18.75 c-26.25,0,-38.58,-17.25,-38.58,-46.25 c0,-29.17,12.33,-46.33,38.83,-46.33 Z M95.92,8.08 c-20.83,0,-28.67,11.58,-28.67,35.83 c0,24.08,7.83,35.75,28.67,35.75 c19.75,0,28.5,-15.75,28.5,-35.75 c0,-20.17,-8.75,-35.83,-28.5,-35.83 Z M95.92,8.08" fill="rgb(0,0,0)" transform="matrix(1,0,0,-1,0,150)"/>
 </g>
 <path d="M0,43.79 l200,0" fill="none" stroke="rgb(255,0,0)" stroke-width="1" transform="matrix(1,0,0,-1,0,150)"/>
</svg>