<?xml version="1.0" encoding="UTF-8"?>
<svg width="200" height="200" viewBox="0 0 200 200" version="1.1" xmlns="http://www.w3.org/2000/svg" xmlns:xlink="http://www.w3.org/1999/xlink">
 <path d="M0,0 l200,0 l0,200 l-200,0 Z M0,0" fill="rgb(255,255,255)" transform="matrix(1,0,0,-1,0,200)"/>
 <clipPath id="clip115">
  <path clip-rule="evenodd" d="M0,43.79 l200,0 l0,200 l-200,0 Z M0,43.79" transform="matrix(1,0,0,-1,0,150)"/>
 </clipPath>
 <g clip-path="url(#clip115)">
  <path d="M91.58,-2.5 c17.17,0,26.5,8.42,31.58,20.58 l0.75,0 l7.33,-20.58 l6.75,0 l0.08,128.17 l-23.17,-0.67 l0,-2.5 c5.92,-3.17,9.0,-10.0,9.08,-21.75 l0.17,-32.0 l-1.08,0 c-5.17,12.58,-14.58,21.33,-31.75,21.33 c-26.25,0,-38.58,-17.25,-38.58,-46.25 c0,-29.17,12.33,-46.33,38.83,-46.33 Z M95.92,7.17 c-20.83,0,-28.67,11.92,-28.67,36.67 c0,24.75,7.83,36.58,28.67,36.58 c19.75,0,28.5,-16.08,28.5,-36.58 c0,-20.5,-8.75,-36.67,-28.5,-36.67 Z M95.92,7.17" fill="rgb(0,0,0)" transform="matrix(1,0,0,-1,0,150)"/>
 </g>
 <clipPath id="clip116">
  <path clip-rule="evenodd" d="M0,-50 l200,0 l0,93.79 l-200,0 Z M0,-50" transform="matrix(1,0,0,-1,0,150)"/>
 </clipPath>
 <g clip-path="url(#clip116)">
  <path d="M91.58,-2.42 c17.17,0,26.42,7.92,31.5,19.58 l0.75,0 l5.75,-18.75 l8.42,0 l0,127.08 l-20.17,-0.42 l0,-1.67 c4.0,-4.92,6.0,-12.08,6.08,-22.58 l0.17,-31.08 l-1.0,0 c-5.17,12.0,-14.58,20.42,-31.75,20.42 c-26.25,0,-38.58,-17.25,-38.58,-46.25 c0,-29.17,12.33,-46.33,38.83,-46.33 Z M95.92,8.08 c-20.83,0,-28.67,11.58,-28.67,35.83 c0,24.08,7.83,35.75,28.67,35.75 c19.75,0,28.5,-15.75,28.5,-35.75 c0,-20.17,-8.75,-35.83,-28.5,-35.83 Z M95.92,8.08" fill="rgb(0,0,0)" transform="matrix(1,0,0,-1,0,150)"/>
 </g>
 <path d="M0,43.79 l200,0" fill="none" stroke="rgb(255,0,0)" stroke-width="1" transform="matrix(1,0,0,-1,0,150)"/>
</svg>