<?xml version="1.0" encoding="UTF-8"?>
<svg width="200" height="200" viewBox="0 0 200 200" version="1.1" xmlns="http://www.w3.org/2000/svg" xmlns:xlink="http://www.w3.org/1999/xlink">
 <path d="M0,0 l200,0 l0,200 l-200,0 Z M0,0" fill="rgb(255,255,255)" transform="matrix(1,0,0,-1,0,200)"/>
 <clipPath id="clip117">
  <path clip-rule="evenodd" d="M0,43.79 l200,0 l0,200 l-200,0 Z M0,43.79" transform="matrix(1,0,0,-1,0,150)"/>
 </clipPath>
 <g clip-path="url(#clip117)">
  <path d="M91.58,-2.5 c17.17,0,26.5,7.42,31.58,18.08 l0.75,0 l4.83,-17.08 l9.25,0 l0.08,127.17 l-23.17,-0.67 l0,-2.5 c5.92,-3.17,9.0,-10.0,9.08,-21.75 l0.17,-29.5 l-1.08,0 c-5.17,11.08,-14.58,18.83,-31.75,18.83 c-26.25,0,-38.58,-17.25,-38.58,-46.25 c0,-29.17,12.33,-46.33,38.83,-46.33 Z M95.92,7.17 c-20.83,0,-28.67,11.92,-28.67,36.67 c0,24.75,7.83,36.58,28.67,36.58 c19.75,0,28.5,-16.08,28.5,-36.58 c0,-20.5,-8.75,-36.67,-28.5,-36.67 Z M95.92,7.17" fill="rgb(0,0,0)" transform="matrix(1,0,0,-1,0,150)"/>
 </g>
 <clipPath id="clip118">
  <path clip-rule="evenodd" d="M0,-50 l200,0 l0,93.79 l-200,0 Z M0,-50" transform="matrix(1,0,0,-1,0,150)"/>
 </clipPath>
 <g clip-path="url(#clip118)">
  <path d="M91.58,-2.5 c17.17,0,26.5,7.42,31.58,18.08 l0.75,0 l4.83,-17.08 l9.25,0 l0.08,127.17 l-23.17,-0.67 l0,-2.5 c5.92,-3.17,9.0,-10.0,9.08,-21.75 l0.17,-29.5 l-1.08,0 c-5.17,11.08,-14.58,18.83,-31.75,18.83 c-26.25,0,-38.58,-17.25,-38.58,-46.25 c0,-29.17,12.33,-46.33,38.83,-46.33 Z M95.92,7.17 c-20.83,0,-28.67,11.92,-28.67,36.67 c0,24.75,7.83,36.58,28.67,36.58 c19.75,0,28.5,-16.08,28.5,-36.58 c0,-20.5,-8.75,-36.67,-28.5,-36.67 Z M95.92,7.17" fill="rgb(0,0,0)" transform="matrix(1,0,0,-1,0,150)"/>
 </g>
 <path d="M0,43.79 l200,0" fill="none" stroke="rgb(255,0,0)" stroke-width="1" transform="matrix(1,0,0,-1,0,150)"/>
</svg>