<?xml version="1.0" encoding="UTF-8"?>
<svg width="200" height="200" viewBox="0 0 200 200" version="1.1" xmlns="http://www.w3.org/2000/svg" xmlns:xlink="http://www.w3.org/1999/xlink">
 <path d="M0,0 l200,0 l0,200 l-200,0 Z M0,0" fill="rgb(255,255,255)" transform="matrix(1,0,0,-1,0,200)"/>
 <clipPath id="clip125">
  <path clip-rule="evenodd" d="M0,43.79 l200,0 l0,200 l-200,0 Z M0,43.79" transform="matrix(1,0,0,-1,0,150)"/>
 </clipPath>
 <g clip-path="url(#clip125)">
  <path d="M91.67,-2.5 c17.17,0,26.42,8.67,31.5,21.33 l0.75,0 l8.67,-21.92 l5.5,0 l0,128.92 l-25.42,-0.83 l0,-3.08 c7.42,-2.0,11.25,-8.5,11.33,-21.17 l0.17,-32.75 l-1.0,0 c-5.17,13.08,-14.58,22.08,-31.75,22.08 c-26.25,0,-38.58,-17.25,-38.58,-46.25 c0,-29.17,12.33,-46.33,38.83,-46.33 Z M67.33,43.83 c0,25.17,7.83,37.25,28.67,37.25 c19.75,0,28.5,-16.42,28.5,-37.25 c0,-20.92,-8.75,-37.25,-28.5,-37.25 c-20.83,0,-28.67,12.08,-28.67,37.25 Z M67.33,43.83" fill="rgb(0,0,0)" transform="matrix(1,0,0,-1,0,150)"/>
 </g>
 <clipPath id="clip126">
  <path clip-rule="evenodd" d="M0,-50 l200,0 l0,93.79 l-200,0 Z M0,-50" transform="matrix(1,0,0,-1,0,150)"/>
 </clipPath>
 <g clip-path="url(#clip126)">
  <path d="M91.58,-2.42 c17.17,0,26.5,8.17,31.58,20.08 l0.75,0 l6.5,-19.67 l7.58,0 l0.08,127.58 l-21.67,-0.5 l0,-2.08 c4.92,-4.08,7.5,-11.08,7.58,-22.17 l0.17,-31.58 l-1.08,0 c-5.17,12.33,-14.58,20.92,-31.75,20.92 c-26.25,0,-38.58,-17.25,-38.58,-46.25 c0,-29.17,12.33,-46.33,38.83,-46.33 Z M67.25,43.92 c0,24.42,7.83,36.17,28.67,36.17 c19.75,0,28.5,-15.92,28.5,-36.17 c0,-20.33,-8.75,-36.25,-28.5,-36.25 c-20.83,0,-28.67,11.75,-28.67,36.25 Z M67.25,43.92" fill="rgb(0,0,0)" transform="matrix(1,0,0,-1,0,150)"/>
 </g>
 <path d="M0,43.79 l200,0" fill="none" stroke="rgb(255,0,0)" stroke-width="1" transform="matrix(1,0,0,-1,0,150)"/>
</svg>