<?xml version="1.0" encoding="UTF-8"?>
<svg width="200" height="200" viewBox="0 0 200 200" version="1.1" xmlns="http://www.w3.org/2000/svg" xmlns:xlink="http://www.w3.org/1999/xlink">
 <path d="M0,0 l200,0 l0,200 l-200,0 Z M0,0" fill="rgb(255,255,255)" transform="matrix(1,0,0,-1,0,200)"/>
 <clipPath id="clip301">
  <path clip-rule="evenodd" d="M0,43.79 l200,0 l0,200 l-200,0 Z M0,43.79" transform="matrix(1,0,0,-1,0,150)"/>
 </clipPath>
 <g clip-path="url(#clip301)">
  <path d="M141.75,46.25 c0,28.42,-15.17,43.92,-41.42,43.92 c-26.08,0,-42.08,-17.17,-42.08,-46.92 c0,-30.08,15.67,-45.75,43.0,-45.75 c23.58,0,35.42,10.58,38.67,28.5 l-5.5,0.83 c-4.25,-15.58,-13.92,-22.25,-32.92,-22.25 c-17.58,0,-28.17,11.58,-29.08,35.83 l69.33,0 Z M72.58,47.17 c1.5,25.25,11.0,36.75,27.83,36.75 c17.5,0,26.92,-11.92,27.67,-36.75 Z M72.58,47.17" fill="rgb(0,0,0)" transform="matrix(1,0,0,-1,0,150)"/>
 </g>
 <clipPath id="clip302">
  <path clip-rule="evenodd" d="M0,-50 l200,0 l0,93.79 l-200,0 Z M0,-50" transform="matrix(1,0,0,-1,0,150)"/>
 </clipPath>
 <g clip-path="url(#clip302)">
  <path d="M141.75,46.25 c0,28.42,-15.17,43.92,-41.42,43.92 c-26.08,0,-42.08,-17.17,-42.08,-46.92 c0,-30.08,15.67,-45.75,43.0,-45.75 c24.17,0,35.42,9.75,39.25,26.25 l-13.58,1.42 c-3.25,-11.5,-10.75,-16.42,-25.42,-16.42 c-17.58,0,-28.17,10.0,-29.08,30.83 l69.33,0 Z M72.58,49.67 c1.5,20.08,11.0,29.25,27.83,29.25 c17.5,0,26.92,-9.5,27.67,-29.25 Z M72.58,49.67" fill="rgb(0,0,0)" transform="matrix(1,0,0,-1,0,150)"/>
 </g>
 <path d="M0,43.79 l200,0" fill="none" stroke="rgb(255,0,0)" stroke-width="1" transform="matrix(1,0,0,-1,0,150)"/>
</svg>