<?xml version="1.0" encoding="UTF-8"?>
<svg width="200" height="200" viewBox="0 0 200 200" version="1.1" xmlns="http://www.w3.org/2000/svg" xmlns:xlink="http://www.w3.org/1999/xlink">
 <path d="M0,0 l200,0 l0,200 l-200,0 Z M0,0" fill="rgb(255,255,255)" transform="matrix(1,0,0,-1,0,200)"/>
 <clipPath id="clip257">
  <path clip-rule="evenodd" d="M0,43.79 l200,0 l0,200 l-200,0 Z M0,43.79" transform="matrix(1,0,0,-1,0,150)"/>
 </clipPath>
 <g clip-path="url(#clip257)">
  <path d="M141.75,46.25 c0,28.42,-15.17,43.92,-41.42,43.92 c-26.08,0,-42.08,-17.17,-42.08,-46.92 c0,-30.08,15.67,-45.75,43.0,-45.75 c23.92,0,35.42,10.08,39.0,27.17 l-10.33,1.17 c-3.67,-13.17,-12.0,-18.75,-28.42,-18.75 c-17.58,0,-28.17,10.67,-29.08,32.83 l69.33,0 Z M72.58,48.67 c1.5,22.17,11.0,32.25,27.83,32.25 c17.5,0,26.92,-10.5,27.67,-32.25 Z M72.58,48.67" fill="rgb(0,0,0)" transform="matrix(1,0,0,-1,0,150)"/>
 </g>
 <clipPath id="clip258">
  <path clip-rule="evenodd" d="M0,-50 l200,0 l0,93.79 l-200,0 Z M0,-50" transform="matrix(1,0,0,-1,0,150)"/>
 </clipPath>
 <g clip-path="url(#clip258)">
  <path d="M141.75,46.25 c0,28.42,-15.17,43.92,-41.42,43.92 c-26.08,0,-42.08,-17.17,-42.08,-46.92 c0,-30.08,15.67,-45.75,43.0,-45.75 c23.83,0,35.42,10.25,38.92,27.58 l-8.75,1.08 c-3.83,-13.92,-12.67,-19.92,-29.92,-19.92 c-17.58,0,-28.17,10.92,-29.08,33.83 l69.33,0 Z M72.58,48.17 c1.5,23.17,11.0,33.75,27.83,33.75 c17.5,0,26.92,-10.92,27.67,-33.75 Z M72.58,48.17" fill="rgb(0,0,0)" transform="matrix(1,0,0,-1,0,150)"/>
 </g>
 <path d="M0,43.79 l200,0" fill="none" stroke="rgb(255,0,0)" stroke-width="1" transform="matrix(1,0,0,-1,0,150)"/>
</svg>