<?xml version="1.0" encoding="UTF-8"?>
<svg width="200" height="200" viewBox="0 0 200 200" version="1.1" xmlns="http://www.w3.org/2000/svg" xmlns:xlink="http://www.w3.org/1999/xlink">
 <path d="M0,0 l200,0 l0,200 l-200,0 Z M0,0" fill="rgb(255,255,255)" transform="matrix(1,0,0,-1,0,200)"/>
 <clipPath id="clip143">
  <path clip-rule="evenodd" d="M0,43.79 l200,0 l0,200 l-200,0 Z M0,43.79" transform="matrix(1,0,0,-1,0,150)"/>
 </clipPath>
 <g clip-path="url(#clip143)">
  <path d="M141.75,46.25 c0,28.42,-15.17,43.92,-41.42,43.92 c-26.08,0,-42.08,-17.17,-42.08,-46.92 c0,-30.08,15.67,-45.75,43.0,-45.75 c23.92,0,35.08,10.17,38.75,27.33 l-9.33,1.0 c-3.83,-13.17,-12.33,-18.75,-29.17,-18.75 c-17.58,0,-28.17,10.83,-29.08,33.5 l69.33,0 Z M72.58,48.0 c1.5,23.33,11.0,34.0,27.83,34.0 c17.5,0,26.92,-11.0,27.67,-34.0 Z M72.58,48.0" fill="rgb(0,0,0)" transform="matrix(1,0,0,-1,0,150)"/>
 </g>
 <clipPath id="clip144">
  <path clip-rule="evenodd" d="M0,-50 l200,0 l0,93.79 l-200,0 Z M0,-50" transform="matrix(1,0,0,-1,0,150)"/>
 </clipPath>
 <g clip-path="url(#clip144)">
  <path d="M141.75,46.25 c0,28.42,-15.17,43.92,-41.42,43.92 c-26.08,0,-42.08,-17.17,-42.08,-46.92 c0,-30.08,15.67,-45.75,43.0,-45.75 c23.58,0,34.67,10.75,38.08,28.92 l-3.0,0.42 c-4.75,-15.58,-14.83,-22.25,-34.83,-22.25 c-17.58,0,-28.17,12.08,-29.08,37.42 l69.33,0 Z M72.58,45.58 c1.5,28.17,11.0,41.0,27.83,41.0 c17.5,0,26.92,-13.25,27.67,-41.0 Z M72.58,45.58" fill="rgb(0,0,0)" transform="matrix(1,0,0,-1,0,150)"/>
 </g>
 <path d="M0,43.79 l200,0" fill="none" stroke="rgb(255,0,0)" stroke-width="1" transform="matrix(1,0,0,-1,0,150)"/>
</svg>