<?xml version="1.0" encoding="UTF-8"?>
<svg width="200" height="200" viewBox="0 0 200 200" version="1.1" xmlns="http://www.w3.org/2000/svg" xmlns:xlink="http://www.w3.org/1999/xlink">
 <path d="M0,0 l200,0 l0,200 l-200,0 Z M0,0" fill="rgb(255,255,255)" transform="matrix(1,0,0,-1,0,200)"/>
 <clipPath id="clip159">
  <path clip-rule="evenodd" d="M0,43.79 l200,0 l0,200 l-200,0 Z M0,43.79" transform="matrix(1,0,0,-1,0,150)"/>
 </clipPath>
 <g clip-path="url(#clip159)">
  <path d="M58.25,43.25 c0,-30.08,15.67,-45.75,43.0,-45.75 c23.75,0,34.83,10.5,38.42,28.25 l-5.67,0.67 c-4.42,-14.58,-13.83,-20.75,-32.5,-20.75 c-17.58,0,-28.17,11.5,-29.08,35.75 l69.33,0 l0,4.83 c0,28.42,-15.17,43.92,-41.42,43.92 c-26.08,0,-42.08,-17.17,-42.08,-46.92 Z M72.58,46.58 c1.5,26.17,11.0,38.08,27.83,38.08 c17.5,0,26.92,-12.33,27.67,-38.08 Z M72.58,46.58" fill="rgb(0,0,0)" transform="matrix(1,0,0,-1,0,150)"/>
 </g>
 <clipPath id="clip160">
  <path clip-rule="evenodd" d="M0,-50 l200,0 l0,93.79 l-200,0 Z M0,-50" transform="matrix(1,0,0,-1,0,150)"/>
 </clipPath>
 <g clip-path="url(#clip160)">
  <path d="M58.25,43.25 c0,-30.08,15.67,-45.75,43.0,-45.75 c23.75,0,34.83,10.5,38.42,28.25 l-5.67,0.67 c-4.42,-14.58,-13.83,-20.75,-32.5,-20.75 c-17.58,0,-28.17,11.5,-29.08,35.75 l69.33,0 l0,4.83 c0,28.42,-15.17,43.92,-41.42,43.92 c-26.08,0,-42.08,-17.17,-42.08,-46.92 Z M72.58,46.58 c1.5,26.17,11.0,38.08,27.83,38.08 c17.5,0,26.92,-12.33,27.67,-38.08 Z M72.58,46.58" fill="rgb(0,0,0)" transform="matrix(1,0,0,-1,0,150)"/>
 </g>
 <path d="M0,43.79 l200,0" fill="none" stroke="rgb(255,0,0)" stroke-width="1" transform="matrix(1,0,0,-1,0,150)"/>
</svg>