<?xml version="1.0" encoding="UTF-8"?>
<svg width="200" height="200" viewBox="0 0 200 200" version="1.1" xmlns="http://www.w3.org/2000/svg" xmlns:xlink="http://www.w3.org/1999/xlink">
 <path d="M0,0 l200,0 l0,200 l-200,0 Z M0,0" fill="rgb(255,255,255)" transform="matrix(1,0,0,-1,0,200)"/>
 <clipPath id="clip165">
  <path clip-rule="evenodd" d="M0,43.79 l200,0 l0,200 l-200,0 Z M0,43.79" transform="matrix(1,0,0,-1,0,150)"/>
 </clipPath>
 <g clip-path="url(#clip165)">
  <path d="M144.08,87.58 l-45.33,0 l0,6.0 c0,15.75,5.83,22.0,23.0,22.0 c8.25,0,17.83,-1.58,25.08,-3.83 l3.08,11.0 c-8.33,3.0,-19.67,4.75,-28.17,4.75 c-25.75,0,-37.17,-9.75,-37.17,-32.83 l0,-7.08 l-26.83,0 l0,-11.58 l26.83,0 l0,-49.33 l0,-26.67 l14.17,0 l0,26.67 l0,49.33 l45.33,0 Z M144.08,87.58" fill="rgb(0,0,0)" transform="matrix(1,0,0,-1,0,150)"/>
 </g>
 <clipPath id="clip166">
  <path clip-rule="evenodd" d="M0,-50 l200,0 l0,93.79 l-200,0 Z M0,-50" transform="matrix(1,0,0,-1,0,150)"/>
 </clipPath>
 <g clip-path="url(#clip166)">
  <path d="M142.0,87.58 l-43.25,0 l0,7.25 c0,17.92,5.83,24.92,21.92,24.92 c8.5,0,15.42,-4.17,20.42,-13.0 l2.5,0 l2.42,16.5 c-6.83,2.75,-15.17,4.25,-24.42,4.25 c-25.83,0,-37.0,-11.5,-37.0,-32.83 l0,-7.08 l-24.75,0 l0,-7.58 l24.75,0 l0,-53.33 c0,-11.5,-1.83,-20.08,-5.42,-24.58 l0,-2.08 l25.0,0 l0,2.08 c-3.5,4.5,-5.42,13.08,-5.42,24.58 l0,53.33 l43.25,0 Z M142.0,87.58" fill="rgb(0,0,0)" transform="matrix(1,0,0,-1,0,150)"/>
 </g>
 <path d="M0,43.79 l200,0" fill="none" stroke="rgb(255,0,0)" stroke-width="1" transform="matrix(1,0,0,-1,0,150)"/>
</svg>