<?xml version="1.0" encoding="UTF-8"?>
<svg width="200" height="200" viewBox="0 0 200 200" version="1.1" xmlns="http://www.w3.org/2000/svg" xmlns:xlink="http://www.w3.org/1999/xlink">
 <path d="M0,0 l200,0 l0,200 l-200,0 Z M0,0" fill="rgb(255,255,255)" transform="matrix(1,0,0,-1,0,200)"/>
 <clipPath id="clip175">
  <path clip-rule="evenodd" d="M0,43.79 l200,0 l0,200 l-200,0 Z M0,43.79" transform="matrix(1,0,0,-1,0,150)"/>
 </clipPath>
 <g clip-path="url(#clip175)">
  <path d="M98.75,87.58 l0,7.0 c0,17.42,5.83,24.33,22.08,24.33 c8.5,0,15.92,-3.67,21.42,-11.17 l2.0,0 l2.5,15.42 c-7.08,2.75,-16.0,4.33,-25.17,4.33 c-25.75,0,-37.0,-11.17,-37.0,-32.83 l0,-7.08 l-25.17,0 l0,-8.42 l25.17,0 l0,-52.5 c0,-11.0,-1.5,-19.67,-4.33,-25.0 l0,-1.67 l22.83,0 l0,1.67 c-2.83,5.33,-4.33,14.0,-4.33,25.0 l0,52.5 l43.67,0 l0,8.42 Z M98.75,87.58" fill="rgb(0,0,0)" transform="matrix(1,0,0,-1,0,150)"/>
 </g>
 <clipPath id="clip176">
  <path clip-rule="evenodd" d="M0,-50 l200,0 l0,93.79 l-200,0 Z M0,-50" transform="matrix(1,0,0,-1,0,150)"/>
 </clipPath>
 <g clip-path="url(#clip176)">
  <path d="M98.75,87.58 l0,8.5 c0,20.0,5.83,27.83,20.75,27.83 c8.83,0,13.0,-6.75,15.83,-22.25 l5.0,0 l1.67,22.08 c-5.25,2.5,-10.58,3.75,-20.58,3.75 c-25.92,0,-36.83,-13.33,-36.83,-32.83 l0,-7.08 l-22.67,0 l0,-3.58 l22.67,0 l0,-57.33 c0,-14.17,-3.75,-22.5,-10.83,-22.5 l0,-4.17 l35.83,0 l0,4.17 c-7.08,0,-10.83,8.33,-10.83,22.5 l0,57.33 l41.17,0 l0,3.58 Z M98.75,87.58" fill="rgb(0,0,0)" transform="matrix(1,0,0,-1,0,150)"/>
 </g>
 <path d="M0,43.79 l200,0" fill="none" stroke="rgb(255,0,0)" stroke-width="1" transform="matrix(1,0,0,-1,0,150)"/>
</svg>