<?xml version="1.0" encoding="UTF-8"?>
<svg width="200" height="200" viewBox="0 0 200 200" version="1.1" xmlns="http://www.w3.org/2000/svg" xmlns:xlink="http://www.w3.org/1999/xlink">
 <path d="M0,0 l200,0 l0,200 l-200,0 Z M0,0" fill="rgb(255,255,255)" transform="matrix(1,0,0,-1,0,200)"/>
 <clipPath id="clip177">
  <path clip-rule="evenodd" d="M0,43.79 l200,0 l0,200 l-200,0 Z M0,43.79" transform="matrix(1,0,0,-1,0,150)"/>
 </clipPath>
 <g clip-path="url(#clip177)">
  <path d="M98.75,87.58 l0,7.5 c0,18.33,5.83,25.5,21.67,25.5 c8.58,0,14.92,-4.67,19.5,-14.92 l3.0,0 l2.25,17.67 c-6.5,2.75,-14.25,4.17,-23.58,4.17 c-25.92,0,-37.0,-11.92,-37.0,-32.83 l0,-7.08 l-24.33,0 l0,-6.75 l24.33,0 l0,-54.17 c0,-12.08,-2.25,-20.58,-6.5,-24.17 l0,-2.5 l27.17,0 l0,2.5 c-4.25,3.58,-6.5,12.08,-6.5,24.17 l0,54.17 l42.83,0 l0,6.75 Z M98.75,87.58" fill="rgb(0,0,0)" transform="matrix(1,0,0,-1,0,150)"/>
 </g>
 <clipPath id="clip178">
  <path clip-rule="evenodd" d="M0,-50 l200,0 l0,93.79 l-200,0 Z M0,-50" transform="matrix(1,0,0,-1,0,150)"/>
 </clipPath>
 <g clip-path="url(#clip178)">
  <path d="M98.75,87.58 l0,6.0 c0,15.75,5.83,22.0,23.0,22.0 c8.25,0,17.83,-1.58,25.08,-3.83 l3.08,11.0 c-8.33,3.0,-19.67,4.75,-28.17,4.75 c-25.75,0,-37.17,-9.75,-37.17,-32.83 l0,-7.08 l-26.83,0 l0,-11.58 l26.83,0 l0,-49.33 l0,-26.67 l14.17,0 l0,26.67 l0,49.33 l45.33,0 l0,11.58 Z M98.75,87.58" fill="rgb(0,0,0)" transform="matrix(1,0,0,-1,0,150)"/>
 </g>
 <path d="M0,43.79 l200,0" fill="none" stroke="rgb(255,0,0)" stroke-width="1" transform="matrix(1,0,0,-1,0,150)"/>
</svg>