<?xml version="1.0" encoding="UTF-8"?>
<svg width="200" height="200" viewBox="0 0 200 200" version="1.1" xmlns="http://www.w3.org/2000/svg" xmlns:xlink="http://www.w3.org/1999/xlink">
 <path d="M0,0 l200,0 l0,200 l-200,0 Z M0,0" fill="rgb(255,255,255)" transform="matrix(1,0,0,-1,0,200)"/>
 <clipPath id="clip179">
  <path clip-rule="evenodd" d="M0,43.79 l200,0 l0,200 l-200,0 Z M0,43.79" transform="matrix(1,0,0,-1,0,150)"/>
 </clipPath>
 <g clip-path="url(#clip179)">
  <path d="M98.75,87.58 l0,7.5 c0,17.17,5.83,23.92,21.67,23.92 c8.58,0,14.92,-4.17,19.5,-13.33 l3.0,0 l2.75,18.17 c-6.33,2.33,-14.0,3.67,-22.08,3.67 c-27.58,0,-39.0,-11.92,-39.0,-32.83 l0,-7.08 l-24.33,0 l0,-8.58 l24.33,0 l0,-52.33 c0,-12.08,-2.25,-20.58,-6.5,-24.17 l0,-2.5 l27.17,0 l0,2.5 c-4.25,3.58,-6.5,12.08,-6.5,24.17 l0,52.33 l43.33,0 l0,8.58 Z M98.75,87.58" fill="rgb(0,0,0)" transform="matrix(1,0,0,-1,0,150)"/>
 </g>
 <clipPath id="clip180">
  <path clip-rule="evenodd" d="M0,-50 l200,0 l0,93.79 l-200,0 Z M0,-50" transform="matrix(1,0,0,-1,0,150)"/>
 </clipPath>
 <g clip-path="url(#clip180)">
  <path d="M98.75,87.58 l0,7.0 c0,16.67,5.83,23.25,22.08,23.25 c8.5,0,15.92,-3.33,21.42,-10.08 l2.0,0 l2.83,15.75 c-7.0,2.58,-15.83,4.0,-24.17,4.0 c-26.92,0,-38.33,-11.17,-38.33,-32.83 l0,-7.08 l-25.17,0 l0,-9.58 l25.17,0 l0,-51.33 c0,-11.0,-1.5,-19.67,-4.33,-25.0 l0,-1.67 l22.83,0 l0,1.67 c-2.83,5.33,-4.33,14.0,-4.33,25.0 l0,51.33 l44.0,0 l0,9.58 Z M98.75,87.58" fill="rgb(0,0,0)" transform="matrix(1,0,0,-1,0,150)"/>
 </g>
 <path d="M0,43.79 l200,0" fill="none" stroke="rgb(255,0,0)" stroke-width="1" transform="matrix(1,0,0,-1,0,150)"/>
</svg>