<?xml version="1.0" encoding="UTF-8"?>
<svg width="200" height="200" viewBox="0 0 200 200" version="1.1" xmlns="http://www.w3.org/2000/svg" xmlns:xlink="http://www.w3.org/1999/xlink">
 <path d="M0,0 l200,0 l0,200 l-200,0 Z M0,0" fill="rgb(255,255,255)" transform="matrix(1,0,0,-1,0,200)"/>
 <clipPath id="clip181">
  <path clip-rule="evenodd" d="M0,43.79 l200,0 l0,200 l-200,0 Z M0,43.79" transform="matrix(1,0,0,-1,0,150)"/>
 </clipPath>
 <g clip-path="url(#clip181)">
  <path d="M98.75,87.58 l0,7.5 c0,17.17,5.83,23.92,21.67,23.92 c8.58,0,14.92,-4.17,19.5,-13.33 l3.0,0 l2.75,18.17 c-6.33,2.33,-14.0,3.67,-22.08,3.67 c-27.58,0,-39.0,-11.92,-39.0,-32.83 l0,-7.08 l-24.33,0 l0,-8.58 l24.33,0 l0,-52.33 c0,-12.08,-2.25,-20.58,-6.5,-24.17 l0,-2.5 l27.17,0 l0,2.5 c-4.25,3.58,-6.5,12.08,-6.5,24.17 l0,52.33 l43.33,0 l0,8.58 Z M98.75,87.58" fill="rgb(0,0,0)" transform="matrix(1,0,0,-1,0,150)"/>
 </g>
 <clipPath id="clip182">
  <path clip-rule="evenodd" d="M0,-50 l200,0 l0,93.79 l-200,0 Z M0,-50" transform="matrix(1,0,0,-1,0,150)"/>
 </clipPath>
 <g clip-path="url(#clip182)">
  <path d="M98.75,87.58 l0,7.5 c0,17.17,5.83,23.92,21.67,23.92 c8.58,0,14.92,-4.17,19.5,-13.33 l3.0,0 l2.75,18.17 c-6.33,2.33,-14.0,3.67,-22.08,3.67 c-27.58,0,-39.0,-11.92,-39.0,-32.83 l0,-7.08 l-24.33,0 l0,-8.58 l24.33,0 l0,-52.33 c0,-12.08,-2.25,-20.58,-6.5,-24.17 l0,-2.5 l27.17,0 l0,2.5 c-4.25,3.58,-6.5,12.08,-6.5,24.17 l0,52.33 l43.33,0 l0,8.58 Z M98.75,87.58" fill="rgb(0,0,0)" transform="matrix(1,0,0,-1,0,150)"/>
 </g>
 <path d="M0,43.79 l200,0" fill="none" stroke="rgb(255,0,0)" stroke-width="1" transform="matrix(1,0,0,-1,0,150)"/>
</svg>