<?xml version="1.0" encoding="UTF-8"?>
<svg width="200" height="200" viewBox="0 0 200 200" version="1.1" xmlns="http://www.w3.org/2000/svg" xmlns:xlink="http://www.w3.org/1999/xlink">
 <path d="M0,0 l200,0 l0,200 l-200,0 Z M0,0" fill="rgb(255,255,255)" transform="matrix(1,0,0,-1,0,200)"/>
 <clipPath id="clip187">
  <path clip-rule="evenodd" d="M0,43.79 l200,0 l0,200 l-200,0 Z M0,43.79" transform="matrix(1,0,0,-1,0,150)"/>
 </clipPath>
 <g clip-path="url(#clip187)">
  <path d="M98.75,87.58 l0,8.5 c0,18.08,5.83,25.17,20.75,25.17 c8.83,0,13.0,-5.92,15.83,-19.58 l5.0,0 l2.5,22.92 c-5.0,1.92,-10.17,2.92,-18.08,2.92 c-28.75,0,-40.17,-13.33,-40.17,-32.83 l0,-7.08 l-22.67,0 l0,-6.58 l22.67,0 l0,-54.33 c0,-14.17,-3.75,-22.5,-10.83,-22.5 l0,-4.17 l35.83,0 l0,4.17 c-7.08,0,-10.83,8.33,-10.83,22.5 l0,54.33 l42.0,0 l0,6.58 Z M98.75,87.58" fill="rgb(0,0,0)" transform="matrix(1,0,0,-1,0,150)"/>
 </g>
 <clipPath id="clip188">
  <path clip-rule="evenodd" d="M0,-50 l200,0 l0,93.79 l-200,0 Z M0,-50" transform="matrix(1,0,0,-1,0,150)"/>
 </clipPath>
 <g clip-path="url(#clip188)">
  <path d="M98.75,87.58 l0,7.0 c0,16.67,5.83,23.25,22.08,23.25 c8.5,0,15.92,-3.33,21.42,-10.08 l2.0,0 l2.83,15.75 c-7.0,2.58,-15.83,4.0,-24.17,4.0 c-26.92,0,-38.33,-11.17,-38.33,-32.83 l0,-7.08 l-25.17,0 l0,-9.58 l25.17,0 l0,-51.33 c0,-11.0,-1.5,-19.67,-4.33,-25.0 l0,-1.67 l22.83,0 l0,1.67 c-2.83,5.33,-4.33,14.0,-4.33,25.0 l0,51.33 l44.0,0 l0,9.58 Z M98.75,87.58" fill="rgb(0,0,0)" transform="matrix(1,0,0,-1,0,150)"/>
 </g>
 <path d="M0,43.79 l200,0" fill="none" stroke="rgb(255,0,0)" stroke-width="1" transform="matrix(1,0,0,-1,0,150)"/>
</svg>