<?xml version="1.0" encoding="UTF-8"?>
<svg width="200" height="200" viewBox="0 0 200 200" version="1.1" xmlns="http://www.w3.org/2000/svg" xmlns:xlink="http://www.w3.org/1999/xlink">
 <path d="M0,0 l200,0 l0,200 l-200,0 Z M0,0" fill="rgb(255,255,255)" transform="matrix(1,0,0,-1,0,200)"/>
 <clipPath id="clip189">
  <path clip-rule="evenodd" d="M0,43.79 l200,0 l0,200 l-200,0 Z M0,43.79" transform="matrix(1,0,0,-1,0,150)"/>
 </clipPath>
 <g clip-path="url(#clip189)">
  <path d="M98.75,87.58 l0,8.5 c0,20.0,5.83,27.83,20.75,27.83 c8.83,0,13.0,-6.75,15.83,-22.25 l5.0,0 l1.67,22.08 c-5.25,2.5,-10.58,3.75,-20.58,3.75 c-25.92,0,-36.83,-13.33,-36.83,-32.83 l0,-7.08 l-22.67,0 l0,-3.58 l22.67,0 l0,-57.33 c0,-14.17,-3.75,-22.5,-10.83,-22.5 l0,-4.17 l35.83,0 l0,4.17 c-7.08,0,-10.83,8.33,-10.83,22.5 l0,57.33 l41.17,0 l0,3.58 Z M98.75,87.58" fill="rgb(0,0,0)" transform="matrix(1,0,0,-1,0,150)"/>
 </g>
 <clipPath id="clip190">
  <path clip-rule="evenodd" d="M0,-50 l200,0 l0,93.79 l-200,0 Z M0,-50" transform="matrix(1,0,0,-1,0,150)"/>
 </clipPath>
 <g clip-path="url(#clip190)">
  <path d="M98.75,87.58 l0,7.5 c0,18.33,5.83,25.5,21.67,25.5 c8.58,0,14.92,-4.67,19.5,-14.92 l3.0,0 l2.25,17.67 c-6.5,2.75,-14.25,4.17,-23.58,4.17 c-25.92,0,-37.0,-11.92,-37.0,-32.83 l0,-7.08 l-24.33,0 l0,-6.75 l24.33,0 l0,-54.17 c0,-12.08,-2.25,-20.58,-6.5,-24.17 l0,-2.5 l27.17,0 l0,2.5 c-4.25,3.58,-6.5,12.08,-6.5,24.17 l0,54.17 l42.83,0 l0,6.75 Z M98.75,87.58" fill="rgb(0,0,0)" transform="matrix(1,0,0,-1,0,150)"/>
 </g>
 <path d="M0,43.79 l200,0" fill="none" stroke="rgb(255,0,0)" stroke-width="1" transform="matrix(1,0,0,-1,0,150)"/>
</svg>