<?xml version="1.0" encoding="UTF-8"?>
<svg width="200" height="200" viewBox="0 0 200 200" version="1.1" xmlns="http://www.w3.org/2000/svg" xmlns:xlink="http://www.w3.org/1999/xlink">
 <path d="M0,0 l200,0 l0,200 l-200,0 Z M0,0" fill="rgb(255,255,255)" transform="matrix(1,0,0,-1,0,200)"/>
 <clipPath id="clip191">
  <path clip-rule="evenodd" d="M0,43.79 l200,0 l0,200 l-200,0 Z M0,43.79" transform="matrix(1,0,0,-1,0,150)"/>
 </clipPath>
 <g clip-path="url(#clip191)">
  <path d="M141.0,87.58 l-42.25,0 l0,7.92 c0,18.92,5.83,26.33,21.33,26.33 c8.67,0,14.17,-5.42,18.17,-17.67 l3.75,0 l2.0,19.33 c-6.0,2.67,-12.83,4.0,-22.5,4.0 c-25.83,0,-36.92,-12.42,-36.92,-32.83 l0,-7.08 l-23.67,0 l0,-5.58 l23.67,0 l0,-55.33 c0,-12.83,-2.83,-21.33,-8.08,-23.5 l0,-3.17 l30.42,0 l0,3.17 c-5.33,2.17,-8.17,10.67,-8.17,23.5 l0,55.33 l42.25,0 Z M141.0,87.58" fill="rgb(0,0,0)" transform="matrix(1,0,0,-1,0,150)"/>
 </g>
 <clipPath id="clip192">
  <path clip-rule="evenodd" d="M0,-50 l200,0 l0,93.79 l-200,0 Z M0,-50" transform="matrix(1,0,0,-1,0,150)"/>
 </clipPath>
 <g clip-path="url(#clip192)">
  <path d="M141.0,87.58 l-42.25,0 l0,7.92 c0,18.92,5.83,26.33,21.33,26.33 c8.67,0,14.17,-5.42,18.17,-17.67 l3.75,0 l2.0,19.33 c-6.0,2.67,-12.83,4.0,-22.5,4.0 c-25.83,0,-36.92,-12.42,-36.92,-32.83 l0,-7.08 l-23.67,0 l0,-5.58 l23.67,0 l0,-55.33 c0,-12.83,-2.83,-21.33,-8.08,-23.5 l0,-3.17 l30.42,0 l0,3.17 c-5.33,2.17,-8.17,10.67,-8.17,23.5 l0,55.33 l42.25,0 Z M141.0,87.58" fill="rgb(0,0,0)" transform="matrix(1,0,0,-1,0,150)"/>
 </g>
 <path d="M0,43.79 l200,0" fill="none" stroke="rgb(255,0,0)" stroke-width="1" transform="matrix(1,0,0,-1,0,150)"/>
</svg>