<?xml version="1.0" encoding="UTF-8"?>
<svg width="200" height="200" viewBox="0 0 200 200" version="1.1" xmlns="http://www.w3.org/2000/svg" xmlns:xlink="http://www.w3.org/1999/xlink">
 <path d="M0,0 l200,0 l0,200 l-200,0 Z M0,0" fill="rgb(255,255,255)" transform="matrix(1,0,0,-1,0,200)"/>
 <clipPath id="clip341">
  <path clip-rule="evenodd" d="M0,43.79 l200,0 l0,200 l-200,0 Z M0,43.79" transform="matrix(1,0,0,-1,0,150)"/>
 </clipPath>
 <g clip-path="url(#clip341)">
  <path d="M94.58,0 l0,11.58 l-16.67,0 l0,35.42 c0,18.25,11.5,30.08,27.75,30.08 c13.42,0,19.75,-7.08,19.75,-22.42 l0,-43.08 l-16.67,0 l0,-11.58 l47.92,0 l0,11.58 l-17.08,0 l0,46.25 c0,21.08,-10.33,32.25,-29.42,32.25 c-16.08,0,-26.08,-8.0,-31.25,-18.75 l-1.0,0 l0,53.67 l-31.25,0 l0,-11.58 l17.08,0 l0,-101.83 l-17.08,0 l0,-11.58 Z M94.58,0" fill="rgb(0,0,0)" transform="matrix(1,0,0,-1,0,150)"/>
 </g>
 <clipPath id="clip342">
  <path clip-rule="evenodd" d="M0,-50 l200,0 l0,93.79 l-200,0 Z M0,-50" transform="matrix(1,0,0,-1,0,150)"/>
 </clipPath>
 <g clip-path="url(#clip342)">
  <path d="M94.58,0 l0,11.58 l-16.67,0 l0,35.42 c0,18.25,11.5,30.08,27.75,30.08 c13.42,0,19.75,-7.08,19.75,-22.42 l0,-43.08 l-16.67,0 l0,-11.58 l47.92,0 l0,11.58 l-17.08,0 l0,46.25 c0,21.08,-10.33,32.25,-29.42,32.25 c-16.08,0,-26.08,-8.0,-31.25,-18.75 l-1.0,0 l0,53.67 l-31.25,0 l0,-11.58 l17.08,0 l0,-101.83 l-17.08,0 l0,-11.58 Z M94.58,0" fill="rgb(0,0,0)" transform="matrix(1,0,0,-1,0,150)"/>
 </g>
 <path d="M0,43.79 l200,0" fill="none" stroke="rgb(255,0,0)" stroke-width="1" transform="matrix(1,0,0,-1,0,150)"/>
</svg>