<?xml version="1.0" encoding="UTF-8"?>
<svg width="200" height="200" viewBox="0 0 200 200" version="1.1" xmlns="http://www.w3.org/2000/svg" xmlns:xlink="http://www.w3.org/1999/xlink">
 <path d="M0,0 l200,0 l0,200 l-200,0 Z M0,0" fill="rgb(255,255,255)" transform="matrix(1,0,0,-1,0,200)"/>
 <clipPath id="clip245">
  <path clip-rule="evenodd" d="M0,43.79 l200,0 l0,200 l-200,0 Z M0,43.79" transform="matrix(1,0,0,-1,0,150)"/>
 </clipPath>
 <g clip-path="url(#clip245)">
  <path d="M100.0,102.08 c6.67,0,11.25,3.67,11.25,10.92 c0,7.25,-4.58,10.92,-11.25,10.92 c-6.83,0,-11.25,-3.67,-11.25,-10.92 c0,-7.25,4.42,-10.92,11.25,-10.92 Z M87.0,87.58 l0,-2.5 c4.25,-3.25,6.5,-10.0,6.5,-21.75 l0,-36.67 c0,-12.08,-2.25,-20.58,-6.5,-24.17 l0,-2.5 l27.17,0 l0,2.5 c-4.25,3.58,-6.5,12.08,-6.5,24.17 l0,61.58 Z M87.0,87.58" fill="rgb(0,0,0)" transform="matrix(1,0,0,-1,0,150)"/>
 </g>
 <clipPath id="clip246">
  <path clip-rule="evenodd" d="M0,-50 l200,0 l0,93.79 l-200,0 Z M0,-50" transform="matrix(1,0,0,-1,0,150)"/>
 </clipPath>
 <g clip-path="url(#clip246)">
  <path d="M100.0,102.08 c6.67,0,11.25,3.67,11.25,10.92 c0,7.25,-4.58,10.92,-11.25,10.92 c-6.83,0,-11.25,-3.67,-11.25,-10.92 c0,-7.25,4.42,-10.92,11.25,-10.92 Z M87.0,87.58 l0,-2.5 c4.25,-3.25,6.5,-10.0,6.5,-21.75 l0,-36.67 c0,-12.08,-2.25,-20.58,-6.5,-24.17 l0,-2.5 l27.17,0 l0,2.5 c-4.25,3.58,-6.5,12.08,-6.5,24.17 l0,61.58 Z M87.0,87.58" fill="rgb(0,0,0)" transform="matrix(1,0,0,-1,0,150)"/>
 </g>
 <path d="M0,43.79 l200,0" fill="none" stroke="rgb(255,0,0)" stroke-width="1" transform="matrix(1,0,0,-1,0,150)"/>
</svg>