<?xml version="1.0" encoding="UTF-8"?>
<svg width="200" height="200" viewBox="0 0 200 200" version="1.1" xmlns="http://www.w3.org/2000/svg" xmlns:xlink="http://www.w3.org/1999/xlink">
 <path d="M0,0 l200,0 l0,200 l-200,0 Z M0,0" fill="rgb(255,255,255)" transform="matrix(1,0,0,-1,0,200)"/>
 <clipPath id="clip253">
  <path clip-rule="evenodd" d="M0,43.79 l200,0 l0,200 l-200,0 Z M0,43.79" transform="matrix(1,0,0,-1,0,150)"/>
 </clipPath>
 <g clip-path="url(#clip253)">
  <path d="M107.67,26.67 l0,61.83 l-22.25,-0.92 l0,-3.08 c5.25,-2.08,8.08,-8.5,8.08,-21.17 l0,-36.67 c0,-12.83,-2.83,-21.33,-8.08,-23.5 l0,-3.17 l30.42,0 l0,3.17 c-5.33,2.17,-8.17,10.67,-8.17,23.5 Z M88.75,113.0 c0,-7.25,4.42,-10.92,11.25,-10.92 c6.67,0,11.25,3.67,11.25,10.92 c0,7.25,-4.58,10.92,-11.25,10.92 c-6.83,0,-11.25,-3.67,-11.25,-10.92 Z M88.75,113.0" fill="rgb(0,0,0)" transform="matrix(1,0,0,-1,0,150)"/>
 </g>
 <clipPath id="clip254">
  <path clip-rule="evenodd" d="M0,-50 l200,0 l0,93.79 l-200,0 Z M0,-50" transform="matrix(1,0,0,-1,0,150)"/>
 </clipPath>
 <g clip-path="url(#clip254)">
  <path d="M107.67,26.67 l0,61.5 l-19.58,-0.58 l0,-2.08 c3.58,-4.0,5.42,-11.0,5.42,-22.17 l0,-36.67 c0,-11.5,-1.83,-20.08,-5.42,-24.58 l0,-2.08 l25.0,0 l0,2.08 c-3.5,4.5,-5.42,13.08,-5.42,24.58 Z M88.75,113.0 c0,-7.25,4.42,-10.92,11.25,-10.92 c6.67,0,11.25,3.67,11.25,10.92 c0,7.25,-4.58,10.92,-11.25,10.92 c-6.83,0,-11.25,-3.67,-11.25,-10.92 Z M88.75,113.0" fill="rgb(0,0,0)" transform="matrix(1,0,0,-1,0,150)"/>
 </g>
 <path d="M0,43.79 l200,0" fill="none" stroke="rgb(255,0,0)" stroke-width="1" transform="matrix(1,0,0,-1,0,150)"/>
</svg>