<?xml version="1.0" encoding="UTF-8"?>
<svg width="200" height="200" viewBox="0 0 200 200" version="1.1" xmlns="http://www.w3.org/2000/svg" xmlns:xlink="http://www.w3.org/1999/xlink">
 <path d="M0,0 l200,0 l0,200 l-200,0 Z M0,0" fill="rgb(255,255,255)" transform="matrix(1,0,0,-1,0,200)"/>
 <clipPath id="clip343">
  <path clip-rule="evenodd" d="M0,43.79 l200,0 l0,200 l-200,0 Z M0,43.79" transform="matrix(1,0,0,-1,0,150)"/>
 </clipPath>
 <g clip-path="url(#clip343)">
  <path d="M114.67,102.08 c6.67,0,11.25,3.67,11.25,10.92 c0,7.25,-4.58,10.92,-11.25,10.92 c-6.83,0,-11.25,-3.67,-11.25,-10.92 c0,-7.25,4.42,-10.92,11.25,-10.92 Z M59.83,-30.67 c14.92,-6.25,41.58,-7.67,53.0,2.25 c6.83,5.92,9.5,15.5,9.5,29.17 l0,86.83 l-14.17,0 l0,-24.25 l0,-62.17 c0,-9.67,-1.83,-15.92,-6.08,-19.67 c-7.92,-6.92,-27.33,-4.83,-38.92,-0.58 Z M59.83,-30.67" fill="rgb(0,0,0)" transform="matrix(1,0,0,-1,0,150)"/>
 </g>
 <clipPath id="clip344">
  <path clip-rule="evenodd" d="M0,-50 l200,0 l0,93.79 l-200,0 Z M0,-50" transform="matrix(1,0,0,-1,0,150)"/>
 </clipPath>
 <g clip-path="url(#clip344)">
  <path d="M114.67,102.08 c6.67,0,11.25,3.67,11.25,10.92 c0,7.25,-4.58,10.92,-11.25,10.92 c-6.83,0,-11.25,-3.67,-11.25,-10.92 c0,-7.25,4.42,-10.92,11.25,-10.92 Z M59.83,-30.67 c14.92,-6.25,41.58,-7.67,53.0,2.25 c6.83,5.92,9.5,15.5,9.5,29.17 l0,86.83 l-14.17,0 l0,-24.25 l0,-62.17 c0,-9.67,-1.83,-15.92,-6.08,-19.67 c-7.92,-6.92,-27.33,-4.83,-38.92,-0.58 Z M59.83,-30.67" fill="rgb(0,0,0)" transform="matrix(1,0,0,-1,0,150)"/>
 </g>
 <path d="M0,43.79 l200,0" fill="none" stroke="rgb(255,0,0)" stroke-width="1" transform="matrix(1,0,0,-1,0,150)"/>
</svg>