<?xml version="1.0" encoding="UTF-8"?>
<svg width="200" height="200" viewBox="0 0 200 200" version="1.1" xmlns="http://www.w3.org/2000/svg" xmlns:xlink="http://www.w3.org/1999/xlink">
 <path d="M0,0 l200,0 l0,200 l-200,0 Z M0,0" fill="rgb(255,255,255)" transform="matrix(1,0,0,-1,0,200)"/>
 <clipPath id="clip117">
  <path clip-rule="evenodd" d="M0,43.79 l200,0 l0,200 l-200,0 Z M0,43.79" transform="matrix(1,0,0,-1,0,150)"/>
 </clipPath>
 <g clip-path="url(#clip117)">
  <path d="M114.67,102.08 c6.67,0,11.25,3.67,11.25,10.92 c0,7.25,-4.58,10.92,-11.25,10.92 c-6.83,0,-11.25,-3.67,-11.25,-10.92 c0,-7.25,4.42,-10.92,11.25,-10.92 Z M82.67,-33.5 c10.42,1.58,24.5,4.75,32.17,14.5 c5.17,6.92,7.5,15.33,7.5,29.25 l0,78.0 l-20.67,-0.67 l0,-2.5 c4.25,-3.25,6.5,-10.0,6.5,-21.75 l0,-53.17 c0,-13.33,-1.17,-18.58,-4.25,-24.5 c-4.75,-7.5,-14.17,-10.33,-21.58,-13.0 Z M82.67,-33.5" fill="rgb(0,0,0)" transform="matrix(1,0,0,-1,0,150)"/>
 </g>
 <clipPath id="clip118">
  <path clip-rule="evenodd" d="M0,-50 l200,0 l0,93.79 l-200,0 Z M0,-50" transform="matrix(1,0,0,-1,0,150)"/>
 </clipPath>
 <g clip-path="url(#clip118)">
  <path d="M114.67,102.08 c6.67,0,11.25,3.67,11.25,10.92 c0,7.25,-4.58,10.92,-11.25,10.92 c-6.83,0,-11.25,-3.67,-11.25,-10.92 c0,-7.25,4.42,-10.92,11.25,-10.92 Z M82.67,-33.5 c10.42,1.58,24.5,4.75,32.17,14.5 c5.17,6.92,7.5,15.33,7.5,29.25 l0,78.0 l-20.67,-0.67 l0,-2.5 c4.25,-3.25,6.5,-10.0,6.5,-21.75 l0,-53.17 c0,-13.33,-1.17,-18.58,-4.25,-24.5 c-4.75,-7.5,-14.17,-10.33,-21.58,-13.0 Z M82.67,-33.5" fill="rgb(0,0,0)" transform="matrix(1,0,0,-1,0,150)"/>
 </g>
 <path d="M0,43.79 l200,0" fill="none" stroke="rgb(255,0,0)" stroke-width="1" transform="matrix(1,0,0,-1,0,150)"/>
</svg>