<?xml version="1.0" encoding="UTF-8"?>
<svg width="200" height="200" viewBox="0 0 200 200" version="1.1" xmlns="http://www.w3.org/2000/svg" xmlns:xlink="http://www.w3.org/1999/xlink">
 <path d="M0,0 l200,0 l0,200 l-200,0 Z M0,0" fill="rgb(255,255,255)" transform="matrix(1,0,0,-1,0,200)"/>
 <clipPath id="clip381">
  <path clip-rule="evenodd" d="M0,43.79 l200,0 l0,200 l-200,0 Z M0,43.79" transform="matrix(1,0,0,-1,0,150)"/>
 </clipPath>
 <g clip-path="url(#clip381)">
  <path d="M114.67,102.08 c6.67,0,11.25,3.67,11.25,10.92 c0,7.25,-4.58,10.92,-11.25,10.92 c-6.83,0,-11.25,-3.67,-11.25,-10.92 c0,-7.25,4.42,-10.92,11.25,-10.92 Z M97.83,-35.33 c7.42,6.75,13.17,13.0,18.33,22.67 c4.0,7.5,6.17,15.17,6.17,29.25 l0,72.17 l-25.0,-1.17 l0,-4.17 c7.08,0,10.83,-5.92,10.83,-20.08 l0,-47.17 c0,-15.83,-0.75,-20.42,-3.08,-27.67 c-2.58,-7.92,-5.33,-14.08,-10.0,-21.33 Z M97.83,-35.33" fill="rgb(0,0,0)" transform="matrix(1,0,0,-1,0,150)"/>
 </g>
 <clipPath id="clip382">
  <path clip-rule="evenodd" d="M0,-50 l200,0 l0,93.79 l-200,0 Z M0,-50" transform="matrix(1,0,0,-1,0,150)"/>
 </clipPath>
 <g clip-path="url(#clip382)">
  <path d="M114.67,123.92 c-6.83,0,-11.25,-3.67,-11.25,-10.92 c0,-7.25,4.42,-10.92,11.25,-10.92 c6.67,0,11.25,3.67,11.25,10.92 c0,7.25,-4.58,10.92,-11.25,10.92 Z M65.75,87.58 l0,-11.67 l42.42,0 l0,-74.75 c0,-17.92,-6.17,-24.17,-22.75,-24.17 c-7.42,0,-16.17,1.67,-22.25,3.92 l-3.33,-11.58 c7.0,-2.92,18.5,-4.92,27.5,-4.92 c26.08,0,35.0,11.58,35.0,36.33 l0,86.83 Z M65.75,87.58" fill="rgb(0,0,0)" transform="matrix(1,0,0,-1,0,150)"/>
 </g>
 <path d="M0,43.79 l200,0" fill="none" stroke="rgb(255,0,0)" stroke-width="1" transform="matrix(1,0,0,-1,0,150)"/>
</svg>