<?xml version="1.0" encoding="UTF-8"?>
<svg width="200" height="200" viewBox="0 0 200 200" version="1.1" xmlns="http://www.w3.org/2000/svg" xmlns:xlink="http://www.w3.org/1999/xlink">
 <path d="M0,0 l200,0 l0,200 l-200,0 Z M0,0" fill="rgb(255,255,255)" transform="matrix(1,0,0,-1,0,200)"/>
 <clipPath id="clip291">
  <path clip-rule="evenodd" d="M0,43.79 l200,0 l0,200 l-200,0 Z M0,43.79" transform="matrix(1,0,0,-1,0,150)"/>
 </clipPath>
 <g clip-path="url(#clip291)">
  <path d="M108.83,125.0 l-14.17,0 l0,-24.25 l0,-74.08 l0,-26.67 l14.17,0 l0,26.67 Z M108.83,125.0" fill="rgb(0,0,0)" transform="matrix(1,0,0,-1,0,150)"/>
 </g>
 <clipPath id="clip292">
  <path clip-rule="evenodd" d="M0,-50 l200,0 l0,93.79 l-200,0 Z M0,-50" transform="matrix(1,0,0,-1,0,150)"/>
 </clipPath>
 <g clip-path="url(#clip292)">
  <path d="M90.33,125.0 l0,-1.67 c2.83,-4.83,4.33,-12.08,4.33,-22.58 l0,-74.08 c0,-11.0,-1.5,-19.67,-4.33,-25.0 l0,-1.67 l22.83,0 l0,1.67 c-2.83,5.33,-4.33,14.0,-4.33,25.0 l0,98.83 Z M90.33,125.0" fill="rgb(0,0,0)" transform="matrix(1,0,0,-1,0,150)"/>
 </g>
 <path d="M0,43.79 l200,0" fill="none" stroke="rgb(255,0,0)" stroke-width="1" transform="matrix(1,0,0,-1,0,150)"/>
</svg>