<?xml version="1.0" encoding="UTF-8"?>
<svg width="200" height="200" viewBox="0 0 200 200" version="1.1" xmlns="http://www.w3.org/2000/svg" xmlns:xlink="http://www.w3.org/1999/xlink">
 <path d="M0,0 l200,0 l0,200 l-200,0 Z M0,0" fill="rgb(255,255,255)" transform="matrix(1,0,0,-1,0,200)"/>
 <clipPath id="clip293">
  <path clip-rule="evenodd" d="M0,43.79 l200,0 l0,200 l-200,0 Z M0,43.79" transform="matrix(1,0,0,-1,0,150)"/>
 </clipPath>
 <g clip-path="url(#clip293)">
  <path d="M108.83,26.67 l0,98.33 l-14.17,0 l0,-24.25 l0,-74.08 l0,-26.67 l14.17,0 Z M108.83,26.67" fill="rgb(0,0,0)" transform="matrix(1,0,0,-1,0,150)"/>
 </g>
 <clipPath id="clip294">
  <path clip-rule="evenodd" d="M0,-50 l200,0 l0,93.79 l-200,0 Z M0,-50" transform="matrix(1,0,0,-1,0,150)"/>
 </clipPath>
 <g clip-path="url(#clip294)">
  <path d="M108.83,26.67 l0,98.92 l-19.58,-0.58 l0,-2.08 c3.58,-4.0,5.42,-11.0,5.42,-22.17 l0,-74.08 c0,-11.5,-1.83,-20.08,-5.42,-24.58 l0,-2.08 l25.0,0 l0,2.08 c-3.5,4.5,-5.42,13.08,-5.42,24.58 Z M108.83,26.67" fill="rgb(0,0,0)" transform="matrix(1,0,0,-1,0,150)"/>
 </g>
 <path d="M0,43.79 l200,0" fill="none" stroke="rgb(255,0,0)" stroke-width="1" transform="matrix(1,0,0,-1,0,150)"/>
</svg>