<?xml version="1.0" encoding="UTF-8"?>
<svg width="200" height="200" viewBox="0 0 200 200" version="1.1" xmlns="http://www.w3.org/2000/svg" xmlns:xlink="http://www.w3.org/1999/xlink">
 <path d="M0,0 l200,0 l0,200 l-200,0 Z M0,0" fill="rgb(255,255,255)" transform="matrix(1,0,0,-1,0,200)"/>
 <clipPath id="clip335">
  <path clip-rule="evenodd" d="M0,43.79 l200,0 l0,200 l-200,0 Z M0,43.79" transform="matrix(1,0,0,-1,0,150)"/>
 </clipPath>
 <g clip-path="url(#clip335)">
  <path d="M83.83,125.0 l0,-4.17 c7.08,0,10.83,-5.92,10.83,-20.08 l0,-74.08 c0,-14.17,-3.75,-22.5,-10.83,-22.5 l0,-4.17 l35.83,0 l0,4.17 c-7.08,0,-10.83,8.33,-10.83,22.5 l0,99.5 Z M83.83,125.0" fill="rgb(0,0,0)" transform="matrix(1,0,0,-1,0,150)"/>
 </g>
 <clipPath id="clip336">
  <path clip-rule="evenodd" d="M0,-50 l200,0 l0,93.79 l-200,0 Z M0,-50" transform="matrix(1,0,0,-1,0,150)"/>
 </clipPath>
 <g clip-path="url(#clip336)">
  <path d="M83.83,125.0 l0,-4.17 c7.08,0,10.83,-5.92,10.83,-20.08 l0,-74.08 c0,-14.17,-3.75,-22.5,-10.83,-22.5 l0,-4.17 l35.83,0 l0,4.17 c-7.08,0,-10.83,8.33,-10.83,22.5 l0,99.5 Z M83.83,125.0" fill="rgb(0,0,0)" transform="matrix(1,0,0,-1,0,150)"/>
 </g>
 <path d="M0,43.79 l200,0" fill="none" stroke="rgb(255,0,0)" stroke-width="1" transform="matrix(1,0,0,-1,0,150)"/>
</svg>