<?xml version="1.0" encoding="UTF-8"?>
<svg width="200" height="200" viewBox="0 0 200 200" version="1.1" xmlns="http://www.w3.org/2000/svg" xmlns:xlink="http://www.w3.org/1999/xlink">
 <path d="M0,0 l200,0 l0,200 l-200,0 Z M0,0" fill="rgb(255,255,255)" transform="matrix(1,0,0,-1,0,200)"/>
 <clipPath id="clip361">
  <path clip-rule="evenodd" d="M0,43.79 l200,0 l0,200 l-200,0 Z M0,43.79" transform="matrix(1,0,0,-1,0,150)"/>
 </clipPath>
 <g clip-path="url(#clip361)">
  <path d="M91.25,-2.42 c16.58,0,26.75,6.83,32.17,16.83 l1.08,0 l1.58,-14.42 l11.33,0 l0,26.67 l0,32.58 c0,21.33,-11.75,30.92,-36.42,30.92 c-24.08,0,-34.17,-10.92,-36.83,-26.75 l13.83,-1.42 c2.17,10.5,8.08,16.58,22.83,16.58 c15.67,0,22.67,-5.67,22.67,-19.33 l0,-6.83 l-32.0,-3.42 c-7.92,-0.83,-14.08,-2.58,-18.75,-5.25 c-8.08,-4.5,-11.58,-11.75,-11.58,-21.5 c0,-16.25,11.17,-24.67,30.08,-24.67 Z M94.25,9.17 c-12.67,0,-18.83,5.08,-18.83,14.17 c0,8.42,5.0,13.92,18.75,15.58 l29.33,3.5 l0,-8.08 c0,-14.92,-11.58,-25.17,-29.25,-25.17 Z M94.25,9.17" fill="rgb(0,0,0)" transform="matrix(1,0,0,-1,0,150)"/>
 </g>
 <clipPath id="clip362">
  <path clip-rule="evenodd" d="M0,-50 l200,0 l0,93.79 l-200,0 Z M0,-50" transform="matrix(1,0,0,-1,0,150)"/>
 </clipPath>
 <g clip-path="url(#clip362)">
  <path d="M91.25,-2.42 c16.58,0,26.75,6.83,32.17,16.83 l1.08,0 l1.58,-14.42 l11.33,0 l0,26.67 l0,32.58 c0,21.33,-11.75,30.92,-36.42,30.92 c-24.08,0,-34.17,-10.92,-36.83,-26.75 l13.83,-1.42 c2.17,10.5,8.08,16.58,22.83,16.58 c15.67,0,22.67,-5.67,22.67,-19.33 l0,-6.83 l-32.0,-3.42 c-7.92,-0.83,-14.08,-2.58,-18.75,-5.25 c-8.08,-4.5,-11.58,-11.75,-11.58,-21.5 c0,-16.25,11.17,-24.67,30.08,-24.67 Z M94.25,9.17 c-12.67,0,-18.83,5.08,-18.83,14.17 c0,8.42,5.0,13.92,18.75,15.58 l29.33,3.5 l0,-8.08 c0,-14.92,-11.58,-25.17,-29.25,-25.17 Z M94.25,9.17" fill="rgb(0,0,0)" transform="matrix(1,0,0,-1,0,150)"/>
 </g>
 <clipPath id="clip363">
  <path clip-rule="evenodd" d="M0,43.79 l200,0 l0,200 l-200,0 Z M0,43.79" transform="matrix(1,0,0,-1,0,150)"/>
 </clipPath>
 <g clip-path="url(#clip363)">
  <path d="M91.25,-2.42 c16.58,0,26.75,6.83,32.17,16.83 l1.08,0 l1.58,-14.42 l11.33,0 l0,26.67 l0,32.58 c0,21.33,-11.75,30.92,-36.42,30.92 c-24.08,0,-34.17,-10.92,-36.83,-26.75 l13.83,-1.42 c2.17,10.5,8.08,16.58,22.83,16.58 c15.67,0,22.67,-5.67,22.67,-19.33 l0,-6.83 l-32.0,-3.42 c-7.92,-0.83,-14.08,-2.58,-18.75,-5.25 c-8.08,-4.5,-11.58,-11.75,-11.58,-21.5 c0,-16.25,11.17,-24.67,30.08,-24.67 Z M94.25,9.17 c-12.67,0,-18.83,5.08,-18.83,14.17 c0,8.42,5.0,13.92,18.75,15.58 l29.33,3.5 l0,-8.08 c0,-14.92,-11.58,-25.17,-29.25,-25.17 Z M94.25,9.17" fill="rgb(0,0,0)" transform="matrix(1,0,0,-1,0,150)"/>
 </g>
 <clipPath id="clip364">
  <path clip-rule="evenodd" d="M0,-50 l200,0 l0,93.79 l-200,0 Z M0,-50" transform="matrix(1,0,0,-1,0,150)"/>
 </clipPath>
 <g clip-path="url(#clip364)">
  <path d="M90.83,-2.42 c16.17,0,26.0,7.75,31.25,19.08 l1.0,0 l2.0,-17.83 l22.75,1.08 l0,4.17 c-8.08,0,-10.83,8.58,-10.83,22.58 l0,32.58 c0,21.33,-11.75,30.92,-36.42,30.92 c-23.92,0,-34.0,-11.92,-36.67,-29.33 l6.25,-0.83 c2.83,14.58,10.75,23.0,30.25,23.0 c15.67,0,22.67,-7.0,22.67,-23.75 l0,-9.58 l-32.0,-1.92 c-7.92,-0.5,-14.42,-1.58,-18.75,-4.0 c-8.08,-4.5,-11.58,-11.83,-11.58,-21.5 c0,-16.25,11.17,-24.67,30.08,-24.67 Z M93.83,5.42 c-12.67,0,-18.83,6.42,-18.83,17.92 c0,10.75,4.92,18.0,18.75,18.75 l29.33,1.58 l0,-9.33 c0,-17.17,-11.58,-28.92,-29.25,-28.92 Z M93.83,5.42" fill="rgb(0,0,0)" transform="matrix(1,0,0,-1,0,150)"/>
 </g>
 <clipPath id="clip365">
  <path clip-rule="evenodd" d="M0,43.79 l200,0 l0,200 l-200,0 Z M0,43.79" transform="matrix(1,0,0,-1,0,150)"/>
 </clipPath>
 <g clip-path="url(#clip365)">
  <path d="M90.83,-2.42 c16.17,0,26.0,7.75,31.25,19.08 l1.0,0 l2.0,-17.83 l22.75,1.08 l0,4.17 c-8.08,0,-10.83,8.58,-10.83,22.58 l0,32.58 c0,21.33,-11.75,30.92,-36.42,30.92 c-23.92,0,-34.0,-11.92,-36.67,-29.33 l6.25,-0.83 c2.83,14.58,10.75,23.0,30.25,23.0 c15.67,0,22.67,-7.0,22.67,-23.75 l0,-9.58 l-32.0,-1.92 c-7.92,-0.5,-14.42,-1.58,-18.75,-4.0 c-8.08,-4.5,-11.58,-11.83,-11.58,-21.5 c0,-16.25,11.17,-24.67,30.08,-24.67 Z M93.83,5.42 c-12.67,0,-18.83,6.42,-18.83,17.92 c0,10.75,4.92,18.0,18.75,18.75 l29.33,1.58 l0,-9.33 c0,-17.17,-11.58,-28.92,-29.25,-28.92 Z M93.83,5.42" fill="rgb(0,0,0)" transform="matrix(1,0,0,-1,0,150)"/>
 </g>
 <clipPath id="clip366">
  <path clip-rule="evenodd" d="M0,-50 l200,0 l0,93.79 l-200,0 Z M0,-50" transform="matrix(1,0,0,-1,0,150)"/>
 </clipPath>
 <g clip-path="url(#clip366)">
  <path d="M91.25,-2.42 c16.58,0,26.75,6.83,32.17,16.83 l1.08,0 l1.58,-14.42 l11.33,0 l0,26.67 l0,32.58 c0,21.33,-11.75,30.92,-36.42,30.92 c-24.08,0,-34.17,-10.92,-36.83,-26.75 l13.83,-1.42 c2.17,10.5,8.08,16.58,22.83,16.58 c15.67,0,22.67,-5.67,22.67,-19.33 l0,-6.83 l-32.0,-3.42 c-7.92,-0.83,-14.08,-2.58,-18.75,-5.25 c-8.08,-4.5,-11.58,-11.75,-11.58,-21.5 c0,-16.25,11.17,-24.67,30.08,-24.67 Z M94.25,9.17 c-12.67,0,-18.83,5.08,-18.83,14.17 c0,8.42,5.0,13.92,18.75,15.58 l29.33,3.5 l0,-8.08 c0,-14.92,-11.58,-25.17,-29.25,-25.17 Z M94.25,9.17" fill="rgb(0,0,0)" transform="matrix(1,0,0,-1,0,150)"/>
 </g>
 <clipPath id="clip367">
  <path clip-rule="evenodd" d="M0,43.79 l200,0 l0,200 l-200,0 Z M0,43.79" transform="matrix(1,0,0,-1,0,150)"/>
 </clipPath>
 <g clip-path="url(#clip367)">
  <path d="M90.83,-2.42 c16.17,0,26.0,7.75,31.25,19.08 l1.0,0 l2.0,-17.83 l22.75,1.08 l0,4.17 c-8.08,0,-10.83,8.58,-10.83,22.58 l0,32.58 c0,21.33,-11.75,30.92,-36.42,30.92 c-23.92,0,-34.0,-11.92,-36.67,-29.33 l6.25,-0.83 c2.83,14.58,10.75,23.0,30.25,23.0 c15.67,0,22.67,-7.0,22.67,-23.75 l0,-9.58 l-32.0,-1.92 c-7.92,-0.5,-14.42,-1.58,-18.75,-4.0 c-8.08,-4.5,-11.58,-11.83,-11.58,-21.5 c0,-16.25,11.17,-24.67,30.08,-24.67 Z M93.83,5.42 c-12.67,0,-18.83,6.42,-18.83,17.92 c0,10.75,4.92,18.0,18.75,18.75 l29.33,1.58 l0,-9.33 c0,-17.17,-11.58,-28.92,-29.25,-28.92 Z M93.83,5.42" fill="rgb(0,0,0)" transform="matrix(1,0,0,-1,0,150)"/>
 </g>
 <clipPath id="clip368">
  <path clip-rule="evenodd" d="M0,-50 l200,0 l0,93.79 l-200,0 Z M0,-50" transform="matrix(1,0,0,-1,0,150)"/>
 </clipPath>
 <g clip-path="url(#clip368)">
  <path d="M90.83,-2.42 c16.17,0,26.0,7.75,31.25,19.08 l1.0,0 l2.0,-17.83 l22.75,1.08 l0,4.17 c-8.08,0,-10.83,8.58,-10.83,22.58 l0,32.58 c0,21.33,-11.75,30.92,-36.42,30.92 c-23.92,0,-34.0,-11.92,-36.67,-29.33 l6.25,-0.83 c2.83,14.58,10.75,23.0,30.25,23.0 c15.67,0,22.67,-7.0,22.67,-23.75 l0,-9.58 l-32.0,-1.92 c-7.92,-0.5,-14.42,-1.58,-18.75,-4.0 c-8.08,-4.5,-11.58,-11.83,-11.58,-21.5 c0,-16.25,11.17,-24.67,30.08,-24.67 Z M93.83,5.42 c-12.67,0,-18.83,6.42,-18.83,17.92 c0,10.75,4.92,18.0,18.75,18.75 l29.33,1.58 l0,-9.33 c0,-17.17,-11.58,-28.92,-29.25,-28.92 Z M93.83,5.42" fill="rgb(0,0,0)" transform="matrix(1,0,0,-1,0,150)"/>
 </g>
 <clipPath id="clip369">
  <path clip-rule="evenodd" d="M0,43.79 l200,0 l0,200 l-200,0 Z M0,43.79" transform="matrix(1,0,0,-1,0,150)"/>
 </clipPath>
 <g clip-path="url(#clip369)">
  <path d="M141.75,46.25 c0,28.42,-15.17,43.92,-41.42,43.92 c-26.08,0,-42.08,-17.17,-42.08,-46.92 c0,-30.08,15.67,-45.75,43.0,-45.75 c24.17,0,35.42,9.75,39.25,26.25 l-13.58,1.42 c-3.25,-11.5,-10.75,-16.42,-25.42,-16.42 c-17.58,0,-28.17,10.0,-29.08,30.83 l69.33,0 Z M72.58,49.67 c1.5,20.08,11.0,29.25,27.83,29.25 c17.5,0,26.92,-9.5,27.67,-29.25 Z M72.58,49.67" fill="rgb(0,0,0)" transform="matrix(1,0,0,-1,0,150)"/>
 </g>
 <clipPath id="clip370">
  <path clip-rule="evenodd" d="M0,-50 l200,0 l0,93.79 l-200,0 Z M0,-50" transform="matrix(1,0,0,-1,0,150)"/>
 </clipPath>
 <g clip-path="url(#clip370)">
  <path d="M141.75,46.25 c0,28.42,-15.17,43.92,-41.42,43.92 c-26.08,0,-42.08,-17.17,-42.08,-46.92 c0,-30.08,15.67,-45.75,43.0,-45.75 c24.17,0,35.42,9.75,39.25,26.25 l-13.58,1.42 c-3.25,-11.5,-10.75,-16.42,-25.42,-16.42 c-17.58,0,-28.17,10.0,-29.08,30.83 l69.33,0 Z M72.58,49.67 c1.5,20.08,11.0,29.25,27.83,29.25 c17.5,0,26.92,-9.5,27.67,-29.25 Z M72.58,49.67" fill="rgb(0,0,0)" transform="matrix(1,0,0,-1,0,150)"/>
 </g>
 <clipPath id="clip371">
  <path clip-rule="evenodd" d="M0,43.79 l200,0 l0,200 l-200,0 Z M0,43.79" transform="matrix(1,0,0,-1,0,150)"/>
 </clipPath>
 <g clip-path="url(#clip371)">
  <path d="M141.75,46.25 c0,28.42,-15.17,43.92,-41.42,43.92 c-26.08,0,-42.08,-17.17,-42.08,-46.92 c0,-30.08,15.67,-45.75,43.0,-45.75 c24.17,0,35.42,9.75,39.25,26.25 l-13.58,1.42 c-3.25,-11.5,-10.75,-16.42,-25.42,-16.42 c-17.58,0,-28.17,10.0,-29.08,30.83 l69.33,0 Z M72.58,49.67 c1.5,20.08,11.0,29.25,27.83,29.25 c17.5,0,26.92,-9.5,27.67,-29.25 Z M72.58,49.67" fill="rgb(0,0,0)" transform="matrix(1,0,0,-1,0,150)"/>
 </g>
 <clipPath id="clip372">
  <path clip-rule="evenodd" d="M0,-50 l200,0 l0,93.79 l-200,0 Z M0,-50" transform="matrix(1,0,0,-1,0,150)"/>
 </clipPath>
 <g clip-path="url(#clip372)">
  <path d="M141.75,46.25 c0,28.42,-15.17,43.92,-41.42,43.92 c-26.08,0,-42.08,-17.17,-42.08,-46.92 c0,-30.08,15.67,-45.75,43.0,-45.75 c23.58,0,35.42,10.58,38.67,28.5 l-5.5,0.83 c-4.25,-15.58,-13.92,-22.25,-32.92,-22.25 c-17.58,0,-28.17,11.58,-29.08,35.83 l69.33,0 Z M72.58,47.17 c1.5,25.25,11.0,36.75,27.83,36.75 c17.5,0,26.92,-11.92,27.67,-36.75 Z M72.58,47.17" fill="rgb(0,0,0)" transform="matrix(1,0,0,-1,0,150)"/>
 </g>
 <clipPath id="clip373">
  <path clip-rule="evenodd" d="M0,43.79 l200,0 l0,200 l-200,0 Z M0,43.79" transform="matrix(1,0,0,-1,0,150)"/>
 </clipPath>
 <g clip-path="url(#clip373)">
  <path d="M141.75,46.25 c0,28.42,-15.17,43.92,-41.42,43.92 c-26.08,0,-42.08,-17.17,-42.08,-46.92 c0,-30.08,15.67,-45.75,43.0,-45.75 c23.58,0,35.42,10.58,38.67,28.5 l-5.5,0.83 c-4.25,-15.58,-13.92,-22.25,-32.92,-22.25 c-17.58,0,-28.17,11.58,-29.08,35.83 l69.33,0 Z M72.58,47.17 c1.5,25.25,11.0,36.75,27.83,36.75 c17.5,0,26.92,-11.92,27.67,-36.75 Z M72.58,47.17" fill="rgb(0,0,0)" transform="matrix(1,0,0,-1,0,150)"/>
 </g>
 <clipPath id="clip374">
  <path clip-rule="evenodd" d="M0,-50 l200,0 l0,93.79 l-200,0 Z M0,-50" transform="matrix(1,0,0,-1,0,150)"/>
 </clipPath>
 <g clip-path="url(#clip374)">
  <path d="M141.75,46.25 c0,28.42,-15.17,43.92,-41.42,43.92 c-26.08,0,-42.08,-17.17,-42.08,-46.92 c0,-30.08,15.67,-45.75,43.0,-45.75 c24.17,0,35.42,9.75,39.25,26.25 l-13.58,1.42 c-3.25,-11.5,-10.75,-16.42,-25.42,-16.42 c-17.58,0,-28.17,10.0,-29.08,30.83 l69.33,0 Z M72.58,49.67 c1.5,20.08,11.0,29.25,27.83,29.25 c17.5,0,26.92,-9.5,27.67,-29.25 Z M72.58,49.67" fill="rgb(0,0,0)" transform="matrix(1,0,0,-1,0,150)"/>
 </g>
 <clipPath id="clip375">
  <path clip-rule="evenodd" d="M0,43.79 l200,0 l0,200 l-200,0 Z M0,43.79" transform="matrix(1,0,0,-1,0,150)"/>
 </clipPath>
 <g clip-path="url(#clip375)">
  <path d="M141.75,46.25 c0,28.42,-15.17,43.92,-41.42,43.92 c-26.08,0,-42.08,-17.17,-42.08,-46.92 c0,-30.08,15.67,-45.75,43.0,-45.75 c23.58,0,35.42,10.58,38.67,28.5 l-5.5,0.83 c-4.25,-15.58,-13.92,-22.25,-32.92,-22.25 c-17.58,0,-28.17,11.58,-29.08,35.83 l69.33,0 Z M72.58,47.17 c1.5,25.25,11.0,36.75,27.83,36.75 c17.5,0,26.92,-11.92,27.67,-36.75 Z M72.58,47.17" fill="rgb(0,0,0)" transform="matrix(1,0,0,-1,0,150)"/>
 </g>
 <clipPath id="clip376">
  <path clip-rule="evenodd" d="M0,-50 l200,0 l0,93.79 l-200,0 Z M0,-50" transform="matrix(1,0,0,-1,0,150)"/>
 </clipPath>
 <g clip-path="url(#clip376)">
  <path d="M141.75,46.25 c0,28.42,-15.17,43.92,-41.42,43.92 c-26.08,0,-42.08,-17.17,-42.08,-46.92 c0,-30.08,15.67,-45.75,43.0,-45.75 c23.58,0,35.42,10.58,38.67,28.5 l-5.5,0.83 c-4.25,-15.58,-13.92,-22.25,-32.92,-22.25 c-17.58,0,-28.17,11.58,-29.08,35.83 l69.33,0 Z M72.58,47.17 c1.5,25.25,11.0,36.75,27.83,36.75 c17.5,0,26.92,-11.92,27.67,-36.75 Z M72.58,47.17" fill="rgb(0,0,0)" transform="matrix(1,0,0,-1,0,150)"/>
 </g>
 <clipPath id="clip377">
  <path clip-rule="evenodd" d="M0,43.79 l200,0 l0,200 l-200,0 Z M0,43.79" transform="matrix(1,0,0,-1,0,150)"/>
 </clipPath>
 <g clip-path="url(#clip377)">
  <path d="M63.75,0 l14.17,0 l0,26.67 l0,20.33 c0,18.25,11.5,30.08,27.75,30.08 c13.42,0,19.75,-7.08,19.75,-22.42 l0,-28.0 l0,-26.67 l14.17,0 l0,26.67 l0,31.17 c0,21.08,-10.33,32.25,-29.42,32.25 c-16.08,0,-26.08,-8.0,-31.25,-18.75 l-1.0,0 l0,53.67 l-14.17,0 l0,-24.25 l0,-74.08 Z M63.75,0" fill="rgb(0,0,0)" transform="matrix(1,0,0,-1,0,150)"/>
 </g>
 <clipPath id="clip378">
  <path clip-rule="evenodd" d="M0,-50 l200,0 l0,93.79 l-200,0 Z M0,-50" transform="matrix(1,0,0,-1,0,150)"/>
 </clipPath>
 <g clip-path="url(#clip378)">
  <path d="M63.75,0 l14.17,0 l0,26.67 l0,20.33 c0,18.25,11.5,30.08,27.75,30.08 c13.42,0,19.75,-7.08,19.75,-22.42 l0,-28.0 l0,-26.67 l14.17,0 l0,26.67 l0,31.17 c0,21.08,-10.33,32.25,-29.42,32.25 c-16.08,0,-26.08,-8.0,-31.25,-18.75 l-1.0,0 l0,53.67 l-14.17,0 l0,-24.25 l0,-74.08 Z M63.75,0" fill="rgb(0,0,0)" transform="matrix(1,0,0,-1,0,150)"/>
 </g>
 <clipPath id="clip379">
  <path clip-rule="evenodd" d="M0,43.79 l200,0 l0,200 l-200,0 Z M0,43.79" transform="matrix(1,0,0,-1,0,150)"/>
 </clipPath>
 <g clip-path="url(#clip379)">
  <path d="M63.75,0 l14.17,0 l0,26.67 l0,20.33 c0,18.25,11.5,30.08,27.75,30.08 c13.42,0,19.75,-7.08,19.75,-22.42 l0,-28.0 l0,-26.67 l14.17,0 l0,26.67 l0,31.17 c0,21.08,-10.33,32.25,-29.42,32.25 c-16.08,0,-26.08,-8.0,-31.25,-18.75 l-1.0,0 l0,53.67 l-14.17,0 l0,-24.25 l0,-74.08 Z M63.75,0" fill="rgb(0,0,0)" transform="matrix(1,0,0,-1,0,150)"/>
 </g>
 <clipPath id="clip380">
  <path clip-rule="evenodd" d="M0,-50 l200,0 l0,93.79 l-200,0 Z M0,-50" transform="matrix(1,0,0,-1,0,150)"/>
 </clipPath>
 <g clip-path="url(#clip380)">
  <path d="M88.75,0 l0,4.17 c-7.08,0,-10.83,8.33,-10.83,22.5 l0,20.33 c0,20.75,11.17,34.33,26.92,34.33 c14.0,0,20.58,-8.5,20.58,-26.67 l0,-28.0 c0,-14.17,-3.75,-22.5,-10.83,-22.5 l0,-4.17 l35.83,0 l0,4.17 c-7.08,0,-10.83,8.33,-10.83,22.5 l0,31.17 c0,21.08,-10.33,32.25,-29.42,32.25 c-16.08,0,-26.08,-8.17,-31.25,-19.17 l-1.0,0 l0,55.17 l-25.0,-1.08 l0,-4.17 c7.08,0,10.83,-5.92,10.83,-20.08 l0,-74.08 c0,-14.17,-3.75,-22.5,-10.83,-22.5 l0,-4.17 Z M88.75,0" fill="rgb(0,0,0)" transform="matrix(1,0,0,-1,0,150)"/>
 </g>
 <clipPath id="clip381">
  <path clip-rule="evenodd" d="M0,43.79 l200,0 l0,200 l-200,0 Z M0,43.79" transform="matrix(1,0,0,-1,0,150)"/>
 </clipPath>
 <g clip-path="url(#clip381)">
  <path d="M88.75,0 l0,4.17 c-7.08,0,-10.83,8.33,-10.83,22.5 l0,20.33 c0,20.75,11.17,34.33,26.92,34.33 c14.0,0,20.58,-8.5,20.58,-26.67 l0,-28.0 c0,-14.17,-3.75,-22.5,-10.83,-22.5 l0,-4.17 l35.83,0 l0,4.17 c-7.08,0,-10.83,8.33,-10.83,22.5 l0,31.17 c0,21.08,-10.33,32.25,-29.42,32.25 c-16.08,0,-26.08,-8.17,-31.25,-19.17 l-1.0,0 l0,55.17 l-25.0,-1.08 l0,-4.17 c7.08,0,10.83,-5.92,10.83,-20.08 l0,-74.08 c0,-14.17,-3.75,-22.5,-10.83,-22.5 l0,-4.17 Z M88.75,0" fill="rgb(0,0,0)" transform="matrix(1,0,0,-1,0,150)"/>
 </g>
 <clipPath id="clip382">
  <path clip-rule="evenodd" d="M0,-50 l200,0 l0,93.79 l-200,0 Z M0,-50" transform="matrix(1,0,0,-1,0,150)"/>
 </clipPath>
 <g clip-path="url(#clip382)">
  <path d="M63.75,0 l14.17,0 l0,26.67 l0,20.33 c0,18.25,11.5,30.08,27.75,30.08 c13.42,0,19.75,-7.08,19.75,-22.42 l0,-28.0 l0,-26.67 l14.17,0 l0,26.67 l0,31.17 c0,21.08,-10.33,32.25,-29.42,32.25 c-16.08,0,-26.08,-8.0,-31.25,-18.75 l-1.0,0 l0,53.67 l-14.17,0 l0,-24.25 l0,-74.08 Z M63.75,0" fill="rgb(0,0,0)" transform="matrix(1,0,0,-1,0,150)"/>
 </g>
 <clipPath id="clip383">
  <path clip-rule="evenodd" d="M0,43.79 l200,0 l0,200 l-200,0 Z M0,43.79" transform="matrix(1,0,0,-1,0,150)"/>
 </clipPath>
 <g clip-path="url(#clip383)">
  <path d="M88.75,0 l0,4.17 c-7.08,0,-10.83,8.33,-10.83,22.5 l0,20.33 c0,20.75,11.17,34.33,26.92,34.33 c14.0,0,20.58,-8.5,20.58,-26.67 l0,-28.0 c0,-14.17,-3.75,-22.5,-10.83,-22.5 l0,-4.17 l35.83,0 l0,4.17 c-7.08,0,-10.83,8.33,-10.83,22.5 l0,31.17 c0,21.08,-10.33,32.25,-29.42,32.25 c-16.08,0,-26.08,-8.17,-31.25,-19.17 l-1.0,0 l0,55.17 l-25.0,-1.08 l0,-4.17 c7.08,0,10.83,-5.92,10.83,-20.08 l0,-74.08 c0,-14.17,-3.75,-22.5,-10.83,-22.5 l0,-4.17 Z M88.75,0" fill="rgb(0,0,0)" transform="matrix(1,0,0,-1,0,150)"/>
 </g>
 <clipPath id="clip384">
  <path clip-rule="evenodd" d="M0,-50 l200,0 l0,93.79 l-200,0 Z M0,-50" transform="matrix(1,0,0,-1,0,150)"/>
 </clipPath>
 <g clip-path="url(#clip384)">
  <path d="M88.75,0 l0,4.17 c-7.08,0,-10.83,8.33,-10.83,22.5 l0,20.33 c0,20.75,11.17,34.33,26.92,34.33 c14.0,0,20.58,-8.5,20.58,-26.67 l0,-28.0 c0,-14.17,-3.75,-22.5,-10.83,-22.5 l0,-4.17 l35.83,0 l0,4.17 c-7.08,0,-10.83,8.33,-10.83,22.5 l0,31.17 c0,21.08,-10.33,32.25,-29.42,32.25 c-16.08,0,-26.08,-8.17,-31.25,-19.17 l-1.0,0 l0,55.17 l-25.0,-1.08 l0,-4.17 c7.08,0,10.83,-5.92,10.83,-20.08 l0,-74.08 c0,-14.17,-3.75,-22.5,-10.83,-22.5 l0,-4.17 Z M88.75,0" fill="rgb(0,0,0)" transform="matrix(1,0,0,-1,0,150)"/>
 </g>
 <clipPath id="clip385">
  <path clip-rule="evenodd" d="M0,43.79 l200,0 l0,200 l-200,0 Z M0,43.79" transform="matrix(1,0,0,-1,0,150)"/>
 </clipPath>
 <g clip-path="url(#clip385)">
  <path d="M100.0,102.08 c6.67,0,11.25,3.67,11.25,10.92 c0,7.25,-4.58,10.92,-11.25,10.92 c-6.83,0,-11.25,-3.67,-11.25,-10.92 c0,-7.25,4.42,-10.92,11.25,-10.92 Z M107.67,87.58 l-14.17,0 l0,-24.25 l0,-36.67 l0,-26.67 l14.17,0 l0,26.67 Z M107.67,87.58" fill="rgb(0,0,0)" transform="matrix(1,0,0,-1,0,150)"/>
 </g>
 <clipPath id="clip386">
  <path clip-rule="evenodd" d="M0,-50 l200,0 l0,93.79 l-200,0 Z M0,-50" transform="matrix(1,0,0,-1,0,150)"/>
 </clipPath>
 <g clip-path="url(#clip386)">
  <path d="M100.0,102.08 c6.67,0,11.25,3.67,11.25,10.92 c0,7.25,-4.58,10.92,-11.25,10.92 c-6.83,0,-11.25,-3.67,-11.25,-10.92 c0,-7.25,4.42,-10.92,11.25,-10.92 Z M107.67,87.58 l-14.17,0 l0,-24.25 l0,-36.67 l0,-26.67 l14.17,0 l0,26.67 Z M107.67,87.58" fill="rgb(0,0,0)" transform="matrix(1,0,0,-1,0,150)"/>
 </g>
 <clipPath id="clip387">
  <path clip-rule="evenodd" d="M0,43.79 l200,0 l0,200 l-200,0 Z M0,43.79" transform="matrix(1,0,0,-1,0,150)"/>
 </clipPath>
 <g clip-path="url(#clip387)">
  <path d="M100.0,102.08 c6.67,0,11.25,3.67,11.25,10.92 c0,7.25,-4.58,10.92,-11.25,10.92 c-6.83,0,-11.25,-3.67,-11.25,-10.92 c0,-7.25,4.42,-10.92,11.25,-10.92 Z M107.67,87.58 l-14.17,0 l0,-24.25 l0,-36.67 l0,-26.67 l14.17,0 l0,26.67 Z M107.67,87.58" fill="rgb(0,0,0)" transform="matrix(1,0,0,-1,0,150)"/>
 </g>
 <clipPath id="clip388">
  <path clip-rule="evenodd" d="M0,-50 l200,0 l0,93.79 l-200,0 Z M0,-50" transform="matrix(1,0,0,-1,0,150)"/>
 </clipPath>
 <g clip-path="url(#clip388)">
  <path d="M100.0,102.08 c6.67,0,11.25,3.67,11.25,10.92 c0,7.25,-4.58,10.92,-11.25,10.92 c-6.83,0,-11.25,-3.67,-11.25,-10.92 c0,-7.25,4.42,-10.92,11.25,-10.92 Z M82.67,87.58 l0,-4.17 c7.08,0,10.83,-5.92,10.83,-20.08 l0,-36.67 c0,-14.17,-3.75,-22.5,-10.83,-22.5 l0,-4.17 l35.83,0 l0,4.17 c-7.08,0,-10.83,8.33,-10.83,22.5 l0,62.08 Z M82.67,87.58" fill="rgb(0,0,0)" transform="matrix(1,0,0,-1,0,150)"/>
 </g>
 <clipPath id="clip389">
  <path clip-rule="evenodd" d="M0,43.79 l200,0 l0,200 l-200,0 Z M0,43.79" transform="matrix(1,0,0,-1,0,150)"/>
 </clipPath>
 <g clip-path="url(#clip389)">
  <path d="M100.0,102.08 c6.67,0,11.25,3.67,11.25,10.92 c0,7.25,-4.58,10.92,-11.25,10.92 c-6.83,0,-11.25,-3.67,-11.25,-10.92 c0,-7.25,4.42,-10.92,11.25,-10.92 Z M82.67,87.58 l0,-4.17 c7.08,0,10.83,-5.92,10.83,-20.08 l0,-36.67 c0,-14.17,-3.75,-22.5,-10.83,-22.5 l0,-4.17 l35.83,0 l0,4.17 c-7.08,0,-10.83,8.33,-10.83,22.5 l0,62.08 Z M82.67,87.58" fill="rgb(0,0,0)" transform="matrix(1,0,0,-1,0,150)"/>
 </g>
 <clipPath id="clip390">
  <path clip-rule="evenodd" d="M0,-50 l200,0 l0,93.79 l-200,0 Z M0,-50" transform="matrix(1,0,0,-1,0,150)"/>
 </clipPath>
 <g clip-path="url(#clip390)">
  <path d="M100.0,102.08 c6.67,0,11.25,3.67,11.25,10.92 c0,7.25,-4.58,10.92,-11.25,10.92 c-6.83,0,-11.25,-3.67,-11.25,-10.92 c0,-7.25,4.42,-10.92,11.25,-10.92 Z M107.67,87.58 l-14.17,0 l0,-24.25 l0,-36.67 l0,-26.67 l14.17,0 l0,26.67 Z M107.67,87.58" fill="rgb(0,0,0)" transform="matrix(1,0,0,-1,0,150)"/>
 </g>
 <clipPath id="clip391">
  <path clip-rule="evenodd" d="M0,43.79 l200,0 l0,200 l-200,0 Z M0,43.79" transform="matrix(1,0,0,-1,0,150)"/>
 </clipPath>
 <g clip-path="url(#clip391)">
  <path d="M100.0,102.08 c6.67,0,11.25,3.67,11.25,10.92 c0,7.25,-4.58,10.92,-11.25,10.92 c-6.83,0,-11.25,-3.67,-11.25,-10.92 c0,-7.25,4.42,-10.92,11.25,-10.92 Z M82.67,87.58 l0,-4.17 c7.08,0,10.83,-5.92,10.83,-20.08 l0,-36.67 c0,-14.17,-3.75,-22.5,-10.83,-22.5 l0,-4.17 l35.83,0 l0,4.17 c-7.08,0,-10.83,8.33,-10.83,22.5 l0,62.08 Z M82.67,87.58" fill="rgb(0,0,0)" transform="matrix(1,0,0,-1,0,150)"/>
 </g>
 <clipPath id="clip392">
  <path clip-rule="evenodd" d="M0,-50 l200,0 l0,93.79 l-200,0 Z M0,-50" transform="matrix(1,0,0,-1,0,150)"/>
 </clipPath>
 <g clip-path="url(#clip392)">
  <path d="M100.0,102.08 c6.67,0,11.25,3.67,11.25,10.92 c0,7.25,-4.58,10.92,-11.25,10.92 c-6.83,0,-11.25,-3.67,-11.25,-10.92 c0,-7.25,4.42,-10.92,11.25,-10.92 Z M82.67,87.58 l0,-4.17 c7.08,0,10.83,-5.92,10.83,-20.08 l0,-36.67 c0,-14.17,-3.75,-22.5,-10.83,-22.5 l0,-4.17 l35.83,0 l0,4.17 c-7.08,0,-10.83,8.33,-10.83,22.5 l0,62.08 Z M82.67,87.58" fill="rgb(0,0,0)" transform="matrix(1,0,0,-1,0,150)"/>
 </g>
 <clipPath id="clip393">
  <path clip-rule="evenodd" d="M0,43.79 l200,0 l0,200 l-200,0 Z M0,43.79" transform="matrix(1,0,0,-1,0,150)"/>
 </clipPath>
 <g clip-path="url(#clip393)">
  <path d="M114.67,102.08 c6.67,0,11.25,3.67,11.25,10.92 c0,7.25,-4.58,10.92,-11.25,10.92 c-6.83,0,-11.25,-3.67,-11.25,-10.92 c0,-7.25,4.42,-10.92,11.25,-10.92 Z M59.83,-30.67 c14.92,-6.25,41.58,-7.67,53.0,2.25 c6.83,5.92,9.5,15.5,9.5,29.17 l0,86.83 l-14.17,0 l0,-24.25 l0,-62.17 c0,-9.67,-1.83,-15.92,-6.08,-19.67 c-7.92,-6.92,-27.33,-4.83,-38.92,-0.58 Z M59.83,-30.67" fill="rgb(0,0,0)" transform="matrix(1,0,0,-1,0,150)"/>
 </g>
 <clipPath id="clip394">
  <path clip-rule="evenodd" d="M0,-50 l200,0 l0,93.79 l-200,0 Z M0,-50" transform="matrix(1,0,0,-1,0,150)"/>
 </clipPath>
 <g clip-path="url(#clip394)">
  <path d="M114.67,102.08 c6.67,0,11.25,3.67,11.25,10.92 c0,7.25,-4.58,10.92,-11.25,10.92 c-6.83,0,-11.25,-3.67,-11.25,-10.92 c0,-7.25,4.42,-10.92,11.25,-10.92 Z M59.83,-30.67 c14.92,-6.25,41.58,-7.67,53.0,2.25 c6.83,5.92,9.5,15.5,9.5,29.17 l0,86.83 l-14.17,0 l0,-24.25 l0,-62.17 c0,-9.67,-1.83,-15.92,-6.08,-19.67 c-7.92,-6.92,-27.33,-4.83,-38.92,-0.58 Z M59.83,-30.67" fill="rgb(0,0,0)" transform="matrix(1,0,0,-1,0,150)"/>
 </g>
 <clipPath id="clip395">
  <path clip-rule="evenodd" d="M0,43.79 l200,0 l0,200 l-200,0 Z M0,43.79" transform="matrix(1,0,0,-1,0,150)"/>
 </clipPath>
 <g clip-path="url(#clip395)">
  <path d="M114.67,102.08 c6.67,0,11.25,3.67,11.25,10.92 c0,7.25,-4.58,10.92,-11.25,10.92 c-6.83,0,-11.25,-3.67,-11.25,-10.92 c0,-7.25,4.42,-10.92,11.25,-10.92 Z M59.83,-30.67 c14.92,-6.25,41.58,-7.67,53.0,2.25 c6.83,5.92,9.5,15.5,9.5,29.17 l0,86.83 l-14.17,0 l0,-24.25 l0,-62.17 c0,-9.67,-1.83,-15.92,-6.08,-19.67 c-7.92,-6.92,-27.33,-4.83,-38.92,-0.58 Z M59.83,-30.67" fill="rgb(0,0,0)" transform="matrix(1,0,0,-1,0,150)"/>
 </g>
 <clipPath id="clip396">
  <path clip-rule="evenodd" d="M0,-50 l200,0 l0,93.79 l-200,0 Z M0,-50" transform="matrix(1,0,0,-1,0,150)"/>
 </clipPath>
 <g clip-path="url(#clip396)">
  <path d="M114.67,102.08 c6.67,0,11.25,3.67,11.25,10.92 c0,7.25,-4.58,10.92,-11.25,10.92 c-6.83,0,-11.25,-3.67,-11.25,-10.92 c0,-7.25,4.42,-10.92,11.25,-10.92 Z M97.83,-35.33 c7.42,6.75,13.17,13.0,18.33,22.67 c4.0,7.5,6.17,15.17,6.17,29.25 l0,72.17 l-25.0,-1.17 l0,-4.17 c7.08,0,10.83,-5.92,10.83,-20.08 l0,-47.17 c0,-15.83,-0.75,-20.42,-3.08,-27.67 c-2.58,-7.92,-5.33,-14.08,-10.0,-21.33 Z M97.83,-35.33" fill="rgb(0,0,0)" transform="matrix(1,0,0,-1,0,150)"/>
 </g>
 <clipPath id="clip397">
  <path clip-rule="evenodd" d="M0,43.79 l200,0 l0,200 l-200,0 Z M0,43.79" transform="matrix(1,0,0,-1,0,150)"/>
 </clipPath>
 <g clip-path="url(#clip397)">
  <path d="M114.67,102.08 c6.67,0,11.25,3.67,11.25,10.92 c0,7.25,-4.58,10.92,-11.25,10.92 c-6.83,0,-11.25,-3.67,-11.25,-10.92 c0,-7.25,4.42,-10.92,11.25,-10.92 Z M97.83,-35.33 c7.42,6.75,13.17,13.0,18.33,22.67 c4.0,7.5,6.17,15.17,6.17,29.25 l0,72.17 l-25.0,-1.17 l0,-4.17 c7.08,0,10.83,-5.92,10.83,-20.08 l0,-47.17 c0,-15.83,-0.75,-20.42,-3.08,-27.67 c-2.58,-7.92,-5.33,-14.08,-10.0,-21.33 Z M97.83,-35.33" fill="rgb(0,0,0)" transform="matrix(1,0,0,-1,0,150)"/>
 </g>
 <clipPath id="clip398">
  <path clip-rule="evenodd" d="M0,-50 l200,0 l0,93.79 l-200,0 Z M0,-50" transform="matrix(1,0,0,-1,0,150)"/>
 </clipPath>
 <g clip-path="url(#clip398)">
  <path d="M114.67,102.08 c6.67,0,11.25,3.67,11.25,10.92 c0,7.25,-4.58,10.92,-11.25,10.92 c-6.83,0,-11.25,-3.67,-11.25,-10.92 c0,-7.25,4.42,-10.92,11.25,-10.92 Z M59.83,-30.67 c14.92,-6.25,41.58,-7.67,53.0,2.25 c6.83,5.92,9.5,15.5,9.5,29.17 l0,86.83 l-14.17,0 l0,-24.25 l0,-62.17 c0,-9.67,-1.83,-15.92,-6.08,-19.67 c-7.92,-6.92,-27.33,-4.83,-38.92,-0.58 Z M59.83,-30.67" fill="rgb(0,0,0)" transform="matrix(1,0,0,-1,0,150)"/>
 </g>
 <clipPath id="clip399">
  <path clip-rule="evenodd" d="M0,43.79 l200,0 l0,200 l-200,0 Z M0,43.79" transform="matrix(1,0,0,-1,0,150)"/>
 </clipPath>
 <g clip-path="url(#clip399)">
  <path d="M114.67,102.08 c6.67,0,11.25,3.67,11.25,10.92 c0,7.25,-4.58,10.92,-11.25,10.92 c-6.83,0,-11.25,-3.67,-11.25,-10.92 c0,-7.25,4.42,-10.92,11.25,-10.92 Z M97.83,-35.33 c7.42,6.75,13.17,13.0,18.33,22.67 c4.0,7.5,6.17,15.17,6.17,29.25 l0,72.17 l-25.0,-1.17 l0,-4.17 c7.08,0,10.83,-5.92,10.83,-20.08 l0,-47.17 c0,-15.83,-0.75,-20.42,-3.08,-27.67 c-2.58,-7.92,-5.33,-14.08,-10.0,-21.33 Z M97.83,-35.33" fill="rgb(0,0,0)" transform="matrix(1,0,0,-1,0,150)"/>
 </g>
 <clipPath id="clip400">
  <path clip-rule="evenodd" d="M0,-50 l200,0 l0,93.79 l-200,0 Z M0,-50" transform="matrix(1,0,0,-1,0,150)"/>
 </clipPath>
 <g clip-path="url(#clip400)">
  <path d="M114.67,102.08 c6.67,0,11.25,3.67,11.25,10.92 c0,7.25,-4.58,10.92,-11.25,10.92 c-6.83,0,-11.25,-3.67,-11.25,-10.92 c0,-7.25,4.42,-10.92,11.25,-10.92 Z M97.83,-35.33 c7.42,6.75,13.17,13.0,18.33,22.67 c4.0,7.5,6.17,15.17,6.17,29.25 l0,72.17 l-25.0,-1.17 l0,-4.17 c7.08,0,10.83,-5.92,10.83,-20.08 l0,-47.17 c0,-15.83,-0.75,-20.42,-3.08,-27.67 c-2.58,-7.92,-5.33,-14.08,-10.0,-21.33 Z M97.83,-35.33" fill="rgb(0,0,0)" transform="matrix(1,0,0,-1,0,150)"/>
 </g>
 <clipPath id="clip401">
  <path clip-rule="evenodd" d="M0,43.79 l200,0 l0,200 l-200,0 Z M0,43.79" transform="matrix(1,0,0,-1,0,150)"/>
 </clipPath>
 <g clip-path="url(#clip401)">
  <path d="M108.83,125.0 l-14.17,0 l0,-24.25 l0,-74.08 l0,-26.67 l14.17,0 l0,26.67 Z M108.83,125.0" fill="rgb(0,0,0)" transform="matrix(1,0,0,-1,0,150)"/>
 </g>
 <clipPath id="clip402">
  <path clip-rule="evenodd" d="M0,-50 l200,0 l0,93.79 l-200,0 Z M0,-50" transform="matrix(1,0,0,-1,0,150)"/>
 </clipPath>
 <g clip-path="url(#clip402)">
  <path d="M108.83,125.0 l-14.17,0 l0,-24.25 l0,-74.08 l0,-26.67 l14.17,0 l0,26.67 Z M108.83,125.0" fill="rgb(0,0,0)" transform="matrix(1,0,0,-1,0,150)"/>
 </g>
 <clipPath id="clip403">
  <path clip-rule="evenodd" d="M0,43.79 l200,0 l0,200 l-200,0 Z M0,43.79" transform="matrix(1,0,0,-1,0,150)"/>
 </clipPath>
 <g clip-path="url(#clip403)">
  <path d="M108.83,125.0 l-14.17,0 l0,-24.25 l0,-74.08 l0,-26.67 l14.17,0 l0,26.67 Z M108.83,125.0" fill="rgb(0,0,0)" transform="matrix(1,0,0,-1,0,150)"/>
 </g>
 <clipPath id="clip404">
  <path clip-rule="evenodd" d="M0,-50 l200,0 l0,93.79 l-200,0 Z M0,-50" transform="matrix(1,0,0,-1,0,150)"/>
 </clipPath>
 <g clip-path="url(#clip404)">
  <path d="M83.83,125.0 l0,-4.17 c7.08,0,10.83,-5.92,10.83,-20.08 l0,-74.08 c0,-14.17,-3.75,-22.5,-10.83,-22.5 l0,-4.17 l35.83,0 l0,4.17 c-7.08,0,-10.83,8.33,-10.83,22.5 l0,99.5 Z M83.83,125.0" fill="rgb(0,0,0)" transform="matrix(1,0,0,-1,0,150)"/>
 </g>
 <clipPath id="clip405">
  <path clip-rule="evenodd" d="M0,43.79 l200,0 l0,200 l-200,0 Z M0,43.79" transform="matrix(1,0,0,-1,0,150)"/>
 </clipPath>
 <g clip-path="url(#clip405)">
  <path d="M83.83,125.0 l0,-4.17 c7.08,0,10.83,-5.92,10.83,-20.08 l0,-74.08 c0,-14.17,-3.75,-22.5,-10.83,-22.5 l0,-4.17 l35.83,0 l0,4.17 c-7.08,0,-10.83,8.33,-10.83,22.5 l0,99.5 Z M83.83,125.0" fill="rgb(0,0,0)" transform="matrix(1,0,0,-1,0,150)"/>
 </g>
 <clipPath id="clip406">
  <path clip-rule="evenodd" d="M0,-50 l200,0 l0,93.79 l-200,0 Z M0,-50" transform="matrix(1,0,0,-1,0,150)"/>
 </clipPath>
 <g clip-path="url(#clip406)">
  <path d="M108.83,125.0 l-14.17,0 l0,-24.25 l0,-74.08 l0,-26.67 l14.17,0 l0,26.67 Z M108.83,125.0" fill="rgb(0,0,0)" transform="matrix(1,0,0,-1,0,150)"/>
 </g>
 <clipPath id="clip407">
  <path clip-rule="evenodd" d="M0,43.79 l200,0 l0,200 l-200,0 Z M0,43.79" transform="matrix(1,0,0,-1,0,150)"/>
 </clipPath>
 <g clip-path="url(#clip407)">
  <path d="M83.83,125.0 l0,-4.17 c7.08,0,10.83,-5.92,10.83,-20.08 l0,-74.08 c0,-14.17,-3.75,-22.5,-10.83,-22.5 l0,-4.17 l35.83,0 l0,4.17 c-7.08,0,-10.83,8.33,-10.83,22.5 l0,99.5 Z M83.83,125.0" fill="rgb(0,0,0)" transform="matrix(1,0,0,-1,0,150)"/>
 </g>
 <clipPath id="clip408">
  <path clip-rule="evenodd" d="M0,-50 l200,0 l0,93.79 l-200,0 Z M0,-50" transform="matrix(1,0,0,-1,0,150)"/>
 </clipPath>
 <g clip-path="url(#clip408)">
  <path d="M83.83,125.0 l0,-4.17 c7.08,0,10.83,-5.92,10.83,-20.08 l0,-74.08 c0,-14.17,-3.75,-22.5,-10.83,-22.5 l0,-4.17 l35.83,0 l0,4.17 c-7.08,0,-10.83,8.33,-10.83,22.5 l0,99.5 Z M83.83,125.0" fill="rgb(0,0,0)" transform="matrix(1,0,0,-1,0,150)"/>
 </g>
 <clipPath id="clip409">
  <path clip-rule="evenodd" d="M0,43.79 l200,0 l0,200 l-200,0 Z M0,43.79" transform="matrix(1,0,0,-1,0,150)"/>
 </clipPath>
 <g clip-path="url(#clip409)">
  <path d="M63.75,0 l14.17,0 l0,26.67 l0,20.33 c0,18.25,11.5,30.08,27.75,30.08 c13.42,0,19.75,-7.08,19.75,-22.42 l0,-28.0 l0,-26.67 l14.17,0 l0,26.67 l0,31.17 c0,21.08,-10.33,32.25,-29.42,32.25 c-16.25,0,-26.33,-8.0,-31.5,-18.75 l-1.0,0 l-2.0,16.25 l-11.92,0 l0,-24.25 l0,-36.67 Z M63.75,0" fill="rgb(0,0,0)" transform="matrix(1,0,0,-1,0,150)"/>
 </g>
 <clipPath id="clip410">
  <path clip-rule="evenodd" d="M0,-50 l200,0 l0,93.79 l-200,0 Z M0,-50" transform="matrix(1,0,0,-1,0,150)"/>
 </clipPath>
 <g clip-path="url(#clip410)">
  <path d="M63.75,0 l14.17,0 l0,26.67 l0,20.33 c0,18.25,11.5,30.08,27.75,30.08 c13.42,0,19.75,-7.08,19.75,-22.42 l0,-28.0 l0,-26.67 l14.17,0 l0,26.67 l0,31.17 c0,21.08,-10.33,32.25,-29.42,32.25 c-16.25,0,-26.33,-8.0,-31.5,-18.75 l-1.0,0 l-2.0,16.25 l-11.92,0 l0,-24.25 l0,-36.67 Z M63.75,0" fill="rgb(0,0,0)" transform="matrix(1,0,0,-1,0,150)"/>
 </g>
 <clipPath id="clip411">
  <path clip-rule="evenodd" d="M0,43.79 l200,0 l0,200 l-200,0 Z M0,43.79" transform="matrix(1,0,0,-1,0,150)"/>
 </clipPath>
 <g clip-path="url(#clip411)">
  <path d="M63.75,0 l14.17,0 l0,26.67 l0,20.33 c0,18.25,11.5,30.08,27.75,30.08 c13.42,0,19.75,-7.08,19.75,-22.42 l0,-28.0 l0,-26.67 l14.17,0 l0,26.67 l0,31.17 c0,21.08,-10.33,32.25,-29.42,32.25 c-16.25,0,-26.33,-8.0,-31.5,-18.75 l-1.0,0 l-2.0,16.25 l-11.92,0 l0,-24.25 l0,-36.67 Z M63.75,0" fill="rgb(0,0,0)" transform="matrix(1,0,0,-1,0,150)"/>
 </g>
 <clipPath id="clip412">
  <path clip-rule="evenodd" d="M0,-50 l200,0 l0,93.79 l-200,0 Z M0,-50" transform="matrix(1,0,0,-1,0,150)"/>
 </clipPath>
 <g clip-path="url(#clip412)">
  <path d="M88.75,0 l0,4.17 c-7.08,0,-10.83,8.33,-10.83,22.5 l0,20.33 c0,20.75,11.17,34.33,26.92,34.33 c14.0,0,20.58,-8.5,20.58,-26.67 l0,-28.0 c0,-14.17,-3.75,-22.5,-10.83,-22.5 l0,-4.17 l35.83,0 l0,4.17 c-7.08,0,-10.83,8.33,-10.83,22.5 l0,31.17 c0,21.08,-10.33,32.25,-29.42,32.25 c-16.25,0,-26.33,-8.17,-31.5,-19.17 l-1.0,0 l-2.0,17.75 l-22.75,-1.08 l0,-4.17 c7.08,0,10.83,-5.92,10.83,-20.08 l0,-36.67 c0,-14.17,-3.75,-22.5,-10.83,-22.5 l0,-4.17 Z M88.75,0" fill="rgb(0,0,0)" transform="matrix(1,0,0,-1,0,150)"/>
 </g>
 <clipPath id="clip413">
  <path clip-rule="evenodd" d="M0,43.79 l200,0 l0,200 l-200,0 Z M0,43.79" transform="matrix(1,0,0,-1,0,150)"/>
 </clipPath>
 <g clip-path="url(#clip413)">
  <path d="M88.75,0 l0,4.17 c-7.08,0,-10.83,8.33,-10.83,22.5 l0,20.33 c0,20.75,11.17,34.33,26.92,34.33 c14.0,0,20.58,-8.5,20.58,-26.67 l0,-28.0 c0,-14.17,-3.75,-22.5,-10.83,-22.5 l0,-4.17 l35.83,0 l0,4.17 c-7.08,0,-10.83,8.33,-10.83,22.5 l0,31.17 c0,21.08,-10.33,32.25,-29.42,32.25 c-16.25,0,-26.33,-8.17,-31.5,-19.17 l-1.0,0 l-2.0,17.75 l-22.75,-1.08 l0,-4.17 c7.08,0,10.83,-5.92,10.83,-20.08 l0,-36.67 c0,-14.17,-3.75,-22.5,-10.83,-22.5 l0,-4.17 Z M88.75,0" fill="rgb(0,0,0)" transform="matrix(1,0,0,-1,0,150)"/>
 </g>
 <clipPath id="clip414">
  <path clip-rule="evenodd" d="M0,-50 l200,0 l0,93.79 l-200,0 Z M0,-50" transform="matrix(1,0,0,-1,0,150)"/>
 </clipPath>
 <g clip-path="url(#clip414)">
  <path d="M63.75,0 l14.17,0 l0,26.67 l0,20.33 c0,18.25,11.5,30.08,27.75,30.08 c13.42,0,19.75,-7.08,19.75,-22.42 l0,-28.0 l0,-26.67 l14.17,0 l0,26.67 l0,31.17 c0,21.08,-10.33,32.25,-29.42,32.25 c-16.25,0,-26.33,-8.0,-31.5,-18.75 l-1.0,0 l-2.0,16.25 l-11.92,0 l0,-24.25 l0,-36.67 Z M63.75,0" fill="rgb(0,0,0)" transform="matrix(1,0,0,-1,0,150)"/>
 </g>
 <clipPath id="clip415">
  <path clip-rule="evenodd" d="M0,43.79 l200,0 l0,200 l-200,0 Z M0,43.79" transform="matrix(1,0,0,-1,0,150)"/>
 </clipPath>
 <g clip-path="url(#clip415)">
  <path d="M88.75,0 l0,4.17 c-7.08,0,-10.83,8.33,-10.83,22.5 l0,20.33 c0,20.75,11.17,34.33,26.92,34.33 c14.0,0,20.58,-8.5,20.58,-26.67 l0,-28.0 c0,-14.17,-3.75,-22.5,-10.83,-22.5 l0,-4.17 l35.83,0 l0,4.17 c-7.08,0,-10.83,8.33,-10.83,22.5 l0,31.17 c0,21.08,-10.33,32.25,-29.42,32.25 c-16.25,0,-26.33,-8.17,-31.5,-19.17 l-1.0,0 l-2.0,17.75 l-22.75,-1.08 l0,-4.17 c7.08,0,10.83,-5.92,10.83,-20.08 l0,-36.67 c0,-14.17,-3.75,-22.5,-10.83,-22.5 l0,-4.17 Z M88.75,0" fill="rgb(0,0,0)" transform="matrix(1,0,0,-1,0,150)"/>
 </g>
 <clipPath id="clip416">
  <path clip-rule="evenodd" d="M0,-50 l200,0 l0,93.79 l-200,0 Z M0,-50" transform="matrix(1,0,0,-1,0,150)"/>
 </clipPath>
 <g clip-path="url(#clip416)">
  <path d="M88.75,0 l0,4.17 c-7.08,0,-10.83,8.33,-10.83,22.5 l0,20.33 c0,20.75,11.17,34.33,26.92,34.33 c14.0,0,20.58,-8.5,20.58,-26.67 l0,-28.0 c0,-14.17,-3.75,-22.5,-10.83,-22.5 l0,-4.17 l35.83,0 l0,4.17 c-7.08,0,-10.83,8.33,-10.83,22.5 l0,31.17 c0,21.08,-10.33,32.25,-29.42,32.25 c-16.25,0,-26.33,-8.17,-31.5,-19.17 l-1.0,0 l-2.0,17.75 l-22.75,-1.08 l0,-4.17 c7.08,0,10.83,-5.92,10.83,-20.08 l0,-36.67 c0,-14.17,-3.75,-22.5,-10.83,-22.5 l0,-4.17 Z M88.75,0" fill="rgb(0,0,0)" transform="matrix(1,0,0,-1,0,150)"/>
 </g>
 <clipPath id="clip417">
  <path clip-rule="evenodd" d="M0,43.79 l200,0 l0,200 l-200,0 Z M0,43.79" transform="matrix(1,0,0,-1,0,150)"/>
 </clipPath>
 <g clip-path="url(#clip417)">
  <path d="M90.67,-2.5 c15.75,0,25.17,7.92,30.67,18.75 l1.0,0 l2.0,-16.25 l11.92,0 l0,26.67 l0,60.92 l-14.17,0 l0,-24.25 l0,-22.92 c0,-18.08,-10.42,-30.08,-27.17,-30.08 c-14.08,0,-20.33,7.17,-20.33,22.33 l0,54.92 l-14.17,0 l0,-24.25 l0,-33.58 c0,-20.75,10.25,-32.25,30.25,-32.25 Z M90.67,-2.5" fill="rgb(0,0,0)" transform="matrix(1,0,0,-1,0,150)"/>
 </g>
 <clipPath id="clip418">
  <path clip-rule="evenodd" d="M0,-50 l200,0 l0,93.79 l-200,0 Z M0,-50" transform="matrix(1,0,0,-1,0,150)"/>
 </clipPath>
 <g clip-path="url(#clip418)">
  <path d="M90.67,-2.5 c15.75,0,25.17,7.92,30.67,18.75 l1.0,0 l2.0,-16.25 l11.92,0 l0,26.67 l0,60.92 l-14.17,0 l0,-24.25 l0,-22.92 c0,-18.08,-10.42,-30.08,-27.17,-30.08 c-14.08,0,-20.33,7.17,-20.33,22.33 l0,54.92 l-14.17,0 l0,-24.25 l0,-33.58 c0,-20.75,10.25,-32.25,30.25,-32.25 Z M90.67,-2.5" fill="rgb(0,0,0)" transform="matrix(1,0,0,-1,0,150)"/>
 </g>
 <clipPath id="clip419">
  <path clip-rule="evenodd" d="M0,43.79 l200,0 l0,200 l-200,0 Z M0,43.79" transform="matrix(1,0,0,-1,0,150)"/>
 </clipPath>
 <g clip-path="url(#clip419)">
  <path d="M90.67,-2.5 c15.75,0,25.17,7.92,30.67,18.75 l1.0,0 l2.0,-16.25 l11.92,0 l0,26.67 l0,60.92 l-14.17,0 l0,-24.25 l0,-22.92 c0,-18.08,-10.42,-30.08,-27.17,-30.08 c-14.08,0,-20.33,7.17,-20.33,22.33 l0,54.92 l-14.17,0 l0,-24.25 l0,-33.58 c0,-20.75,10.25,-32.25,30.25,-32.25 Z M90.67,-2.5" fill="rgb(0,0,0)" transform="matrix(1,0,0,-1,0,150)"/>
 </g>
 <clipPath id="clip420">
  <path clip-rule="evenodd" d="M0,-50 l200,0 l0,93.79 l-200,0 Z M0,-50" transform="matrix(1,0,0,-1,0,150)"/>
 </clipPath>
 <g clip-path="url(#clip420)">
  <path d="M90.33,-2.5 c15.5,0,25.75,8.08,31.0,19.17 l1.0,0 l2.0,-17.83 l22.75,1.08 l0,4.17 c-7.08,0,-10.83,6.67,-10.83,22.58 l0,62.0 l-25.0,-1.08 l0,-4.17 c7.08,0,10.83,-5.92,10.83,-20.08 l0,-24.92 c0,-17.08,-10.42,-32.25,-27.17,-32.25 c-14.08,0,-20.33,8.5,-20.33,26.5 l0,56.0 l-25.0,-1.08 l0,-4.17 c7.08,0,10.83,-5.92,10.83,-20.08 l0,-33.58 c0,-20.75,10.17,-32.25,29.92,-32.25 Z M90.33,-2.5" fill="rgb(0,0,0)" transform="matrix(1,0,0,-1,0,150)"/>
 </g>
 <clipPath id="clip421">
  <path clip-rule="evenodd" d="M0,43.79 l200,0 l0,200 l-200,0 Z M0,43.79" transform="matrix(1,0,0,-1,0,150)"/>
 </clipPath>
 <g clip-path="url(#clip421)">
  <path d="M90.33,-2.5 c15.5,0,25.75,8.08,31.0,19.17 l1.0,0 l2.0,-17.83 l22.75,1.08 l0,4.17 c-7.08,0,-10.83,6.67,-10.83,22.58 l0,62.0 l-25.0,-1.08 l0,-4.17 c7.08,0,10.83,-5.92,10.83,-20.08 l0,-24.92 c0,-17.08,-10.42,-32.25,-27.17,-32.25 c-14.08,0,-20.33,8.5,-20.33,26.5 l0,56.0 l-25.0,-1.08 l0,-4.17 c7.08,0,10.83,-5.92,10.83,-20.08 l0,-33.58 c0,-20.75,10.17,-32.25,29.92,-32.25 Z M90.33,-2.5" fill="rgb(0,0,0)" transform="matrix(1,0,0,-1,0,150)"/>
 </g>
 <clipPath id="clip422">
  <path clip-rule="evenodd" d="M0,-50 l200,0 l0,93.79 l-200,0 Z M0,-50" transform="matrix(1,0,0,-1,0,150)"/>
 </clipPath>
 <g clip-path="url(#clip422)">
  <path d="M90.67,-2.5 c15.75,0,25.17,7.92,30.67,18.75 l1.0,0 l2.0,-16.25 l11.92,0 l0,26.67 l0,60.92 l-14.17,0 l0,-24.25 l0,-22.92 c0,-18.08,-10.42,-30.08,-27.17,-30.08 c-14.08,0,-20.33,7.17,-20.33,22.33 l0,54.92 l-14.17,0 l0,-24.25 l0,-33.58 c0,-20.75,10.25,-32.25,30.25,-32.25 Z M90.67,-2.5" fill="rgb(0,0,0)" transform="matrix(1,0,0,-1,0,150)"/>
 </g>
 <clipPath id="clip423">
  <path clip-rule="evenodd" d="M0,43.79 l200,0 l0,200 l-200,0 Z M0,43.79" transform="matrix(1,0,0,-1,0,150)"/>
 </clipPath>
 <g clip-path="url(#clip423)">
  <path d="M90.33,-2.5 c15.5,0,25.75,8.08,31.0,19.17 l1.0,0 l2.0,-17.83 l22.75,1.08 l0,4.17 c-7.08,0,-10.83,6.67,-10.83,22.58 l0,62.0 l-25.0,-1.08 l0,-4.17 c7.08,0,10.83,-5.92,10.83,-20.08 l0,-24.92 c0,-17.08,-10.42,-32.25,-27.17,-32.25 c-14.08,0,-20.33,8.5,-20.33,26.5 l0,56.0 l-25.0,-1.08 l0,-4.17 c7.08,0,10.83,-5.92,10.83,-20.08 l0,-33.58 c0,-20.75,10.17,-32.25,29.92,-32.25 Z M90.33,-2.5" fill="rgb(0,0,0)" transform="matrix(1,0,0,-1,0,150)"/>
 </g>
 <clipPath id="clip424">
  <path clip-rule="evenodd" d="M0,-50 l200,0 l0,93.79 l-200,0 Z M0,-50" transform="matrix(1,0,0,-1,0,150)"/>
 </clipPath>
 <g clip-path="url(#clip424)">
  <path d="M90.33,-2.5 c15.5,0,25.75,8.08,31.0,19.17 l1.0,0 l2.0,-17.83 l22.75,1.08 l0,4.17 c-7.08,0,-10.83,6.67,-10.83,22.58 l0,62.0 l-25.0,-1.08 l0,-4.17 c7.08,0,10.83,-5.92,10.83,-20.08 l0,-24.92 c0,-17.08,-10.42,-32.25,-27.17,-32.25 c-14.08,0,-20.33,8.5,-20.33,26.5 l0,56.0 l-25.0,-1.08 l0,-4.17 c7.08,0,10.83,-5.92,10.83,-20.08 l0,-33.58 c0,-20.75,10.17,-32.25,29.92,-32.25 Z M90.33,-2.5" fill="rgb(0,0,0)" transform="matrix(1,0,0,-1,0,150)"/>
 </g>
 <clipPath id="clip425">
  <path clip-rule="evenodd" d="M0,43.79 l200,0 l0,200 l-200,0 Z M0,43.79" transform="matrix(1,0,0,-1,0,150)"/>
 </clipPath>
 <g clip-path="url(#clip425)">
  <path d="M108.0,0 l26.17,63.33 c3.33,8.08,6.58,16.17,9.92,24.25 l-14.33,0 l-9.5,-24.25 l-19.17,-48.75 l-1.0,0 l-19.33,48.75 c-3.17,8.08,-6.42,16.17,-9.58,24.25 l-15.25,0 l10.0,-24.25 l26.08,-63.33 Z M108.0,0" fill="rgb(0,0,0)" transform="matrix(1,0,0,-1,0,150)"/>
 </g>
 <clipPath id="clip426">
  <path clip-rule="evenodd" d="M0,-50 l200,0 l0,93.79 l-200,0 Z M0,-50" transform="matrix(1,0,0,-1,0,150)"/>
 </clipPath>
 <g clip-path="url(#clip426)">
  <path d="M108.0,0 l26.17,63.33 c3.33,8.08,6.58,16.17,9.92,24.25 l-14.33,0 l-9.5,-24.25 l-19.17,-48.75 l-1.0,0 l-19.33,48.75 c-3.17,8.08,-6.42,16.17,-9.58,24.25 l-15.25,0 l10.0,-24.25 l26.08,-63.33 Z M108.0,0" fill="rgb(0,0,0)" transform="matrix(1,0,0,-1,0,150)"/>
 </g>
 <clipPath id="clip427">
  <path clip-rule="evenodd" d="M0,43.79 l200,0 l0,200 l-200,0 Z M0,43.79" transform="matrix(1,0,0,-1,0,150)"/>
 </clipPath>
 <g clip-path="url(#clip427)">
  <path d="M108.0,0 l26.17,63.33 c3.33,8.08,6.58,16.17,9.92,24.25 l-14.33,0 l-9.5,-24.25 l-19.17,-48.75 l-1.0,0 l-19.33,48.75 c-3.17,8.08,-6.42,16.17,-9.58,24.25 l-15.25,0 l10.0,-24.25 l26.08,-63.33 Z M108.0,0" fill="rgb(0,0,0)" transform="matrix(1,0,0,-1,0,150)"/>
 </g>
 <clipPath id="clip428">
  <path clip-rule="evenodd" d="M0,-50 l200,0 l0,93.79 l-200,0 Z M0,-50" transform="matrix(1,0,0,-1,0,150)"/>
 </clipPath>
 <g clip-path="url(#clip428)">
  <path d="M108.0,0 l26.08,63.33 c5.17,12.58,8.42,20.08,15.5,20.08 l0,4.17 l-35.83,0 l0,-4.17 c7.08,0,11.5,-7.33,6.5,-20.08 l-19.17,-48.75 l-1.0,0 l-19.33,48.75 c-5.33,12.58,-0.75,20.08,6.33,20.08 l0,4.17 l-35.83,0 l0,-4.17 c7.08,0,9.75,-7.5,14.67,-20.08 l26.08,-63.33 Z M108.0,0" fill="rgb(0,0,0)" transform="matrix(1,0,0,-1,0,150)"/>
 </g>
 <clipPath id="clip429">
  <path clip-rule="evenodd" d="M0,43.79 l200,0 l0,200 l-200,0 Z M0,43.79" transform="matrix(1,0,0,-1,0,150)"/>
 </clipPath>
 <g clip-path="url(#clip429)">
  <path d="M108.0,0 l26.08,63.33 c5.17,12.58,8.42,20.08,15.5,20.08 l0,4.17 l-35.83,0 l0,-4.17 c7.08,0,11.5,-7.33,6.5,-20.08 l-19.17,-48.75 l-1.0,0 l-19.33,48.75 c-5.33,12.58,-0.75,20.08,6.33,20.08 l0,4.17 l-35.83,0 l0,-4.17 c7.08,0,9.75,-7.5,14.67,-20.08 l26.08,-63.33 Z M108.0,0" fill="rgb(0,0,0)" transform="matrix(1,0,0,-1,0,150)"/>
 </g>
 <clipPath id="clip430">
  <path clip-rule="evenodd" d="M0,-50 l200,0 l0,93.79 l-200,0 Z M0,-50" transform="matrix(1,0,0,-1,0,150)"/>
 </clipPath>
 <g clip-path="url(#clip430)">
  <path d="M108.0,0 l26.17,63.33 c3.33,8.08,6.58,16.17,9.92,24.25 l-14.33,0 l-9.5,-24.25 l-19.17,-48.75 l-1.0,0 l-19.33,48.75 c-3.17,8.08,-6.42,16.17,-9.58,24.25 l-15.25,0 l10.0,-24.25 l26.08,-63.33 Z M108.0,0" fill="rgb(0,0,0)" transform="matrix(1,0,0,-1,0,150)"/>
 </g>
 <clipPath id="clip431">
  <path clip-rule="evenodd" d="M0,43.79 l200,0 l0,200 l-200,0 Z M0,43.79" transform="matrix(1,0,0,-1,0,150)"/>
 </clipPath>
 <g clip-path="url(#clip431)">
  <path d="M108.0,0 l26.08,63.33 c5.17,12.58,8.42,20.08,15.5,20.08 l0,4.17 l-35.83,0 l0,-4.17 c7.08,0,11.5,-7.33,6.5,-20.08 l-19.17,-48.75 l-1.0,0 l-19.33,48.75 c-5.33,12.58,-0.75,20.08,6.33,20.08 l0,4.17 l-35.83,0 l0,-4.17 c7.08,0,9.75,-7.5,14.67,-20.08 l26.08,-63.33 Z M108.0,0" fill="rgb(0,0,0)" transform="matrix(1,0,0,-1,0,150)"/>
 </g>
 <clipPath id="clip432">
  <path clip-rule="evenodd" d="M0,-50 l200,0 l0,93.79 l-200,0 Z M0,-50" transform="matrix(1,0,0,-1,0,150)"/>
 </clipPath>
 <g clip-path="url(#clip432)">
  <path d="M108.0,0 l26.08,63.33 c5.17,12.58,8.42,20.08,15.5,20.08 l0,4.17 l-35.83,0 l0,-4.17 c7.08,0,11.5,-7.33,6.5,-20.08 l-19.17,-48.75 l-1.0,0 l-19.33,48.75 c-5.33,12.58,-0.75,20.08,6.33,20.08 l0,4.17 l-35.83,0 l0,-4.17 c7.08,0,9.75,-7.5,14.67,-20.08 l26.08,-63.33 Z M108.0,0" fill="rgb(0,0,0)" transform="matrix(1,0,0,-1,0,150)"/>
 </g>
</svg>