<?xml version="1.0" encoding="UTF-8"?>
<svg width="200" height="200" viewBox="0 0 200 200" version="1.1" xmlns="http://www.w3.org/2000/svg" xmlns:xlink="http://www.w3.org/1999/xlink">
 <path d="M0,0 l200,0 l0,200 l-200,0 Z M0,0" fill="rgb(255,255,255)" transform="matrix(1,0,0,-1,0,200)"/>
 <clipPath id="clip335">
  <path clip-rule="evenodd" d="M0,43.79 l200,0 l0,200 l-200,0 Z M0,43.79" transform="matrix(1,0,0,-1,0,150)"/>
 </clipPath>
 <g clip-path="url(#clip335)">
  <path d="M82.25,0 l0,1.67 c-2.83,5.33,-4.33,14.0,-4.33,25.0 l0,20.33 c0,19.25,10.67,31.75,27.42,31.75 c13.67,0,20.08,-7.58,20.08,-24.08 l0,-28.0 c0,-11.0,-1.5,-19.67,-4.33,-25.0 l0,-1.67 l22.83,0 l0,1.67 c-2.83,5.33,-4.33,14.0,-4.33,25.0 l0,31.17 c0,21.08,-10.33,32.25,-29.42,32.25 c-16.25,0,-26.33,-8.75,-31.5,-20.58 l-1.0,0 l-2.0,18.5 l-16.25,-0.42 l0,-1.67 c2.83,-4.83,4.33,-12.08,4.33,-22.58 l0,-36.67 c0,-11.0,-1.5,-19.67,-4.33,-25.0 l0,-1.67 Z M82.25,0" fill="rgb(0,0,0)" transform="matrix(1,0,0,-1,0,150)"/>
 </g>
 <clipPath id="clip336">
  <path clip-rule="evenodd" d="M0,-50 l200,0 l0,93.79 l-200,0 Z M0,-50" transform="matrix(1,0,0,-1,0,150)"/>
 </clipPath>
 <g clip-path="url(#clip336)">
  <path d="M88.75,0 l0,4.17 c-7.08,0,-10.83,8.33,-10.83,22.5 l0,20.33 c0,20.75,9.5,34.33,26.92,34.33 c14.0,0,20.58,-8.5,20.58,-26.67 l0,-28.0 c0,-14.17,-3.75,-22.5,-10.83,-22.5 l0,-4.17 l35.83,0 l0,4.17 c-7.08,0,-10.83,8.33,-10.83,22.5 l0,31.17 c0,21.08,-10.33,32.25,-29.42,32.25 c-16.25,0,-26.33,-9.92,-31.5,-23.33 l-1.0,0 l-2.0,21.92 l-22.75,-1.08 l0,-4.17 c7.08,0,10.83,-5.92,10.83,-20.08 l0,-36.67 c0,-14.17,-3.75,-22.5,-10.83,-22.5 l0,-4.17 Z M88.75,0" fill="rgb(0,0,0)" transform="matrix(1,0,0,-1,0,150)"/>
 </g>
 <path d="M0,43.79 l200,0" fill="none" stroke="rgb(255,0,0)" stroke-width="1" transform="matrix(1,0,0,-1,0,150)"/>
</svg>