<?xml version="1.0" encoding="UTF-8"?>
<svg width="200" height="200" viewBox="0 0 200 200" version="1.1" xmlns="http://www.w3.org/2000/svg" xmlns:xlink="http://www.w3.org/1999/xlink">
 <path d="M0,0 l200,0 l0,200 l-200,0 Z M0,0" fill="rgb(255,255,255)" transform="matrix(1,0,0,-1,0,200)"/>
 <clipPath id="clip337">
  <path clip-rule="evenodd" d="M0,43.79 l200,0 l0,200 l-200,0 Z M0,43.79" transform="matrix(1,0,0,-1,0,150)"/>
 </clipPath>
 <g clip-path="url(#clip337)">
  <path d="M58.33,2.08 l0,-2.08 l25.0,0 l0,2.08 c-3.5,4.5,-5.42,13.08,-5.42,24.58 l0,20.33 c0,19.5,10.5,32.25,27.33,32.25 c13.75,0,20.17,-7.83,20.17,-24.58 l0,-28.0 c0,-11.5,-1.83,-20.08,-5.42,-24.58 l0,-2.08 l25.0,0 l0,2.08 c-3.5,4.5,-5.42,13.08,-5.42,24.58 l0,31.17 c0,21.08,-10.33,32.25,-29.42,32.25 c-16.25,0,-26.33,-8.92,-31.5,-21.0 l-1.0,0 l-2.0,19.08 l-17.33,-0.58 l0,-2.08 c3.58,-4.0,5.42,-11.0,5.42,-22.17 l0,-36.67 c0,-11.5,-1.83,-20.08,-5.42,-24.58 Z M58.33,2.08" fill="rgb(0,0,0)" transform="matrix(1,0,0,-1,0,150)"/>
 </g>
 <clipPath id="clip338">
  <path clip-rule="evenodd" d="M0,-50 l200,0 l0,93.79 l-200,0 Z M0,-50" transform="matrix(1,0,0,-1,0,150)"/>
 </clipPath>
 <g clip-path="url(#clip338)">
  <path d="M63.75,0 l14.17,0 l0,26.67 l0,20.33 c0,18.25,11.5,30.08,27.75,30.08 c13.42,0,19.75,-7.08,19.75,-22.42 l0,-28.0 l0,-26.67 l14.17,0 l0,26.67 l0,31.17 c0,21.08,-10.33,32.25,-29.42,32.25 c-16.25,0,-26.33,-8.0,-31.5,-18.75 l-1.0,0 l-2.0,16.25 l-11.92,0 l0,-24.25 l0,-36.67 Z M63.75,0" fill="rgb(0,0,0)" transform="matrix(1,0,0,-1,0,150)"/>
 </g>
 <path d="M0,43.79 l200,0" fill="none" stroke="rgb(255,0,0)" stroke-width="1" transform="matrix(1,0,0,-1,0,150)"/>
</svg>