<?xml version="1.0" encoding="UTF-8"?>
<svg width="200" height="200" viewBox="0 0 200 200" version="1.1" xmlns="http://www.w3.org/2000/svg" xmlns:xlink="http://www.w3.org/1999/xlink">
 <path d="M0,0 l200,0 l0,200 l-200,0 Z M0,0" fill="rgb(255,255,255)" transform="matrix(1,0,0,-1,0,200)"/>
 <clipPath id="clip415">
  <path clip-rule="evenodd" d="M0,43.79 l200,0 l0,200 l-200,0 Z M0,43.79" transform="matrix(1,0,0,-1,0,150)"/>
 </clipPath>
 <g clip-path="url(#clip415)">
  <path d="M84.42,0 l0,2.5 c-4.25,3.58,-6.5,12.08,-6.5,24.17 l0,20.33 c0,19.75,11.33,32.67,27.25,32.67 c13.75,0,20.25,-8.0,20.25,-25.0 l0,-28.0 c0,-12.08,-2.25,-20.58,-6.5,-24.17 l0,-2.5 l27.17,0 l0,2.5 c-4.25,3.58,-6.5,12.08,-6.5,24.17 l0,31.17 c0,21.08,-10.33,32.25,-29.42,32.25 c-16.25,0,-26.33,-8.08,-31.5,-19.0 l-1.0,0 l-2.0,17.17 l-18.42,-0.67 l0,-2.5 c4.25,-3.25,6.5,-10.0,6.5,-21.75 l0,-36.67 c0,-12.08,-2.25,-20.58,-6.5,-24.17 l0,-2.5 Z M84.42,0" fill="rgb(0,0,0)" transform="matrix(1,0,0,-1,0,150)"/>
 </g>
 <clipPath id="clip416">
  <path clip-rule="evenodd" d="M0,-50 l200,0 l0,93.79 l-200,0 Z M0,-50" transform="matrix(1,0,0,-1,0,150)"/>
 </clipPath>
 <g clip-path="url(#clip416)">
  <path d="M82.25,0 l0,1.67 c-2.83,5.33,-4.33,14.0,-4.33,25.0 l0,20.33 c0,19.25,11.33,31.75,27.42,31.75 c13.67,0,20.08,-7.58,20.08,-24.08 l0,-28.0 c0,-11.0,-1.5,-19.67,-4.33,-25.0 l0,-1.67 l22.83,0 l0,1.67 c-2.83,5.33,-4.33,14.0,-4.33,25.0 l0,31.17 c0,21.08,-10.33,32.25,-29.42,32.25 c-16.25,0,-26.33,-8.08,-31.5,-18.92 l-1.0,0 l-2.0,16.83 l-16.25,-0.42 l0,-1.67 c2.83,-4.83,4.33,-12.08,4.33,-22.58 l0,-36.67 c0,-11.0,-1.5,-19.67,-4.33,-25.0 l0,-1.67 Z M82.25,0" fill="rgb(0,0,0)" transform="matrix(1,0,0,-1,0,150)"/>
 </g>
 <path d="M0,43.79 l200,0" fill="none" stroke="rgb(255,0,0)" stroke-width="1" transform="matrix(1,0,0,-1,0,150)"/>
</svg>