<?xml version="1.0" encoding="UTF-8"?>
<svg width="200" height="200" viewBox="0 0 200 200" version="1.1" xmlns="http://www.w3.org/2000/svg" xmlns:xlink="http://www.w3.org/1999/xlink">
 <path d="M0,0 l200,0 l0,200 l-200,0 Z M0,0" fill="rgb(255,255,255)" transform="matrix(1,0,0,-1,0,200)"/>
 <clipPath id="clip151">
  <path clip-rule="evenodd" d="M0,43.79 l200,0 l0,200 l-200,0 Z M0,43.79" transform="matrix(1,0,0,-1,0,150)"/>
 </clipPath>
 <g clip-path="url(#clip151)">
  <path d="M84.42,0 l0,2.5 c-4.25,3.58,-6.5,12.08,-6.5,24.17 l0,20.33 c0,19.75,11.33,32.67,27.25,32.67 c13.75,0,20.25,-8.0,20.25,-25.0 l0,-28.0 c0,-12.08,-2.25,-20.58,-6.5,-24.17 l0,-2.5 l27.17,0 l0,2.5 c-4.25,3.58,-6.5,12.08,-6.5,24.17 l0,31.17 c0,21.08,-10.33,32.25,-29.42,32.25 c-16.25,0,-26.33,-8.08,-31.5,-19.0 l-1.0,0 l-2.0,17.17 l-18.42,-0.67 l0,-2.5 c4.25,-3.25,6.5,-10.0,6.5,-21.75 l0,-36.67 c0,-12.08,-2.25,-20.58,-6.5,-24.17 l0,-2.5 Z M84.42,0" fill="rgb(0,0,0)" transform="matrix(1,0,0,-1,0,150)"/>
 </g>
 <clipPath id="clip152">
  <path clip-rule="evenodd" d="M0,-50 l200,0 l0,93.79 l-200,0 Z M0,-50" transform="matrix(1,0,0,-1,0,150)"/>
 </clipPath>
 <g clip-path="url(#clip152)">
  <path d="M88.75,0 l0,4.17 c-7.08,0,-10.83,8.33,-10.83,22.5 l0,20.33 c0,20.75,11.17,34.33,26.92,34.33 c14.0,0,20.58,-8.5,20.58,-26.67 l0,-28.0 c0,-14.17,-3.75,-22.5,-10.83,-22.5 l0,-4.17 l35.83,0 l0,4.17 c-7.08,0,-10.83,8.33,-10.83,22.5 l0,31.17 c0,21.08,-10.33,32.25,-29.42,32.25 c-16.25,0,-26.33,-8.17,-31.5,-19.17 l-1.0,0 l-2.0,17.75 l-22.75,-1.08 l0,-4.17 c7.08,0,10.83,-5.92,10.83,-20.08 l0,-36.67 c0,-14.17,-3.75,-22.5,-10.83,-22.5 l0,-4.17 Z M88.75,0" fill="rgb(0,0,0)" transform="matrix(1,0,0,-1,0,150)"/>
 </g>
 <path d="M0,43.79 l200,0" fill="none" stroke="rgb(255,0,0)" stroke-width="1" transform="matrix(1,0,0,-1,0,150)"/>
</svg>