<?xml version="1.0" encoding="UTF-8"?>
<svg width="200" height="200" viewBox="0 0 200 200" version="1.1" xmlns="http://www.w3.org/2000/svg" xmlns:xlink="http://www.w3.org/1999/xlink">
 <path d="M0,0 l200,0 l0,200 l-200,0 Z M0,0" fill="rgb(255,255,255)" transform="matrix(1,0,0,-1,0,200)"/>
 <clipPath id="clip441">
  <path clip-rule="evenodd" d="M0,43.79 l200,0 l0,200 l-200,0 Z M0,43.79" transform="matrix(1,0,0,-1,0,150)"/>
 </clipPath>
 <g clip-path="url(#clip441)">
  <path d="M95.42,0 l0,11.58 l-17.5,0 l0,35.42 c0,18.25,11.5,30.08,27.75,30.08 c13.42,0,19.75,-7.08,19.75,-22.42 l0,-43.08 l-17.5,0 l0,-11.58 l48.33,0 l0,11.58 l-16.67,0 l0,46.25 c0,21.08,-10.33,32.25,-29.42,32.25 c-16.25,0,-26.33,-8.0,-31.5,-18.75 l-1.0,0 l-2.0,16.25 l-28.58,0 l0,-11.58 l16.67,0 l0,-64.42 l-16.67,0 l0,-11.58 Z M95.42,0" fill="rgb(0,0,0)" transform="matrix(1,0,0,-1,0,150)"/>
 </g>
 <clipPath id="clip442">
  <path clip-rule="evenodd" d="M0,-50 l200,0 l0,93.79 l-200,0 Z M0,-50" transform="matrix(1,0,0,-1,0,150)"/>
 </clipPath>
 <g clip-path="url(#clip442)">
  <path d="M95.42,0 l0,11.58 l-17.5,0 l0,35.42 c0,18.25,11.5,30.08,27.75,30.08 c13.42,0,19.75,-7.08,19.75,-22.42 l0,-43.08 l-17.5,0 l0,-11.58 l48.33,0 l0,11.58 l-16.67,0 l0,46.25 c0,21.08,-10.33,32.25,-29.42,32.25 c-16.25,0,-26.33,-8.0,-31.5,-18.75 l-1.0,0 l-2.0,16.25 l-28.58,0 l0,-11.58 l16.67,0 l0,-64.42 l-16.67,0 l0,-11.58 Z M95.42,0" fill="rgb(0,0,0)" transform="matrix(1,0,0,-1,0,150)"/>
 </g>
 <path d="M0,43.79 l200,0" fill="none" stroke="rgb(255,0,0)" stroke-width="1" transform="matrix(1,0,0,-1,0,150)"/>
</svg>