<?xml version="1.0" encoding="UTF-8"?>
<svg width="200" height="200" viewBox="0 0 200 200" version="1.1" xmlns="http://www.w3.org/2000/svg" xmlns:xlink="http://www.w3.org/1999/xlink">
 <path d="M0,0 l200,0 l0,200 l-200,0 Z M0,0" fill="rgb(255,255,255)" transform="matrix(1,0,0,-1,0,200)"/>
 <clipPath id="clip369">
  <path clip-rule="evenodd" d="M0,43.79 l200,0 l0,200 l-200,0 Z M0,43.79" transform="matrix(1,0,0,-1,0,150)"/>
 </clipPath>
 <g clip-path="url(#clip369)">
  <path d="M100.0,-2.5 c27.75,0,42.83,16.67,42.83,46.33 c0,29.67,-15.08,46.25,-42.83,46.25 c-27.75,0,-42.83,-16.58,-42.83,-46.25 c0,-29.67,15.08,-46.33,42.83,-46.33 Z M100.0,4.33 c-19.83,0,-28.25,12.58,-28.25,39.5 c0,26.92,8.42,39.33,28.25,39.33 c19.83,0,28.25,-12.42,28.25,-39.33 c0,-26.92,-8.42,-39.5,-28.25,-39.5 Z M100.0,4.33" fill="rgb(0,0,0)" transform="matrix(1,0,0,-1,0,150)"/>
 </g>
 <clipPath id="clip370">
  <path clip-rule="evenodd" d="M0,-50 l200,0 l0,93.79 l-200,0 Z M0,-50" transform="matrix(1,0,0,-1,0,150)"/>
 </clipPath>
 <g clip-path="url(#clip370)">
  <path d="M100.0,-2.5 c27.75,0,42.83,16.67,42.83,46.33 c0,29.67,-15.08,46.25,-42.83,46.25 c-27.75,0,-42.83,-16.58,-42.83,-46.25 c0,-29.67,15.08,-46.33,42.83,-46.33 Z M100.0,9.33 c-19.83,0,-28.25,11.0,-28.25,34.5 c0,23.5,8.42,34.33,28.25,34.33 c19.83,0,28.25,-10.83,28.25,-34.33 c0,-23.5,-8.42,-34.5,-28.25,-34.5 Z M100.0,9.33" fill="rgb(0,0,0)" transform="matrix(1,0,0,-1,0,150)"/>
 </g>
 <path d="M0,43.79 l200,0" fill="none" stroke="rgb(255,0,0)" stroke-width="1" transform="matrix(1,0,0,-1,0,150)"/>
</svg>