<?xml version="1.0" encoding="UTF-8"?>
<svg width="200" height="200" viewBox="0 0 200 200" version="1.1" xmlns="http://www.w3.org/2000/svg" xmlns:xlink="http://www.w3.org/1999/xlink">
 <path d="M0,0 l200,0 l0,200 l-200,0 Z M0,0" fill="rgb(255,255,255)" transform="matrix(1,0,0,-1,0,200)"/>
 <clipPath id="clip379">
  <path clip-rule="evenodd" d="M0,43.79 l200,0 l0,200 l-200,0 Z M0,43.79" transform="matrix(1,0,0,-1,0,150)"/>
 </clipPath>
 <g clip-path="url(#clip379)">
  <path d="M100.0,-2.5 c27.75,0,42.83,16.67,42.83,46.33 c0,29.67,-15.08,46.25,-42.83,46.25 c-27.75,0,-42.83,-16.58,-42.83,-46.25 c0,-29.67,15.08,-46.33,42.83,-46.33 Z M100.0,1.0 c-19.83,0,-28.25,13.58,-28.25,42.83 c0,29.25,8.42,42.67,28.25,42.67 c19.83,0,28.25,-13.42,28.25,-42.67 c0,-29.25,-8.42,-42.83,-28.25,-42.83 Z M100.0,1.0" fill="rgb(0,0,0)" transform="matrix(1,0,0,-1,0,150)"/>
 </g>
 <clipPath id="clip380">
  <path clip-rule="evenodd" d="M0,-50 l200,0 l0,93.79 l-200,0 Z M0,-50" transform="matrix(1,0,0,-1,0,150)"/>
 </clipPath>
 <g clip-path="url(#clip380)">
  <path d="M100.0,-2.5 c27.75,0,42.83,16.67,42.83,46.33 c0,29.67,-15.08,46.25,-42.83,46.25 c-27.75,0,-42.83,-16.58,-42.83,-46.25 c0,-29.67,15.08,-46.33,42.83,-46.33 Z M100.0,6.0 c-19.83,0,-28.25,12.0,-28.25,37.83 c0,25.83,8.42,37.67,28.25,37.67 c19.83,0,28.25,-11.83,28.25,-37.67 c0,-25.83,-8.42,-37.83,-28.25,-37.83 Z M100.0,6.0" fill="rgb(0,0,0)" transform="matrix(1,0,0,-1,0,150)"/>
 </g>
 <path d="M0,43.79 l200,0" fill="none" stroke="rgb(255,0,0)" stroke-width="1" transform="matrix(1,0,0,-1,0,150)"/>
</svg>