<?xml version="1.0" encoding="UTF-8"?>
<svg width="200" height="200" viewBox="0 0 200 200" version="1.1" xmlns="http://www.w3.org/2000/svg" xmlns:xlink="http://www.w3.org/1999/xlink">
 <path d="M0,0 l200,0 l0,200 l-200,0 Z M0,0" fill="rgb(255,255,255)" transform="matrix(1,0,0,-1,0,200)"/>
 <clipPath id="clip391">
  <path clip-rule="evenodd" d="M0,43.79 l200,0 l0,200 l-200,0 Z M0,43.79" transform="matrix(1,0,0,-1,0,150)"/>
 </clipPath>
 <g clip-path="url(#clip391)">
  <path d="M108.5,-2.5 c26.5,0,38.83,17.17,38.83,46.33 c0,29.0,-12.33,46.25,-38.58,46.25 c-17.17,0,-26.58,-7.75,-31.75,-18.42 l-1.08,0 l-2.0,16.25 l-11.92,0 l0,-24.25 l0,-70.17 l0,-26.67 l14.17,0 l0,26.67 l0,21.17 l0.75,0 c5.08,-10.17,14.42,-17.17,31.58,-17.17 Z M75.67,43.83 c0,19.08,8.75,34.08,28.5,34.08 c20.83,0,28.67,-11.08,28.67,-34.08 c0,-23.08,-7.83,-34.17,-28.67,-34.17 c-19.75,0,-28.5,15.0,-28.5,34.17 Z M75.67,43.83" fill="rgb(0,0,0)" transform="matrix(1,0,0,-1,0,150)"/>
 </g>
 <clipPath id="clip392">
  <path clip-rule="evenodd" d="M0,-50 l200,0 l0,93.79 l-200,0 Z M0,-50" transform="matrix(1,0,0,-1,0,150)"/>
 </clipPath>
 <g clip-path="url(#clip392)">
  <path d="M108.5,-2.5 c26.5,0,38.83,17.17,38.83,46.33 c0,29.0,-12.33,46.25,-38.58,46.25 c-17.17,0,-26.58,-9.0,-31.75,-22.08 l-1.0,0 l-2.0,20.5 l-20.08,-0.83 l0,-3.08 c5.33,-2.08,8.17,-8.5,8.17,-21.17 l0,-69.92 c0,-12.83,-2.83,-21.33,-8.17,-23.5 l0,-3.17 l34.83,0 l0,3.17 c-8.17,2.17,-12.5,10.67,-12.5,23.5 l0,24.33 l0.75,0 c5.08,-12.08,14.33,-20.33,31.5,-20.33 Z M75.67,43.83 c0,20.83,8.75,37.25,28.5,37.25 c20.83,0,28.67,-12.08,28.67,-37.25 c0,-25.17,-7.83,-37.25,-28.67,-37.25 c-19.75,0,-28.5,16.33,-28.5,37.25 Z M75.67,43.83" fill="rgb(0,0,0)" transform="matrix(1,0,0,-1,0,150)"/>
 </g>
 <path d="M0,43.79 l200,0" fill="none" stroke="rgb(255,0,0)" stroke-width="1" transform="matrix(1,0,0,-1,0,150)"/>
</svg>