<?xml version="1.0" encoding="UTF-8"?>
<svg width="200" height="200" viewBox="0 0 200 200" version="1.1" xmlns="http://www.w3.org/2000/svg" xmlns:xlink="http://www.w3.org/1999/xlink">
 <path d="M0,0 l200,0 l0,200 l-200,0 Z M0,0" fill="rgb(255,255,255)" transform="matrix(1,0,0,-1,0,200)"/>
 <clipPath id="clip399">
  <path clip-rule="evenodd" d="M0,43.79 l200,0 l0,200 l-200,0 Z M0,43.79" transform="matrix(1,0,0,-1,0,150)"/>
 </clipPath>
 <g clip-path="url(#clip399)">
  <path d="M108.5,-2.5 c26.5,0,38.83,17.17,38.83,46.33 c0,29.0,-12.33,46.25,-38.58,46.25 c-17.17,0,-26.58,-8.17,-31.75,-19.67 l-1.08,0 l-2.0,17.67 l-14.58,-0.25 l0,-1.0 c1.75,-6.08,2.67,-13.67,2.67,-23.25 l0,-70.08 c0,-10.25,-0.92,-18.92,-2.67,-25.58 l0,-1.08 l21.0,0 l0,1.08 c-2.67,6.67,-4.17,15.33,-4.17,25.58 l0,22.25 l0.75,0 c5.08,-10.83,14.42,-18.25,31.58,-18.25 Z M75.67,43.83 c0,19.67,8.75,35.17,28.5,35.17 c20.83,0,28.67,-11.42,28.67,-35.17 c0,-23.75,-7.83,-35.17,-28.67,-35.17 c-19.75,0,-28.5,15.42,-28.5,35.17 Z M75.67,43.83" fill="rgb(0,0,0)" transform="matrix(1,0,0,-1,0,150)"/>
 </g>
 <clipPath id="clip400">
  <path clip-rule="evenodd" d="M0,-50 l200,0 l0,93.79 l-200,0 Z M0,-50" transform="matrix(1,0,0,-1,0,150)"/>
 </clipPath>
 <g clip-path="url(#clip400)">
  <path d="M108.5,-2.5 c26.5,0,38.83,17.17,38.83,46.33 c0,29.0,-12.33,46.25,-38.58,46.25 c-17.17,0,-26.58,-9.0,-31.75,-22.08 l-1.0,0 l-2.0,20.5 l-20.08,-0.83 l0,-3.08 c5.33,-2.08,8.17,-8.5,8.17,-21.17 l0,-69.92 c0,-12.83,-2.83,-21.33,-8.17,-23.5 l0,-3.17 l34.83,0 l0,3.17 c-8.17,2.17,-12.5,10.67,-12.5,23.5 l0,24.33 l0.75,0 c5.08,-12.08,14.33,-20.33,31.5,-20.33 Z M75.67,43.83 c0,20.83,8.75,37.25,28.5,37.25 c20.83,0,28.67,-12.08,28.67,-37.25 c0,-25.17,-7.83,-37.25,-28.67,-37.25 c-19.75,0,-28.5,16.33,-28.5,37.25 Z M75.67,43.83" fill="rgb(0,0,0)" transform="matrix(1,0,0,-1,0,150)"/>
 </g>
 <path d="M0,43.79 l200,0" fill="none" stroke="rgb(255,0,0)" stroke-width="1" transform="matrix(1,0,0,-1,0,150)"/>
</svg>