<?xml version="1.0" encoding="UTF-8"?>
<svg width="200" height="200" viewBox="0 0 200 200" version="1.1" xmlns="http://www.w3.org/2000/svg" xmlns:xlink="http://www.w3.org/1999/xlink">
 <path d="M0,0 l200,0 l0,200 l-200,0 Z M0,0" fill="rgb(255,255,255)" transform="matrix(1,0,0,-1,0,200)"/>
 <clipPath id="clip419">
  <path clip-rule="evenodd" d="M0,43.79 l200,0 l0,200 l-200,0 Z M0,43.79" transform="matrix(1,0,0,-1,0,150)"/>
 </clipPath>
 <g clip-path="url(#clip419)">
  <path d="M91.17,-2.42 c17.17,0,26.58,7.75,31.75,18.42 l1.08,0 l-0.17,-25.17 c-0.08,-8.0,-0.08,-16.0,-0.17,-24.0 l14.25,0 l0,24.25 l-0.08,96.58 l-11.83,0 l-2.25,-15.08 l-0.75,0 c-5.08,10.42,-14.42,17.58,-31.58,17.58 c-26.5,0,-38.83,-17.17,-38.83,-46.33 c0,-29.0,12.33,-46.25,38.58,-46.25 Z M67.08,43.83 c0,23.08,7.83,34.17,28.67,34.17 c19.75,0,28.5,-15.0,28.5,-34.17 c0,-19.08,-8.75,-34.08,-28.5,-34.08 c-20.83,0,-28.67,11.08,-28.67,34.08 Z M67.08,43.83" fill="rgb(0,0,0)" transform="matrix(1,0,0,-1,0,150)"/>
 </g>
 <clipPath id="clip420">
  <path clip-rule="evenodd" d="M0,-50 l200,0 l0,93.79 l-200,0 Z M0,-50" transform="matrix(1,0,0,-1,0,150)"/>
 </clipPath>
 <g clip-path="url(#clip420)">
  <path d="M91.17,-2.42 c17.17,0,26.58,8.17,31.75,19.67 l1.08,0 l-0.17,-25.75 c-0.08,-9.5,-1.5,-17.58,-4.33,-23.58 l0,-1.08 l21.17,0 l0,1.08 c-1.83,6.0,-2.75,14.17,-2.75,23.75 l-0.08,97.0 l-9.67,0 l-4.42,-17.33 l-0.75,0 c-5.08,11.17,-14.42,18.83,-31.58,18.83 c-26.5,0,-38.83,-17.17,-38.83,-46.33 c0,-29.0,12.33,-46.25,38.58,-46.25 Z M67.08,43.83 c0,23.75,7.83,35.17,28.67,35.17 c19.75,0,28.5,-15.42,28.5,-35.17 c0,-19.67,-8.75,-35.17,-28.5,-35.17 c-20.83,0,-28.67,11.42,-28.67,35.17 Z M67.08,43.83" fill="rgb(0,0,0)" transform="matrix(1,0,0,-1,0,150)"/>
 </g>
 <path d="M0,43.79 l200,0" fill="none" stroke="rgb(255,0,0)" stroke-width="1" transform="matrix(1,0,0,-1,0,150)"/>
</svg>