<?xml version="1.0" encoding="UTF-8"?>
<svg width="200" height="200" viewBox="0 0 200 200" version="1.1" xmlns="http://www.w3.org/2000/svg" xmlns:xlink="http://www.w3.org/1999/xlink">
 <path d="M0,0 l200,0 l0,200 l-200,0 Z M0,0" fill="rgb(255,255,255)" transform="matrix(1,0,0,-1,0,200)"/>
 <clipPath id="clip421">
  <path clip-rule="evenodd" d="M0,43.79 l200,0 l0,200 l-200,0 Z M0,43.79" transform="matrix(1,0,0,-1,0,150)"/>
 </clipPath>
 <g clip-path="url(#clip421)">
  <path d="M91.17,-2.42 c17.17,0,26.58,7.75,31.75,18.42 l1.08,0 l-0.17,-25.17 c-0.08,-8.0,-0.08,-16.0,-0.17,-24.0 l14.25,0 l0,24.25 l-0.08,96.58 l-11.83,0 l-2.25,-15.08 l-0.75,0 c-5.08,10.42,-14.42,17.58,-31.58,17.58 c-26.5,0,-38.83,-17.17,-38.83,-46.33 c0,-29.0,12.33,-46.25,38.58,-46.25 Z M95.75,9.75 c-20.83,0,-28.67,11.08,-28.67,34.08 c0,23.08,7.83,34.17,28.67,34.17 c19.75,0,28.5,-15.0,28.5,-34.17 c0,-19.08,-8.75,-34.08,-28.5,-34.08 Z M95.75,9.75" fill="rgb(0,0,0)" transform="matrix(1,0,0,-1,0,150)"/>
 </g>
 <clipPath id="clip422">
  <path clip-rule="evenodd" d="M0,-50 l200,0 l0,93.79 l-200,0 Z M0,-50" transform="matrix(1,0,0,-1,0,150)"/>
 </clipPath>
 <g clip-path="url(#clip422)">
  <path d="M91.25,-2.5 c17.17,0,26.58,7.75,31.75,18.92 l1.0,0 l-0.25,-24.0 c-0.08,-11.67,-3.42,-19.92,-10.0,-23.08 l0,-2.5 l30.67,0 l0,2.5 c-4.25,3.25,-6.5,11.5,-6.5,23.17 l0,96.58 l-9.25,0 l-4.92,-17.08 l-0.75,0 c-5.08,10.75,-14.33,18.08,-31.5,18.08 c-26.5,0,-38.83,-17.17,-38.83,-46.33 c0,-29.0,12.33,-46.25,38.58,-46.25 Z M95.83,7.17 c-20.83,0,-28.67,11.92,-28.67,36.58 c0,24.83,7.83,36.67,28.67,36.67 c19.75,0,28.5,-16.08,28.5,-36.67 c0,-20.42,-8.75,-36.58,-28.5,-36.58 Z M95.83,7.17" fill="rgb(0,0,0)" transform="matrix(1,0,0,-1,0,150)"/>
 </g>
 <path d="M0,43.79 l200,0" fill="none" stroke="rgb(255,0,0)" stroke-width="1" transform="matrix(1,0,0,-1,0,150)"/>
</svg>