<?xml version="1.0" encoding="UTF-8"?>
<svg width="200" height="200" viewBox="0 0 200 200" version="1.1" xmlns="http://www.w3.org/2000/svg" xmlns:xlink="http://www.w3.org/1999/xlink">
 <path d="M0,0 l200,0 l0,200 l-200,0 Z M0,0" fill="rgb(255,255,255)" transform="matrix(1,0,0,-1,0,200)"/>
 <clipPath id="clip427">
  <path clip-rule="evenodd" d="M0,43.79 l200,0 l0,200 l-200,0 Z M0,43.79" transform="matrix(1,0,0,-1,0,150)"/>
 </clipPath>
 <g clip-path="url(#clip427)">
  <path d="M91.17,-2.42 c17.17,0,26.58,8.42,31.75,20.33 l1.08,0 l-0.17,-26.0 c-0.17,-10.5,-2.42,-18.58,-6.83,-23.42 l0,-1.67 l25.25,0 l0,1.67 c-2.83,4.83,-4.33,13.0,-4.33,23.58 l-0.08,97.25 l-8.42,0 l-5.67,-18.75 l-0.75,0 c-5.08,11.58,-14.42,19.58,-31.58,19.58 c-26.5,0,-38.83,-17.17,-38.83,-46.33 c0,-29.0,12.33,-46.25,38.58,-46.25 Z M95.75,8.08 c-20.83,0,-28.67,11.58,-28.67,35.75 c0,24.17,7.83,35.83,28.67,35.83 c19.75,0,28.5,-15.75,28.5,-35.83 c0,-20.08,-8.75,-35.75,-28.5,-35.75 Z M95.75,8.08" fill="rgb(0,0,0)" transform="matrix(1,0,0,-1,0,150)"/>
 </g>
 <clipPath id="clip428">
  <path clip-rule="evenodd" d="M0,-50 l200,0 l0,93.79 l-200,0 Z M0,-50" transform="matrix(1,0,0,-1,0,150)"/>
 </clipPath>
 <g clip-path="url(#clip428)">
  <path d="M91.17,-2.42 c17.17,0,26.58,8.42,31.75,20.33 l1.08,0 l-0.17,-26.0 c-0.17,-10.5,-2.42,-18.58,-6.83,-23.42 l0,-1.67 l25.25,0 l0,1.67 c-2.83,4.83,-4.33,13.0,-4.33,23.58 l-0.08,97.25 l-8.42,0 l-5.67,-18.75 l-0.75,0 c-5.08,11.58,-14.42,19.58,-31.58,19.58 c-26.5,0,-38.83,-17.17,-38.83,-46.33 c0,-29.0,12.33,-46.25,38.58,-46.25 Z M95.75,8.08 c-20.83,0,-28.67,11.58,-28.67,35.75 c0,24.17,7.83,35.83,28.67,35.83 c19.75,0,28.5,-15.75,28.5,-35.83 c0,-20.08,-8.75,-35.75,-28.5,-35.75 Z M95.75,8.08" fill="rgb(0,0,0)" transform="matrix(1,0,0,-1,0,150)"/>
 </g>
 <path d="M0,43.79 l200,0" fill="none" stroke="rgb(255,0,0)" stroke-width="1" transform="matrix(1,0,0,-1,0,150)"/>
</svg>