<?xml version="1.0" encoding="UTF-8"?>
<svg width="200" height="200" viewBox="0 0 200 200" version="1.1" xmlns="http://www.w3.org/2000/svg" xmlns:xlink="http://www.w3.org/1999/xlink">
 <path d="M0,0 l200,0 l0,200 l-200,0 Z M0,0" fill="rgb(255,255,255)" transform="matrix(1,0,0,-1,0,200)"/>
 <clipPath id="clip447">
  <path clip-rule="evenodd" d="M0,43.79 l200,0 l0,200 l-200,0 Z M0,43.79" transform="matrix(1,0,0,-1,0,150)"/>
 </clipPath>
 <g clip-path="url(#clip447)">
  <path d="M91.25,-2.5 c17.17,0,26.58,9.0,31.75,22.17 l1.0,0 l-0.25,-26.83 c-0.08,-12.58,-4.33,-20.83,-12.5,-22.83 l0,-3.17 l34.83,0 l0,3.17 c-5.33,2.0,-8.17,10.25,-8.17,22.92 l0,97.83 l-5.5,0 l-8.67,-22.0 l-0.75,0 c-5.08,12.67,-14.33,21.33,-31.5,21.33 c-26.5,0,-38.83,-17.17,-38.83,-46.33 c0,-29.0,12.33,-46.25,38.58,-46.25 Z M67.17,43.75 c0,25.25,7.83,37.33,28.67,37.33 c19.75,0,28.5,-16.42,28.5,-37.33 c0,-20.83,-8.75,-37.17,-28.5,-37.17 c-20.83,0,-28.67,12.08,-28.67,37.17 Z M67.17,43.75" fill="rgb(0,0,0)" transform="matrix(1,0,0,-1,0,150)"/>
 </g>
 <clipPath id="clip448">
  <path clip-rule="evenodd" d="M0,-50 l200,0 l0,93.79 l-200,0 Z M0,-50" transform="matrix(1,0,0,-1,0,150)"/>
 </clipPath>
 <g clip-path="url(#clip448)">
  <path d="M91.25,-2.5 c17.17,0,26.58,9.0,31.75,22.17 l1.0,0 l-0.25,-26.83 c-0.08,-12.58,-4.33,-20.83,-12.5,-22.83 l0,-3.17 l34.83,0 l0,3.17 c-5.33,2.0,-8.17,10.25,-8.17,22.92 l0,97.83 l-5.5,0 l-8.67,-22.0 l-0.75,0 c-5.08,12.67,-14.33,21.33,-31.5,21.33 c-26.5,0,-38.83,-17.17,-38.83,-46.33 c0,-29.0,12.33,-46.25,38.58,-46.25 Z M67.17,43.75 c0,25.25,7.83,37.33,28.67,37.33 c19.75,0,28.5,-16.42,28.5,-37.33 c0,-20.83,-8.75,-37.17,-28.5,-37.17 c-20.83,0,-28.67,12.08,-28.67,37.17 Z M67.17,43.75" fill="rgb(0,0,0)" transform="matrix(1,0,0,-1,0,150)"/>
 </g>
 <path d="M0,43.79 l200,0" fill="none" stroke="rgb(255,0,0)" stroke-width="1" transform="matrix(1,0,0,-1,0,150)"/>
</svg>