<?xml version="1.0" encoding="UTF-8"?>
<svg width="200" height="200" viewBox="0 0 200 200" version="1.1" xmlns="http://www.w3.org/2000/svg" xmlns:xlink="http://www.w3.org/1999/xlink">
 <path d="M0,0 l200,0 l0,200 l-200,0 Z M0,0" fill="rgb(255,255,255)" transform="matrix(1,0,0,-1,0,200)"/>
 <clipPath id="clip455">
  <path clip-rule="evenodd" d="M0,43.79 l200,0 l0,200 l-200,0 Z M0,43.79" transform="matrix(1,0,0,-1,0,150)"/>
 </clipPath>
 <g clip-path="url(#clip455)">
  <path d="M129.33,90.08 c-15.67,0,-27.5,-7.0,-33.67,-22.42 l-1.0,0 l-1.42,19.92 l-32.25,0 l0,-11.58 l19.67,0 l0,-64.42 l-21.25,0 l0,-11.58 l66.83,0 l0,11.58 l-31.42,0 l0,27.75 c0,24.92,10.75,37.42,32.5,37.42 c7.17,0,13.5,-1.25,19.5,-2.92 l2.5,12.92 c-5.75,2.08,-12.58,3.33,-20.0,3.33 Z M129.33,90.08" fill="rgb(0,0,0)" transform="matrix(1,0,0,-1,0,150)"/>
 </g>
 <clipPath id="clip456">
  <path clip-rule="evenodd" d="M0,-50 l200,0 l0,93.79 l-200,0 Z M0,-50" transform="matrix(1,0,0,-1,0,150)"/>
 </clipPath>
 <g clip-path="url(#clip456)">
  <path d="M127.08,90.08 c-16.25,0,-26.33,-8.17,-31.5,-19.17 l-1.0,0 l-2.0,17.75 l-22.75,-1.08 l0,-4.17 c7.08,0,10.83,-5.92,10.83,-20.08 l0,-36.67 c0,-14.17,-3.75,-22.5,-10.83,-22.5 l0,-4.17 l41.67,0 l0,4.17 c-10.92,0,-16.67,8.33,-16.67,22.5 l0,20.33 c0,23.0,13.5,34.25,25.67,34.25 c7.17,0,11.33,-6.08,14.17,-20.33 l5.0,0 l1.67,27.92 c-4.75,0.83,-9.5,1.25,-14.25,1.25 Z M127.08,90.08" fill="rgb(0,0,0)" transform="matrix(1,0,0,-1,0,150)"/>
 </g>
 <path d="M0,43.79 l200,0" fill="none" stroke="rgb(255,0,0)" stroke-width="1" transform="matrix(1,0,0,-1,0,150)"/>
</svg>