<?xml version="1.0" encoding="UTF-8"?>
<svg width="200" height="200" viewBox="0 0 200 200" version="1.1" xmlns="http://www.w3.org/2000/svg" xmlns:xlink="http://www.w3.org/1999/xlink">
 <path d="M0,0 l200,0 l0,200 l-200,0 Z M0,0" fill="rgb(255,255,255)" transform="matrix(1,0,0,-1,0,200)"/>
 <clipPath id="clip457">
  <path clip-rule="evenodd" d="M0,43.79 l200,0 l0,200 l-200,0 Z M0,43.79" transform="matrix(1,0,0,-1,0,150)"/>
 </clipPath>
 <g clip-path="url(#clip457)">
  <path d="M128.42,90.08 c-15.92,0,-27.0,-7.5,-32.75,-21.08 l-1.0,0 l-1.67,19.0 l-28.5,-0.42 l0,-8.58 c6.83,0,12.25,-2.42,16.17,-8.08 l0,-53.33 c-4.25,-5.67,-10.0,-9.0,-17.08,-9.0 l0,-8.58 l56.75,0 l0,8.58 c-10.67,0,-19.17,3.33,-25.5,9.0 l0,24.83 c0,24.17,11.83,36.17,29.75,36.17 c7.17,0,12.67,-3.25,17.42,-9.92 l2.0,0 l2.17,18.92 c-5.42,1.58,-11.42,2.5,-17.75,2.5 Z M128.42,90.08" fill="rgb(0,0,0)" transform="matrix(1,0,0,-1,0,150)"/>
 </g>
 <clipPath id="clip458">
  <path clip-rule="evenodd" d="M0,-50 l200,0 l0,93.79 l-200,0 Z M0,-50" transform="matrix(1,0,0,-1,0,150)"/>
 </clipPath>
 <g clip-path="url(#clip458)">
  <path d="M129.33,90.08 c-15.67,0,-27.5,-7.0,-33.67,-22.42 l-1.0,0 l-1.42,19.92 l-32.25,0 l0,-11.58 l19.67,0 l0,-64.42 l-21.25,0 l0,-11.58 l66.83,0 l0,11.58 l-31.42,0 l0,27.75 c0,24.92,10.75,37.42,32.5,37.42 c7.17,0,13.5,-1.25,19.5,-2.92 l2.5,12.92 c-5.75,2.08,-12.58,3.33,-20.0,3.33 Z M129.33,90.08" fill="rgb(0,0,0)" transform="matrix(1,0,0,-1,0,150)"/>
 </g>
 <path d="M0,43.79 l200,0" fill="none" stroke="rgb(255,0,0)" stroke-width="1" transform="matrix(1,0,0,-1,0,150)"/>
</svg>