<?xml version="1.0" encoding="UTF-8"?>
<svg width="200" height="200" viewBox="0 0 200 200" version="1.1" xmlns="http://www.w3.org/2000/svg" xmlns:xlink="http://www.w3.org/1999/xlink">
 <path d="M0,0 l200,0 l0,200 l-200,0 Z M0,0" fill="rgb(255,255,255)" transform="matrix(1,0,0,-1,0,200)"/>
 <clipPath id="clip459">
  <path clip-rule="evenodd" d="M0,43.79 l200,0 l0,200 l-200,0 Z M0,43.79" transform="matrix(1,0,0,-1,0,150)"/>
 </clipPath>
 <g clip-path="url(#clip459)">
  <path d="M128.75,90.08 c-15.75,0,-27.17,-7.75,-33.08,-22.67 l-1.0,0 l-1.58,20.42 l-29.83,-0.25 l0,-9.75 c6.67,0,12.5,-1.42,17.42,-5.0 l0,-57.5 c-5.33,-3.5,-11.58,-5.58,-18.67,-5.58 l0,-9.75 l60.58,0 l0,9.75 c-10.58,0,-19.83,2.08,-27.75,5.58 l0,25.92 c0,23.42,10.83,36.67,30.83,36.67 c7.17,0,12.92,-2.5,18.17,-7.33 l1.25,0 l2.08,16.67 c-5.5,1.83,-11.67,2.83,-18.42,2.83 Z M128.75,90.08" fill="rgb(0,0,0)" transform="matrix(1,0,0,-1,0,150)"/>
 </g>
 <clipPath id="clip460">
  <path clip-rule="evenodd" d="M0,-50 l200,0 l0,93.79 l-200,0 Z M0,-50" transform="matrix(1,0,0,-1,0,150)"/>
 </clipPath>
 <g clip-path="url(#clip460)">
  <path d="M128.75,90.08 c-15.75,0,-27.17,-7.75,-33.08,-22.67 l-1.0,0 l-1.58,20.42 l-29.83,-0.25 l0,-9.75 c6.67,0,12.5,-1.42,17.42,-5.0 l0,-57.5 c-5.33,-3.5,-11.58,-5.58,-18.67,-5.58 l0,-9.75 l60.58,0 l0,9.75 c-10.58,0,-19.83,2.08,-27.75,5.58 l0,25.92 c0,23.42,10.83,36.67,30.83,36.67 c7.17,0,12.92,-2.5,18.17,-7.33 l1.25,0 l2.08,16.67 c-5.5,1.83,-11.67,2.83,-18.42,2.83 Z M128.75,90.08" fill="rgb(0,0,0)" transform="matrix(1,0,0,-1,0,150)"/>
 </g>
 <path d="M0,43.79 l200,0" fill="none" stroke="rgb(255,0,0)" stroke-width="1" transform="matrix(1,0,0,-1,0,150)"/>
</svg>