<?xml version="1.0" encoding="UTF-8"?>
<svg width="200" height="200" viewBox="0 0 200 200" version="1.1" xmlns="http://www.w3.org/2000/svg" xmlns:xlink="http://www.w3.org/1999/xlink">
 <path d="M0,0 l200,0 l0,200 l-200,0 Z M0,0" fill="rgb(255,255,255)" transform="matrix(1,0,0,-1,0,200)"/>
 <clipPath id="clip465">
  <path clip-rule="evenodd" d="M0,43.79 l200,0 l0,200 l-200,0 Z M0,43.79" transform="matrix(1,0,0,-1,0,150)"/>
 </clipPath>
 <g clip-path="url(#clip465)">
  <path d="M128.0,90.08 c-16.0,0,-26.83,-7.67,-32.42,-20.5 l-1.0,0 l-1.75,18.67 l-26.5,-0.67 l0,-7.17 c6.83,0,11.67,-3.5,14.33,-12.0 l0,-47.75 c-2.83,-8.5,-7.92,-13.5,-15.0,-13.5 l0,-7.17 l51.75,0 l0,7.17 c-10.75,0,-18.42,5.0,-22.58,13.5 l0,23.25 c0,23.75,12.42,35.5,28.42,35.5 c7.17,0,12.17,-4.08,16.25,-13.33 l3.0,0 l2.0,21.92 c-5.08,1.33,-10.67,2.08,-16.5,2.08 Z M128.0,90.08" fill="rgb(0,0,0)" transform="matrix(1,0,0,-1,0,150)"/>
 </g>
 <clipPath id="clip466">
  <path clip-rule="evenodd" d="M0,-50 l200,0 l0,93.79 l-200,0 Z M0,-50" transform="matrix(1,0,0,-1,0,150)"/>
 </clipPath>
 <g clip-path="url(#clip466)">
  <path d="M129.33,90.08 c-15.67,0,-27.5,-7.0,-33.67,-22.42 l-1.0,0 l-1.42,19.92 l-32.25,0 l0,-11.58 l19.67,0 l0,-64.42 l-21.25,0 l0,-11.58 l66.83,0 l0,11.58 l-31.42,0 l0,27.75 c0,24.92,10.75,37.42,32.5,37.42 c7.17,0,13.5,-1.25,19.5,-2.92 l2.5,12.92 c-5.75,2.08,-12.58,3.33,-20.0,3.33 Z M129.33,90.08" fill="rgb(0,0,0)" transform="matrix(1,0,0,-1,0,150)"/>
 </g>
 <path d="M0,43.79 l200,0" fill="none" stroke="rgb(255,0,0)" stroke-width="1" transform="matrix(1,0,0,-1,0,150)"/>
</svg>