<?xml version="1.0" encoding="UTF-8"?>
<svg width="200" height="200" viewBox="0 0 200 200" version="1.1" xmlns="http://www.w3.org/2000/svg" xmlns:xlink="http://www.w3.org/1999/xlink">
 <path d="M0,0 l200,0 l0,200 l-200,0 Z M0,0" fill="rgb(255,255,255)" transform="matrix(1,0,0,-1,0,200)"/>
 <clipPath id="clip467">
  <path clip-rule="evenodd" d="M0,43.79 l200,0 l0,200 l-200,0 Z M0,43.79" transform="matrix(1,0,0,-1,0,150)"/>
 </clipPath>
 <g clip-path="url(#clip467)">
  <path d="M128.0,90.08 c-16.0,0,-26.83,-8.75,-32.42,-23.0 l-1.0,0 l-1.75,21.17 l-26.5,-0.67 l0,-7.17 c6.83,0,11.67,-3.5,14.33,-12.0 l0,-47.75 c-2.83,-8.5,-7.92,-13.5,-15.0,-13.5 l0,-7.17 l51.75,0 l0,7.17 c-10.75,0,-18.42,5.0,-22.58,13.5 l0,23.25 c0,21.25,10.92,35.5,28.42,35.5 c7.17,0,12.17,-4.08,16.25,-13.33 l3.0,0 l1.5,21.92 c-5.0,1.33,-10.33,2.08,-16.0,2.08 Z M128.0,90.08" fill="rgb(0,0,0)" transform="matrix(1,0,0,-1,0,150)"/>
 </g>
 <clipPath id="clip468">
  <path clip-rule="evenodd" d="M0,-50 l200,0 l0,93.79 l-200,0 Z M0,-50" transform="matrix(1,0,0,-1,0,150)"/>
 </clipPath>
 <g clip-path="url(#clip468)">
  <path d="M128.42,90.08 c-15.92,0,-27.0,-8.17,-32.75,-22.75 l-1.0,0 l-1.67,20.67 l-28.5,-0.42 l0,-8.58 c6.83,0,12.25,-2.42,16.17,-8.08 l0,-53.33 c-4.25,-5.67,-10.0,-9.0,-17.08,-9.0 l0,-8.58 l56.75,0 l0,8.58 c-10.67,0,-19.17,3.33,-25.5,9.0 l0,24.83 c0,22.5,10.83,36.17,29.75,36.17 c7.17,0,12.67,-3.25,17.42,-9.92 l2.0,0 l1.83,18.92 c-5.25,1.58,-11.17,2.5,-17.42,2.5 Z M128.42,90.08" fill="rgb(0,0,0)" transform="matrix(1,0,0,-1,0,150)"/>
 </g>
 <path d="M0,43.79 l200,0" fill="none" stroke="rgb(255,0,0)" stroke-width="1" transform="matrix(1,0,0,-1,0,150)"/>
</svg>