<?xml version="1.0" encoding="UTF-8"?>
<svg width="200" height="200" viewBox="0 0 200 200" version="1.1" xmlns="http://www.w3.org/2000/svg" xmlns:xlink="http://www.w3.org/1999/xlink">
 <path d="M0,0 l200,0 l0,200 l-200,0 Z M0,0" fill="rgb(255,255,255)" transform="matrix(1,0,0,-1,0,200)"/>
 <clipPath id="clip469">
  <path clip-rule="evenodd" d="M0,43.79 l200,0 l0,200 l-200,0 Z M0,43.79" transform="matrix(1,0,0,-1,0,150)"/>
 </clipPath>
 <g clip-path="url(#clip469)">
  <path d="M128.25,90.08 c-16.0,0,-26.92,-8.42,-32.58,-22.83 l-1.0,0 l-1.75,20.92 l-27.5,-0.58 l0,-7.83 c6.83,0,12.0,-3.0,15.25,-10.08 l0,-50.5 c-3.5,-7.08,-8.92,-11.25,-16.0,-11.25 l0,-7.92 l54.25,0 l0,7.92 c-10.75,0,-18.83,4.17,-24.08,11.25 l0,24.0 c0,21.92,10.92,35.83,29.08,35.83 c7.17,0,12.42,-3.67,16.83,-11.58 l2.5,0 l1.67,20.42 c-5.08,1.42,-10.75,2.25,-16.67,2.25 Z M128.25,90.08" fill="rgb(0,0,0)" transform="matrix(1,0,0,-1,0,150)"/>
 </g>
 <clipPath id="clip470">
  <path clip-rule="evenodd" d="M0,-50 l200,0 l0,93.79 l-200,0 Z M0,-50" transform="matrix(1,0,0,-1,0,150)"/>
 </clipPath>
 <g clip-path="url(#clip470)">
  <path d="M128.25,90.08 c-16.0,0,-26.92,-8.42,-32.58,-22.83 l-1.0,0 l-1.75,20.92 l-27.5,-0.58 l0,-7.83 c6.83,0,12.0,-3.0,15.25,-10.08 l0,-50.5 c-3.5,-7.08,-8.92,-11.25,-16.0,-11.25 l0,-7.92 l54.25,0 l0,7.92 c-10.75,0,-18.83,4.17,-24.08,11.25 l0,24.0 c0,21.92,10.92,35.83,29.08,35.83 c7.17,0,12.42,-3.67,16.83,-11.58 l2.5,0 l1.67,20.42 c-5.08,1.42,-10.75,2.25,-16.67,2.25 Z M128.25,90.08" fill="rgb(0,0,0)" transform="matrix(1,0,0,-1,0,150)"/>
 </g>
 <path d="M0,43.79 l200,0" fill="none" stroke="rgb(255,0,0)" stroke-width="1" transform="matrix(1,0,0,-1,0,150)"/>
</svg>