<?xml version="1.0" encoding="UTF-8"?>
<svg width="200" height="200" viewBox="0 0 200 200" version="1.1" xmlns="http://www.w3.org/2000/svg" xmlns:xlink="http://www.w3.org/1999/xlink">
 <path d="M0,0 l200,0 l0,200 l-200,0 Z M0,0" fill="rgb(255,255,255)" transform="matrix(1,0,0,-1,0,200)"/>
 <clipPath id="clip475">
  <path clip-rule="evenodd" d="M0,43.79 l200,0 l0,200 l-200,0 Z M0,43.79" transform="matrix(1,0,0,-1,0,150)"/>
 </clipPath>
 <g clip-path="url(#clip475)">
  <path d="M127.08,90.08 c-16.25,0,-26.33,-9.92,-31.5,-23.33 l-1.0,0 l-2.0,21.92 l-22.75,-1.08 l0,-4.17 c7.08,0,10.83,-5.92,10.83,-20.08 l0,-36.67 c0,-14.17,-3.75,-22.5,-10.83,-22.5 l0,-4.17 l41.67,0 l0,4.17 c-10.92,0,-16.67,8.33,-16.67,22.5 l0,20.33 c0,18.83,11.0,34.25,25.67,34.25 c7.17,0,11.33,-6.08,14.17,-20.33 l5.0,0 l0.83,27.92 c-4.5,0.83,-8.92,1.25,-13.42,1.25 Z M127.08,90.08" fill="rgb(0,0,0)" transform="matrix(1,0,0,-1,0,150)"/>
 </g>
 <clipPath id="clip476">
  <path clip-rule="evenodd" d="M0,-50 l200,0 l0,93.79 l-200,0 Z M0,-50" transform="matrix(1,0,0,-1,0,150)"/>
 </clipPath>
 <g clip-path="url(#clip476)">
  <path d="M128.42,90.08 c-15.92,0,-27.0,-8.17,-32.75,-22.75 l-1.0,0 l-1.67,20.67 l-28.5,-0.42 l0,-8.58 c6.83,0,12.25,-2.42,16.17,-8.08 l0,-53.33 c-4.25,-5.67,-10.0,-9.0,-17.08,-9.0 l0,-8.58 l56.75,0 l0,8.58 c-10.67,0,-19.17,3.33,-25.5,9.0 l0,24.83 c0,22.5,10.83,36.17,29.75,36.17 c7.17,0,12.67,-3.25,17.42,-9.92 l2.0,0 l1.83,18.92 c-5.25,1.58,-11.17,2.5,-17.42,2.5 Z M128.42,90.08" fill="rgb(0,0,0)" transform="matrix(1,0,0,-1,0,150)"/>
 </g>
 <path d="M0,43.79 l200,0" fill="none" stroke="rgb(255,0,0)" stroke-width="1" transform="matrix(1,0,0,-1,0,150)"/>
</svg>