<?xml version="1.0" encoding="UTF-8"?>
<svg width="200" height="200" viewBox="0 0 200 200" version="1.1" xmlns="http://www.w3.org/2000/svg" xmlns:xlink="http://www.w3.org/1999/xlink">
 <path d="M0,0 l200,0 l0,200 l-200,0 Z M0,0" fill="rgb(255,255,255)" transform="matrix(1,0,0,-1,0,200)"/>
 <clipPath id="clip477">
  <path clip-rule="evenodd" d="M0,43.79 l200,0 l0,200 l-200,0 Z M0,43.79" transform="matrix(1,0,0,-1,0,150)"/>
 </clipPath>
 <g clip-path="url(#clip477)">
  <path d="M127.67,90.08 c-16.08,0,-26.67,-9.17,-32.08,-23.08 l-1.0,0 l-1.83,21.42 l-25.08,-0.83 l0,-6.0 c6.92,0,11.33,-4.42,13.0,-15.08 l0,-43.58 c-1.75,-10.67,-6.33,-16.92,-13.42,-16.92 l0,-6.0 l47.92,0 l0,6.0 c-10.75,0,-17.67,6.25,-20.33,16.92 l0,22.17 c0,20.33,10.92,35.08,27.42,35.08 c7.17,0,11.83,-4.92,15.5,-16.0 l3.75,0 l1.25,24.17 c-4.83,1.17,-9.83,1.75,-15.08,1.75 Z M127.67,90.08" fill="rgb(0,0,0)" transform="matrix(1,0,0,-1,0,150)"/>
 </g>
 <clipPath id="clip478">
  <path clip-rule="evenodd" d="M0,-50 l200,0 l0,93.79 l-200,0 Z M0,-50" transform="matrix(1,0,0,-1,0,150)"/>
 </clipPath>
 <g clip-path="url(#clip478)">
  <path d="M128.25,90.08 c-16.0,0,-26.92,-8.42,-32.58,-22.83 l-1.0,0 l-1.75,20.92 l-27.5,-0.58 l0,-7.83 c6.83,0,12.0,-3.0,15.25,-10.08 l0,-50.5 c-3.5,-7.08,-8.92,-11.25,-16.0,-11.25 l0,-7.92 l54.25,0 l0,7.92 c-10.75,0,-18.83,4.17,-24.08,11.25 l0,24.0 c0,21.92,10.92,35.83,29.08,35.83 c7.17,0,12.42,-3.67,16.83,-11.58 l2.5,0 l1.67,20.42 c-5.08,1.42,-10.75,2.25,-16.67,2.25 Z M128.25,90.08" fill="rgb(0,0,0)" transform="matrix(1,0,0,-1,0,150)"/>
 </g>
 <path d="M0,43.79 l200,0" fill="none" stroke="rgb(255,0,0)" stroke-width="1" transform="matrix(1,0,0,-1,0,150)"/>
</svg>