<?xml version="1.0" encoding="UTF-8"?>
<svg width="200" height="200" viewBox="0 0 200 200" version="1.1" xmlns="http://www.w3.org/2000/svg" xmlns:xlink="http://www.w3.org/1999/xlink">
 <path d="M0,0 l200,0 l0,200 l-200,0 Z M0,0" fill="rgb(255,255,255)" transform="matrix(1,0,0,-1,0,200)"/>
 <clipPath id="clip477">
  <path clip-rule="evenodd" d="M0,43.79 l200,0 l0,200 l-200,0 Z M0,43.79" transform="matrix(1,0,0,-1,0,150)"/>
 </clipPath>
 <g clip-path="url(#clip477)">
  <path d="M127.08,90.08 c-16.25,0,-26.33,-9.92,-31.5,-23.33 l-1.0,0 l-2.0,21.92 l-22.75,-1.08 l0,-4.17 c7.08,0,10.83,-5.92,10.83,-20.08 l0,-36.67 c0,-14.17,-3.75,-22.5,-10.83,-22.5 l0,-4.17 l41.67,0 l0,4.17 c-10.92,0,-16.67,8.33,-16.67,22.5 l0,20.33 c0,18.83,11.0,34.25,25.67,34.25 c7.17,0,11.33,-6.08,14.17,-20.33 l5.0,0 l0.83,27.92 c-4.5,0.83,-8.92,1.25,-13.42,1.25 Z M127.08,90.08" fill="rgb(0,0,0)" transform="matrix(1,0,0,-1,0,150)"/>
 </g>
 <clipPath id="clip478">
  <path clip-rule="evenodd" d="M0,-50 l200,0 l0,93.79 l-200,0 Z M0,-50" transform="matrix(1,0,0,-1,0,150)"/>
 </clipPath>
 <g clip-path="url(#clip478)">
  <path d="M128.0,90.08 c-16.0,0,-26.83,-8.75,-32.42,-23.0 l-1.0,0 l-1.75,21.17 l-26.5,-0.67 l0,-7.17 c6.83,0,11.67,-3.5,14.33,-12.0 l0,-47.75 c-2.83,-8.5,-7.92,-13.5,-15.0,-13.5 l0,-7.17 l51.75,0 l0,7.17 c-10.75,0,-18.42,5.0,-22.58,13.5 l0,23.25 c0,21.25,10.92,35.5,28.42,35.5 c7.17,0,12.17,-4.08,16.25,-13.33 l3.0,0 l1.5,21.92 c-5.0,1.33,-10.33,2.08,-16.0,2.08 Z M128.0,90.08" fill="rgb(0,0,0)" transform="matrix(1,0,0,-1,0,150)"/>
 </g>
 <path d="M0,43.79 l200,0" fill="none" stroke="rgb(255,0,0)" stroke-width="1" transform="matrix(1,0,0,-1,0,150)"/>
</svg>