<?xml version="1.0" encoding="UTF-8"?>
<svg width="200" height="200" viewBox="0 0 200 200" version="1.1" xmlns="http://www.w3.org/2000/svg" xmlns:xlink="http://www.w3.org/1999/xlink">
 <path d="M0,0 l200,0 l0,200 l-200,0 Z M0,0" fill="rgb(255,255,255)" transform="matrix(1,0,0,-1,0,200)"/>
 <clipPath id="clip481">
  <path clip-rule="evenodd" d="M0,43.79 l200,0 l0,200 l-200,0 Z M0,43.79" transform="matrix(1,0,0,-1,0,150)"/>
 </clipPath>
 <g clip-path="url(#clip481)">
  <path d="M137.42,76.0 l0,11.58 l-41.83,0 l0,27.42 l-11.75,0 l-2.42,-27.42 l-25.75,0 l0,-11.58 l25.75,0 l0,-44.33 c0,-22.25,8.33,-33.42,31.08,-33.42 c9.0,0,18.33,1.67,25.25,4.42 l-2.33,11.33 c-5.67,-2.17,-13.0,-3.42,-20.08,-3.42 c-14.08,0,-19.75,6.42,-19.75,22.08 l0,43.33 Z M137.42,76.0" fill="rgb(0,0,0)" transform="matrix(1,0,0,-1,0,150)"/>
 </g>
 <clipPath id="clip482">
  <path clip-rule="evenodd" d="M0,-50 l200,0 l0,93.79 l-200,0 Z M0,-50" transform="matrix(1,0,0,-1,0,150)"/>
 </clipPath>
 <g clip-path="url(#clip482)">
  <path d="M137.42,76.0 l0,11.58 l-41.83,0 l0,27.42 l-11.75,0 l-2.42,-27.42 l-25.75,0 l0,-11.58 l25.75,0 l0,-44.33 c0,-22.25,8.33,-33.42,31.08,-33.42 c9.0,0,18.33,1.67,25.25,4.42 l-2.33,11.33 c-5.67,-2.17,-13.0,-3.42,-20.08,-3.42 c-14.08,0,-19.75,6.42,-19.75,22.08 l0,43.33 Z M137.42,76.0" fill="rgb(0,0,0)" transform="matrix(1,0,0,-1,0,150)"/>
 </g>
 <path d="M0,43.79 l200,0" fill="none" stroke="rgb(255,0,0)" stroke-width="1" transform="matrix(1,0,0,-1,0,150)"/>
</svg>