<?xml version="1.0" encoding="UTF-8"?>
<svg width="200" height="200" viewBox="0 0 200 200" version="1.1" xmlns="http://www.w3.org/2000/svg" xmlns:xlink="http://www.w3.org/1999/xlink">
 <path d="M0,0 l200,0 l0,200 l-200,0 Z M0,0" fill="rgb(255,255,255)" transform="matrix(1,0,0,-1,0,200)"/>
 <clipPath id="clip489">
  <path clip-rule="evenodd" d="M0,43.79 l200,0 l0,200 l-200,0 Z M0,43.79" transform="matrix(1,0,0,-1,0,150)"/>
 </clipPath>
 <g clip-path="url(#clip489)">
  <path d="M95.58,32.25 l0,45.75 l41.25,0 l0,9.58 l-41.25,0 l0,27.83 l-10.67,0 l-3.5,-27.83 l-24.08,0 l0,-9.58 l24.08,0 l0,-46.33 c0,-22.25,8.33,-33.42,30.67,-33.42 c9.33,0,18.58,2.33,25.42,6.17 l-2.17,9.0 c-5.58,-2.5,-12.92,-3.83,-20.0,-3.83 c-14.08,0,-19.75,6.58,-19.75,22.67 Z M95.58,32.25" fill="rgb(0,0,0)" transform="matrix(1,0,0,-1,0,150)"/>
 </g>
 <clipPath id="clip490">
  <path clip-rule="evenodd" d="M0,-50 l200,0 l0,93.79 l-200,0 Z M0,-50" transform="matrix(1,0,0,-1,0,150)"/>
 </clipPath>
 <g clip-path="url(#clip490)">
  <path d="M95.58,32.67 l0,43.33 l41.83,0 l0,11.58 l-41.83,0 l0,27.42 l-11.75,0 l-2.42,-27.42 l-25.75,0 l0,-11.58 l25.75,0 l0,-44.33 c0,-22.25,8.33,-33.42,31.08,-33.42 c9.0,0,18.33,1.67,25.25,4.42 l-2.33,11.33 c-5.67,-2.17,-13.0,-3.42,-20.08,-3.42 c-14.08,0,-19.75,6.42,-19.75,22.08 Z M95.58,32.67" fill="rgb(0,0,0)" transform="matrix(1,0,0,-1,0,150)"/>
 </g>
 <path d="M0,43.79 l200,0" fill="none" stroke="rgb(255,0,0)" stroke-width="1" transform="matrix(1,0,0,-1,0,150)"/>
</svg>