<?xml version="1.0" encoding="UTF-8"?>
<svg width="200" height="200" viewBox="0 0 200 200" version="1.1" xmlns="http://www.w3.org/2000/svg" xmlns:xlink="http://www.w3.org/1999/xlink">
 <path d="M0,0 l200,0 l0,200 l-200,0 Z M0,0" fill="rgb(255,255,255)" transform="matrix(1,0,0,-1,0,200)"/>
 <clipPath id="clip491">
  <path clip-rule="evenodd" d="M0,43.79 l200,0 l0,200 l-200,0 Z M0,43.79" transform="matrix(1,0,0,-1,0,150)"/>
 </clipPath>
 <g clip-path="url(#clip491)">
  <path d="M136.42,79.17 l0,8.42 l-40.83,0 l0,28.08 l-10.08,0 l-4.08,-28.08 l-23.08,0 l0,-8.42 l23.08,0 l0,-47.5 c0,-22.25,8.33,-33.42,30.42,-33.42 c9.5,0,18.67,2.75,25.5,7.17 l-2.0,7.58 c-5.67,-2.58,-12.92,-4.08,-20.0,-4.08 c-14.08,0,-19.75,6.75,-19.75,23.08 l0,47.17 Z M136.42,79.17" fill="rgb(0,0,0)" transform="matrix(1,0,0,-1,0,150)"/>
 </g>
 <clipPath id="clip492">
  <path clip-rule="evenodd" d="M0,-50 l200,0 l0,93.79 l-200,0 Z M0,-50" transform="matrix(1,0,0,-1,0,150)"/>
 </clipPath>
 <g clip-path="url(#clip492)">
  <path d="M136.42,79.17 l0,8.42 l-40.83,0 l0,28.08 l-10.08,0 l-4.08,-28.08 l-23.08,0 l0,-8.42 l23.08,0 l0,-47.5 c0,-22.25,8.33,-33.42,30.42,-33.42 c9.5,0,18.67,2.75,25.5,7.17 l-2.0,7.58 c-5.67,-2.58,-12.92,-4.08,-20.0,-4.08 c-14.08,0,-19.75,6.75,-19.75,23.08 l0,47.17 Z M136.42,79.17" fill="rgb(0,0,0)" transform="matrix(1,0,0,-1,0,150)"/>
 </g>
 <path d="M0,43.79 l200,0" fill="none" stroke="rgb(255,0,0)" stroke-width="1" transform="matrix(1,0,0,-1,0,150)"/>
</svg>