<?xml version="1.0" encoding="UTF-8"?>
<svg width="200" height="200" viewBox="0 0 200 200" version="1.1" xmlns="http://www.w3.org/2000/svg" xmlns:xlink="http://www.w3.org/1999/xlink">
 <path d="M0,0 l200,0 l0,200 l-200,0 Z M0,0" fill="rgb(255,255,255)" transform="matrix(1,0,0,-1,0,200)"/>
 <clipPath id="clip503">
  <path clip-rule="evenodd" d="M0,43.79 l200,0 l0,200 l-200,0 Z M0,43.79" transform="matrix(1,0,0,-1,0,150)"/>
 </clipPath>
 <g clip-path="url(#clip503)">
  <path d="M135.92,79.0 l0,8.58 l-40.33,0 l0,28.42 l-9.17,0 l-5.0,-28.42 l-21.75,0 l0,-8.58 l21.75,0 l0,-47.33 c0,-22.25,8.33,-33.42,31.08,-33.42 c9.0,0,18.33,1.83,25.25,4.92 l-2.33,8.33 c-5.67,-2.17,-13.0,-3.42,-20.08,-3.42 c-14.08,0,-19.75,6.83,-19.75,23.58 l0,47.33 Z M135.92,79.0" fill="rgb(0,0,0)" transform="matrix(1,0,0,-1,0,150)"/>
 </g>
 <clipPath id="clip504">
  <path clip-rule="evenodd" d="M0,-50 l200,0 l0,93.79 l-200,0 Z M0,-50" transform="matrix(1,0,0,-1,0,150)"/>
 </clipPath>
 <g clip-path="url(#clip504)">
  <path d="M134.92,81.0 l0,6.58 l-39.33,0 l0,29.08 l-7.5,0 l-6.67,-29.08 l-19.08,0 l0,-6.58 l19.08,0 l0,-49.33 c0,-22.25,8.33,-33.42,31.08,-33.42 c9.0,0,18.33,2.0,25.25,5.25 l-2.33,6.33 c-5.67,-2.17,-13.0,-3.42,-20.08,-3.42 c-14.08,0,-19.75,7.17,-19.75,24.58 l0,50.0 Z M134.92,81.0" fill="rgb(0,0,0)" transform="matrix(1,0,0,-1,0,150)"/>
 </g>
 <path d="M0,43.79 l200,0" fill="none" stroke="rgb(255,0,0)" stroke-width="1" transform="matrix(1,0,0,-1,0,150)"/>
</svg>