<?xml version="1.0" encoding="UTF-8"?>
<svg width="200" height="200" viewBox="0 0 200 200" version="1.1" xmlns="http://www.w3.org/2000/svg" xmlns:xlink="http://www.w3.org/1999/xlink">
 <path d="M0,0 l200,0 l0,200 l-200,0 Z M0,0" fill="rgb(255,255,255)" transform="matrix(1,0,0,-1,0,200)"/>
 <clipPath id="clip503">
  <path clip-rule="evenodd" d="M0,43.79 l200,0 l0,200 l-200,0 Z M0,43.79" transform="matrix(1,0,0,-1,0,150)"/>
 </clipPath>
 <g clip-path="url(#clip503)">
  <path d="M135.92,80.83 l0,6.75 l-40.33,0 l0,28.42 l-9.17,0 l-5.0,-28.42 l-21.75,0 l0,-6.75 l21.75,0 l0,-49.17 c0,-22.25,8.33,-33.42,30.08,-33.42 c9.83,0,18.92,3.33,25.67,8.5 l-1.92,5.75 c-5.58,-2.83,-12.92,-4.42,-19.92,-4.42 c-14.08,0,-19.75,6.83,-19.75,23.58 l0,49.17 Z M135.92,80.83" fill="rgb(0,0,0)" transform="matrix(1,0,0,-1,0,150)"/>
 </g>
 <clipPath id="clip504">
  <path clip-rule="evenodd" d="M0,-50 l200,0 l0,93.79 l-200,0 Z M0,-50" transform="matrix(1,0,0,-1,0,150)"/>
 </clipPath>
 <g clip-path="url(#clip504)">
  <path d="M134.92,84.0 l0,3.58 l-39.33,0 l0,29.08 l-7.5,0 l-6.67,-29.08 l-19.08,0 l0,-3.58 l19.08,0 l0,-52.33 c0,-22.25,8.33,-33.42,29.42,-33.42 c10.33,0,19.25,4.42,25.92,11.25 l-1.58,2.0 c-5.58,-3.25,-12.83,-5.08,-19.83,-5.08 c-14.08,0,-19.75,7.17,-19.75,24.58 l0,53.0 Z M134.92,84.0" fill="rgb(0,0,0)" transform="matrix(1,0,0,-1,0,150)"/>
 </g>
 <path d="M0,43.79 l200,0" fill="none" stroke="rgb(255,0,0)" stroke-width="1" transform="matrix(1,0,0,-1,0,150)"/>
</svg>