<?xml version="1.0" encoding="UTF-8"?>
<svg width="200" height="200" viewBox="0 0 200 200" version="1.1" xmlns="http://www.w3.org/2000/svg" xmlns:xlink="http://www.w3.org/1999/xlink">
 <path d="M0,0 l200,0 l0,200 l-200,0 Z M0,0" fill="rgb(255,255,255)" transform="matrix(1,0,0,-1,0,200)"/>
 <clipPath id="clip511">
  <path clip-rule="evenodd" d="M0,43.79 l200,0 l0,200 l-200,0 Z M0,43.79" transform="matrix(1,0,0,-1,0,150)"/>
 </clipPath>
 <g clip-path="url(#clip511)">
  <path d="M95.58,31.42 l0,50.58 l40.0,0 l0,5.58 l-40.0,0 l0,28.67 l-8.58,0 l-5.58,-28.67 l-20.75,0 l0,-5.58 l20.75,0 l0,-50.33 c0,-22.25,8.33,-33.42,29.83,-33.42 c10.0,0,19.0,3.75,25.75,9.58 l-1.75,4.33 c-5.58,-3.0,-12.92,-4.67,-19.92,-4.67 c-14.08,0,-19.75,6.92,-19.75,23.92 Z M95.58,31.42" fill="rgb(0,0,0)" transform="matrix(1,0,0,-1,0,150)"/>
 </g>
 <clipPath id="clip512">
  <path clip-rule="evenodd" d="M0,-50 l200,0 l0,93.79 l-200,0 Z M0,-50" transform="matrix(1,0,0,-1,0,150)"/>
 </clipPath>
 <g clip-path="url(#clip512)">
  <path d="M95.58,31.42 l0,50.58 l40.0,0 l0,5.58 l-40.0,0 l0,28.67 l-8.58,0 l-5.58,-28.67 l-20.75,0 l0,-5.58 l20.75,0 l0,-50.33 c0,-22.25,8.33,-33.42,29.83,-33.42 c10.0,0,19.0,3.75,25.75,9.58 l-1.75,4.33 c-5.58,-3.0,-12.92,-4.67,-19.92,-4.67 c-14.08,0,-19.75,6.92,-19.75,23.92 Z M95.58,31.42" fill="rgb(0,0,0)" transform="matrix(1,0,0,-1,0,150)"/>
 </g>
 <path d="M0,43.79 l200,0" fill="none" stroke="rgb(255,0,0)" stroke-width="1" transform="matrix(1,0,0,-1,0,150)"/>
</svg>