<?xml version="1.0" encoding="UTF-8"?>
<svg width="200" height="200" viewBox="0 0 200 200" version="1.1" xmlns="http://www.w3.org/2000/svg" xmlns:xlink="http://www.w3.org/1999/xlink">
 <path d="M0,0 l200,0 l0,200 l-200,0 Z M0,0" fill="rgb(255,255,255)" transform="matrix(1,0,0,-1,0,200)"/>
 <clipPath id="clip523">
  <path clip-rule="evenodd" d="M0,43.79 l200,0 l0,200 l-200,0 Z M0,43.79" transform="matrix(1,0,0,-1,0,150)"/>
 </clipPath>
 <g clip-path="url(#clip523)">
  <path d="M90.58,-2.5 c15.67,0,25.33,8.42,30.75,19.92 l1.0,0 l2.0,-17.67 l14.67,0.25 l0,1.0 c-1.83,6.75,-2.75,15.0,-2.75,25.67 l0,61.17 l-16.83,-0.25 l0,-1.0 c1.75,-6.08,2.67,-13.67,2.67,-23.25 l0,-23.42 c0,-17.83,-10.0,-30.58,-27.17,-30.58 c-14.08,0,-20.33,7.5,-20.33,23.33 l0,55.17 l-16.83,-0.25 l0,-1.0 c1.75,-6.08,2.67,-13.67,2.67,-23.25 l0,-33.58 c0,-20.75,10.25,-32.25,30.17,-32.25 Z M90.58,-2.5" fill="rgb(0,0,0)" transform="matrix(1,0,0,-1,0,150)"/>
 </g>
 <clipPath id="clip524">
  <path clip-rule="evenodd" d="M0,-50 l200,0 l0,93.79 l-200,0 Z M0,-50" transform="matrix(1,0,0,-1,0,150)"/>
 </clipPath>
 <g clip-path="url(#clip524)">
  <path d="M90.58,-2.5 c15.67,0,25.33,8.42,30.75,19.92 l1.0,0 l2.0,-17.67 l14.67,0.25 l0,1.0 c-1.83,6.75,-2.75,15.0,-2.75,25.67 l0,61.17 l-16.83,-0.25 l0,-1.0 c1.75,-6.08,2.67,-13.67,2.67,-23.25 l0,-23.42 c0,-17.83,-10.0,-30.58,-27.17,-30.58 c-14.08,0,-20.33,7.5,-20.33,23.33 l0,55.17 l-16.83,-0.25 l0,-1.0 c1.75,-6.08,2.67,-13.67,2.67,-23.25 l0,-33.58 c0,-20.75,10.25,-32.25,30.17,-32.25 Z M90.58,-2.5" fill="rgb(0,0,0)" transform="matrix(1,0,0,-1,0,150)"/>
 </g>
 <path d="M0,43.79 l200,0" fill="none" stroke="rgb(255,0,0)" stroke-width="1" transform="matrix(1,0,0,-1,0,150)"/>
</svg>