<?xml version="1.0" encoding="UTF-8"?>
<svg width="200" height="200" viewBox="0 0 200 200" version="1.1" xmlns="http://www.w3.org/2000/svg" xmlns:xlink="http://www.w3.org/1999/xlink">
 <path d="M0,0 l200,0 l0,200 l-200,0 Z M0,0" fill="rgb(255,255,255)" transform="matrix(1,0,0,-1,0,200)"/>
 <clipPath id="clip527">
  <path clip-rule="evenodd" d="M0,43.79 l200,0 l0,200 l-200,0 Z M0,43.79" transform="matrix(1,0,0,-1,0,150)"/>
 </clipPath>
 <g clip-path="url(#clip527)">
  <path d="M90.5,-2.5 c15.67,0,25.42,8.67,30.83,20.58 l1.0,0 l2.0,-18.58 l16.25,0.5 l0,1.67 c-2.83,5.33,-4.33,13.25,-4.33,25.0 l0,61.33 l-18.5,-0.42 l0,-1.67 c2.83,-4.83,4.33,-12.08,4.33,-22.58 l0,-23.75 c0,-17.67,-9.75,-30.92,-27.17,-30.92 c-14.08,0,-20.33,7.67,-20.33,24.0 l0,55.33 l-18.5,-0.42 l0,-1.67 c2.83,-4.83,4.33,-12.08,4.33,-22.58 l0,-33.58 c0,-20.75,10.25,-32.25,30.08,-32.25 Z M90.5,-2.5" fill="rgb(0,0,0)" transform="matrix(1,0,0,-1,0,150)"/>
 </g>
 <clipPath id="clip528">
  <path clip-rule="evenodd" d="M0,-50 l200,0 l0,93.79 l-200,0 Z M0,-50" transform="matrix(1,0,0,-1,0,150)"/>
 </clipPath>
 <g clip-path="url(#clip528)">
  <path d="M90.33,-2.5 c15.5,0,25.75,9.83,31.0,23.33 l1.0,0 l2.0,-22.0 l22.75,1.08 l0,4.17 c-7.08,0,-10.83,6.67,-10.83,22.58 l0,62.0 l-25.0,-1.08 l0,-4.17 c7.08,0,10.83,-5.92,10.83,-20.08 l0,-24.92 c0,-17.08,-8.75,-32.25,-27.17,-32.25 c-14.08,0,-20.33,8.5,-20.33,26.5 l0,56.0 l-25.0,-1.08 l0,-4.17 c7.08,0,10.83,-5.92,10.83,-20.08 l0,-33.58 c0,-20.75,10.17,-32.25,29.92,-32.25 Z M90.33,-2.5" fill="rgb(0,0,0)" transform="matrix(1,0,0,-1,0,150)"/>
 </g>
 <path d="M0,43.79 l200,0" fill="none" stroke="rgb(255,0,0)" stroke-width="1" transform="matrix(1,0,0,-1,0,150)"/>
</svg>