<?xml version="1.0" encoding="UTF-8"?>
<svg width="200" height="200" viewBox="0 0 200 200" version="1.1" xmlns="http://www.w3.org/2000/svg" xmlns:xlink="http://www.w3.org/1999/xlink">
 <path d="M0,0 l200,0 l0,200 l-200,0 Z M0,0" fill="rgb(255,255,255)" transform="matrix(1,0,0,-1,0,200)"/>
 <clipPath id="clip467">
  <path clip-rule="evenodd" d="M0,43.79 l200,0 l0,200 l-200,0 Z M0,43.79" transform="matrix(1,0,0,-1,0,150)"/>
 </clipPath>
 <g clip-path="url(#clip467)">
  <path d="M90.5,-2.5 c15.58,0,25.5,8.0,30.83,19.0 l1.0,0 l2.0,-17.17 l18.42,0.58 l0,2.5 c-4.25,3.58,-6.5,11.17,-6.5,24.25 l0,61.58 l-20.67,-0.67 l0,-2.5 c4.25,-3.25,6.5,-10.0,6.5,-21.75 l0,-24.08 c0,-17.5,-10.42,-31.42,-27.17,-31.42 c-14.08,0,-20.33,8.0,-20.33,24.83 l0,55.58 l-20.67,-0.67 l0,-2.5 c4.25,-3.25,6.5,-10.0,6.5,-21.75 l0,-33.58 c0,-20.75,10.17,-32.25,30.08,-32.25 Z M90.5,-2.5" fill="rgb(0,0,0)" transform="matrix(1,0,0,-1,0,150)"/>
 </g>
 <clipPath id="clip468">
  <path clip-rule="evenodd" d="M0,-50 l200,0 l0,93.79 l-200,0 Z M0,-50" transform="matrix(1,0,0,-1,0,150)"/>
 </clipPath>
 <g clip-path="url(#clip468)">
  <path d="M90.5,-2.5 c15.58,0,25.5,8.0,30.83,19.0 l1.0,0 l2.0,-17.17 l18.42,0.58 l0,2.5 c-4.25,3.58,-6.5,11.17,-6.5,24.25 l0,61.58 l-20.67,-0.67 l0,-2.5 c4.25,-3.25,6.5,-10.0,6.5,-21.75 l0,-24.08 c0,-17.5,-10.42,-31.42,-27.17,-31.42 c-14.08,0,-20.33,8.0,-20.33,24.83 l0,55.58 l-20.67,-0.67 l0,-2.5 c4.25,-3.25,6.5,-10.0,6.5,-21.75 l0,-33.58 c0,-20.75,10.17,-32.25,30.08,-32.25 Z M90.5,-2.5" fill="rgb(0,0,0)" transform="matrix(1,0,0,-1,0,150)"/>
 </g>
 <path d="M0,43.79 l200,0" fill="none" stroke="rgb(255,0,0)" stroke-width="1" transform="matrix(1,0,0,-1,0,150)"/>
</svg>