<?xml version="1.0" encoding="UTF-8"?>
<svg width="200" height="200" viewBox="0 0 200 200" version="1.1" xmlns="http://www.w3.org/2000/svg" xmlns:xlink="http://www.w3.org/1999/xlink">
 <path d="M0,0 l200,0 l0,200 l-200,0 Z M0,0" fill="rgb(255,255,255)" transform="matrix(1,0,0,-1,0,200)"/>
 <clipPath id="clip543">
  <path clip-rule="evenodd" d="M0,43.79 l200,0 l0,200 l-200,0 Z M0,43.79" transform="matrix(1,0,0,-1,0,150)"/>
 </clipPath>
 <g clip-path="url(#clip543)">
  <path d="M90.42,-2.5 c15.58,0,25.58,9.33,30.92,22.17 l1.0,0 l2.0,-20.5 l20.08,0.75 l0,3.17 c-5.33,2.25,-8.17,9.42,-8.17,23.58 l0,61.75 l-22.25,-0.83 l0,-3.08 c5.25,-2.08,8.08,-8.5,8.08,-21.17 l0,-24.42 c0,-17.33,-9.17,-31.67,-27.17,-31.67 c-14.08,0,-20.33,8.17,-20.33,25.42 l0,55.75 l-22.25,-0.83 l0,-3.08 c5.25,-2.08,8.08,-8.5,8.08,-21.17 l0,-33.58 c0,-20.75,10.17,-32.25,30.0,-32.25 Z M90.42,-2.5" fill="rgb(0,0,0)" transform="matrix(1,0,0,-1,0,150)"/>
 </g>
 <clipPath id="clip544">
  <path clip-rule="evenodd" d="M0,-50 l200,0 l0,93.79 l-200,0 Z M0,-50" transform="matrix(1,0,0,-1,0,150)"/>
 </clipPath>
 <g clip-path="url(#clip544)">
  <path d="M90.42,-2.5 c15.58,0,25.58,9.33,30.92,22.17 l1.0,0 l2.0,-20.5 l20.08,0.75 l0,3.17 c-5.33,2.25,-8.17,9.42,-8.17,23.58 l0,61.75 l-22.25,-0.83 l0,-3.08 c5.25,-2.08,8.08,-8.5,8.08,-21.17 l0,-24.42 c0,-17.33,-9.17,-31.67,-27.17,-31.67 c-14.08,0,-20.33,8.17,-20.33,25.42 l0,55.75 l-22.25,-0.83 l0,-3.08 c5.25,-2.08,8.08,-8.5,8.08,-21.17 l0,-33.58 c0,-20.75,10.17,-32.25,30.0,-32.25 Z M90.42,-2.5" fill="rgb(0,0,0)" transform="matrix(1,0,0,-1,0,150)"/>
 </g>
 <path d="M0,43.79 l200,0" fill="none" stroke="rgb(255,0,0)" stroke-width="1" transform="matrix(1,0,0,-1,0,150)"/>
</svg>