<?xml version="1.0" encoding="UTF-8"?>
<svg width="200" height="200" viewBox="0 0 200 200" version="1.1" xmlns="http://www.w3.org/2000/svg" xmlns:xlink="http://www.w3.org/1999/xlink">
 <path d="M0,0 l200,0 l0,200 l-200,0 Z M0,0" fill="rgb(255,255,255)" transform="matrix(1,0,0,-1,0,200)"/>
 <clipPath id="clip561">
  <path clip-rule="evenodd" d="M0,43.79 l200,0 l0,200 l-200,0 Z M0,43.79" transform="matrix(1,0,0,-1,0,150)"/>
 </clipPath>
 <g clip-path="url(#clip561)">
  <path d="M108.0,0 l26.08,63.33 c4.5,10.75,7.75,18.5,13.33,21.75 l0,2.5 l-27.25,0 l0,-2.5 c3.0,-3.25,4.33,-10.83,0.08,-21.75 l-19.17,-48.75 l-1.0,0 l-19.33,48.75 c-4.5,10.75,-3.0,18.5,0,21.75 l0,2.5 l-27.67,0 l0,-2.5 c5.58,-3.25,8.58,-11.0,12.83,-21.75 l26.08,-63.33 Z M108.0,0" fill="rgb(0,0,0)" transform="matrix(1,0,0,-1,0,150)"/>
 </g>
 <clipPath id="clip562">
  <path clip-rule="evenodd" d="M0,-50 l200,0 l0,93.79 l-200,0 Z M0,-50" transform="matrix(1,0,0,-1,0,150)"/>
 </clipPath>
 <g clip-path="url(#clip562)">
  <path d="M108.0,0 l26.17,63.33 c3.33,8.08,6.58,16.17,9.92,24.25 l-14.33,0 l-9.5,-24.25 l-19.17,-48.75 l-1.0,0 l-19.33,48.75 c-3.17,8.08,-6.42,16.17,-9.58,24.25 l-15.25,0 l10.0,-24.25 l26.08,-63.33 Z M108.0,0" fill="rgb(0,0,0)" transform="matrix(1,0,0,-1,0,150)"/>
 </g>
 <path d="M0,43.79 l200,0" fill="none" stroke="rgb(255,0,0)" stroke-width="1" transform="matrix(1,0,0,-1,0,150)"/>
</svg>