<?xml version="1.0" encoding="UTF-8"?>
<svg width="200" height="200" viewBox="0 0 200 200" version="1.1" xmlns="http://www.w3.org/2000/svg" xmlns:xlink="http://www.w3.org/1999/xlink">
 <path d="M0,0 l200,0 l0,200 l-200,0 Z M0,0" fill="rgb(255,255,255)" transform="matrix(1,0,0,-1,0,200)"/>
 <clipPath id="clip551">
  <path clip-rule="evenodd" d="M0,43.79 l200,0 l0,200 l-200,0 Z M0,43.79" transform="matrix(1,0,0,-1,0,150)"/>
 </clipPath>
 <g clip-path="url(#clip551)">
  <path d="M96.83,0 c-6.5,-17.92,-13.67,-23.83,-26.33,-23.83 c-3.83,0,-8.25,0.5,-11.75,1.25 l-1.5,-11.33 c3.33,-1.0,9.75,-1.75,14.17,-1.75 c20.67,0,29.17,12.17,38.33,35.67 l24.67,63.33 c3.17,8.17,6.58,16.17,9.92,24.25 l-14.58,0 c-3.17,-8.08,-6.42,-16.17,-9.5,-24.25 l-19.0,-50.0 l-1.0,0 l-19.5,50.0 c-3.17,8.08,-6.42,16.17,-9.58,24.25 l-15.25,0 c3.33,-8.08,6.75,-16.08,10.0,-24.25 l25.17,-63.33 Z M96.83,0" fill="rgb(0,0,0)" transform="matrix(1,0,0,-1,0,150)"/>
 </g>
 <clipPath id="clip552">
  <path clip-rule="evenodd" d="M0,-50 l200,0 l0,93.79 l-200,0 Z M0,-50" transform="matrix(1,0,0,-1,0,150)"/>
 </clipPath>
 <g clip-path="url(#clip552)">
  <path d="M96.83,0 c-5.67,-20.17,-11.92,-26.83,-23.0,-26.83 c-7.17,0,-11.33,6.08,-14.17,20.33 l-6.33,0 l-1.67,-27.92 c5.17,-0.83,10.42,-1.25,19.33,-1.25 c22.5,0,29.75,12.42,38.75,35.67 l24.58,63.33 c4.92,12.67,8.42,20.08,15.5,20.08 l0,4.17 l-36.08,0 l0,-4.17 c7.08,0,11.33,-7.33,6.5,-20.08 l-19.0,-50.08 l-1.0,0 l-19.5,50.08 c-5.33,12.58,-0.75,20.08,6.33,20.08 l0,4.17 l-35.83,0 l0,-4.17 c7.08,0,9.67,-7.5,14.67,-20.08 l25.17,-63.33 Z M96.83,0" fill="rgb(0,0,0)" transform="matrix(1,0,0,-1,0,150)"/>
 </g>
 <path d="M0,43.79 l200,0" fill="none" stroke="rgb(255,0,0)" stroke-width="1" transform="matrix(1,0,0,-1,0,150)"/>
</svg>