<?xml version="1.0" encoding="UTF-8"?>
<svg width="200" height="200" viewBox="0 0 200 200" version="1.1" xmlns="http://www.w3.org/2000/svg" xmlns:xlink="http://www.w3.org/1999/xlink">
 <path d="M0,0 l200,0 l0,200 l-200,0 Z M0,0" fill="rgb(255,255,255)" transform="matrix(1,0,0,-1,0,200)"/>
 <clipPath id="clip557">
  <path clip-rule="evenodd" d="M0,43.79 l200,0 l0,200 l-200,0 Z M0,43.79" transform="matrix(1,0,0,-1,0,150)"/>
 </clipPath>
 <g clip-path="url(#clip557)">
  <path d="M65.92,63.33 l25.17,-63.33 l5.75,0 c-6.25,-18.5,-13.25,-24.58,-25.5,-24.58 c-4.67,0,-9.0,1.92,-12.33,6.0 l-1.58,0 l-1.58,-15.42 c3.83,-1.0,9.92,-1.67,15.5,-1.67 c21.08,0,29.33,12.25,38.42,35.67 l24.67,63.33 c3.58,9.33,7.0,17.17,11.33,23.25 l0,1.0 l-20.0,0 l0,-1.0 c-0.58,-6.08,-2.0,-14.0,-5.5,-23.25 l-19.0,-50.0 l-1.0,0 l-19.5,50.0 c-3.67,9.25,-5.0,17.17,-5.58,23.25 l0,1.0 l-20.42,0 l0,-1.0 c4.25,-6.08,7.5,-14.0,11.17,-23.25 Z M65.92,63.33" fill="rgb(0,0,0)" transform="matrix(1,0,0,-1,0,150)"/>
 </g>
 <clipPath id="clip558">
  <path clip-rule="evenodd" d="M0,-50 l200,0 l0,93.79 l-200,0 Z M0,-50" transform="matrix(1,0,0,-1,0,150)"/>
 </clipPath>
 <g clip-path="url(#clip558)">
  <path d="M65.92,63.33 l25.17,-63.33 l5.75,0 c-6.08,-19.0,-12.75,-25.33,-24.67,-25.33 c-5.5,0,-9.75,3.33,-12.92,10.83 l-3.17,0 l-1.58,-19.67 c4.25,-0.92,10.08,-1.5,16.75,-1.5 c21.58,0,29.42,12.33,38.5,35.67 l24.67,63.33 c4.0,10.42,7.5,18.17,12.67,22.17 l0,2.08 l-25.33,0 l0,-2.08 c2.0,-4.0,2.5,-11.75,-1.5,-22.17 l-19.0,-50.0 l-1.0,0 l-19.5,50.0 c-4.25,10.33,-3.58,18.17,-1.58,22.17 l0,2.08 l-25.58,0 l0,-2.08 c5.25,-4.0,8.25,-11.75,12.33,-22.17 Z M65.92,63.33" fill="rgb(0,0,0)" transform="matrix(1,0,0,-1,0,150)"/>
 </g>
 <path d="M0,43.79 l200,0" fill="none" stroke="rgb(255,0,0)" stroke-width="1" transform="matrix(1,0,0,-1,0,150)"/>
</svg>