<?xml version="1.0" encoding="UTF-8"?>
<svg width="200" height="200" viewBox="0 0 200 200" version="1.1" xmlns="http://www.w3.org/2000/svg" xmlns:xlink="http://www.w3.org/1999/xlink">
 <path d="M0,0 l200,0 l0,200 l-200,0 Z M0,0" fill="rgb(255,255,255)" transform="matrix(1,0,0,-1,0,200)"/>
 <clipPath id="clip589">
  <path clip-rule="evenodd" d="M0,43.79 l200,0 l0,200 l-200,0 Z M0,43.79" transform="matrix(1,0,0,-1,0,150)"/>
 </clipPath>
 <g clip-path="url(#clip589)">
  <path d="M96.83,0 c-6.17,-18.83,-13.0,-25.0,-25.0,-25.0 c-5.17,0,-9.5,2.67,-12.75,8.83 l-2.5,0 l-1.58,-17.92 c4.08,-1.0,10.0,-1.58,16.25,-1.58 c21.42,0,29.42,12.25,38.5,35.67 l24.67,63.33 c3.83,10.0,7.25,17.75,12.08,22.58 l0,1.67 l-23.17,0 l0,-1.67 c0.92,-4.83,0.67,-12.67,-3.08,-22.58 l-19.0,-50.0 l-1.0,0 l-19.5,50.0 c-4.0,9.92,-4.17,17.75,-3.25,22.58 l0,1.67 l-23.42,0 l0,-1.67 c4.83,-4.83,7.92,-12.67,11.83,-22.58 l25.17,-63.33 Z M96.83,0" fill="rgb(0,0,0)" transform="matrix(1,0,0,-1,0,150)"/>
 </g>
 <clipPath id="clip590">
  <path clip-rule="evenodd" d="M0,-50 l200,0 l0,93.79 l-200,0 Z M0,-50" transform="matrix(1,0,0,-1,0,150)"/>
 </clipPath>
 <g clip-path="url(#clip590)">
  <path d="M96.83,0 c-6.0,-19.25,-12.58,-25.67,-24.33,-25.67 c-5.83,0,-10.08,3.92,-13.17,12.75 l-3.83,0 l-1.58,-21.33 c4.42,-0.83,10.17,-1.42,17.25,-1.42 c21.75,0,29.5,12.33,38.58,35.67 l24.58,63.33 c4.25,10.83,7.75,18.5,13.33,21.75 l0,2.5 l-27.5,0 l0,-2.5 c3.0,-3.25,4.25,-10.83,0.08,-21.75 l-19.0,-50.08 l-1.0,0 l-19.5,50.08 c-4.5,10.75,-3.0,18.5,0,21.75 l0,2.5 l-27.67,0 l0,-2.5 c5.58,-3.25,8.5,-10.92,12.83,-21.75 l25.17,-63.33 Z M96.83,0" fill="rgb(0,0,0)" transform="matrix(1,0,0,-1,0,150)"/>
 </g>
 <path d="M0,43.79 l200,0" fill="none" stroke="rgb(255,0,0)" stroke-width="1" transform="matrix(1,0,0,-1,0,150)"/>
</svg>