<?xml version="1.0" encoding="UTF-8"?>
<svg width="200" height="200" viewBox="0 0 200 200" version="1.1" xmlns="http://www.w3.org/2000/svg" xmlns:xlink="http://www.w3.org/1999/xlink">
 <path d="M0,0 l200,0 l0,200 l-200,0 Z M0,0" fill="rgb(255,255,255)" transform="matrix(1,0,0,-1,0,200)"/>
 <clipPath id="clip571">
  <path clip-rule="evenodd" d="M0,43.79 l200,0 l0,200 l-200,0 Z M0,43.79" transform="matrix(1,0,0,-1,0,150)"/>
 </clipPath>
 <g clip-path="url(#clip571)">
  <path d="M96.83,0 c-5.67,-20.17,-11.92,-26.83,-23.0,-26.83 c-7.17,0,-11.33,6.08,-14.17,20.33 l-6.33,0 l-1.67,-27.92 c5.17,-0.83,10.42,-1.25,19.33,-1.25 c22.5,0,29.75,12.42,38.75,35.67 l24.58,63.33 c4.92,12.67,8.42,20.08,15.5,20.08 l0,4.17 l-36.08,0 l0,-4.17 c7.08,0,11.33,-7.33,6.5,-20.08 l-19.0,-50.08 l-1.0,0 l-19.5,50.08 c-5.33,12.58,-0.75,20.08,6.33,20.08 l0,4.17 l-35.83,0 l0,-4.17 c7.08,0,9.67,-7.5,14.67,-20.08 l25.17,-63.33 Z M96.83,0" fill="rgb(0,0,0)" transform="matrix(1,0,0,-1,0,150)"/>
 </g>
 <clipPath id="clip572">
  <path clip-rule="evenodd" d="M0,-50 l200,0 l0,93.79 l-200,0 Z M0,-50" transform="matrix(1,0,0,-1,0,150)"/>
 </clipPath>
 <g clip-path="url(#clip572)">
  <path d="M96.83,0 c-6.17,-18.83,-13.0,-25.0,-25.0,-25.0 c-5.17,0,-9.5,2.67,-12.75,8.83 l-2.5,0 l-1.58,-17.92 c4.08,-1.0,10.0,-1.58,16.25,-1.58 c21.42,0,29.42,12.25,38.5,35.67 l24.67,63.33 c3.83,10.0,7.25,17.75,12.08,22.58 l0,1.67 l-23.17,0 l0,-1.67 c0.92,-4.83,0.67,-12.67,-3.08,-22.58 l-19.0,-50.0 l-1.0,0 l-19.5,50.0 c-4.0,9.92,-4.17,17.75,-3.25,22.58 l0,1.67 l-23.42,0 l0,-1.67 c4.83,-4.83,7.92,-12.67,11.83,-22.58 l25.17,-63.33 Z M96.83,0" fill="rgb(0,0,0)" transform="matrix(1,0,0,-1,0,150)"/>
 </g>
 <path d="M0,43.79 l200,0" fill="none" stroke="rgb(255,0,0)" stroke-width="1" transform="matrix(1,0,0,-1,0,150)"/>
</svg>