<?xml version="1.0" encoding="UTF-8"?>
<svg width="200" height="200" viewBox="0 0 200 200" version="1.1" xmlns="http://www.w3.org/2000/svg" xmlns:xlink="http://www.w3.org/1999/xlink">
 <path d="M0,0 l200,0 l0,200 l-200,0 Z M0,0" fill="rgb(255,255,255)" transform="matrix(1,0,0,-1,0,200)"/>
 <clipPath id="clip573">
  <path clip-rule="evenodd" d="M0,43.79 l200,0 l0,200 l-200,0 Z M0,43.79" transform="matrix(1,0,0,-1,0,150)"/>
 </clipPath>
 <g clip-path="url(#clip573)">
  <path d="M65.92,63.33 l25.17,-63.33 l5.75,0 c-5.83,-19.58,-12.33,-26.08,-23.83,-26.08 c-6.33,0,-10.58,4.67,-13.58,15.58 l-4.75,0 l-1.58,-23.75 c4.67,-0.92,10.25,-1.42,18.0,-1.42 c22.08,0,29.67,12.33,38.67,35.67 l24.58,63.33 c4.5,11.58,8.0,19.08,14.17,21.17 l0,3.08 l-30.75,0 l0,-3.08 c4.5,-2.08,6.92,-9.58,2.5,-21.17 l-19.0,-50.08 l-1.0,0 l-19.5,50.08 c-4.75,11.5,-2.17,19.08,2.33,21.17 l0,3.08 l-30.67,0 l0,-3.08 c6.17,-2.08,8.92,-9.67,13.5,-21.17 Z M65.92,63.33" fill="rgb(0,0,0)" transform="matrix(1,0,0,-1,0,150)"/>
 </g>
 <clipPath id="clip574">
  <path clip-rule="evenodd" d="M0,-50 l200,0 l0,93.79 l-200,0 Z M0,-50" transform="matrix(1,0,0,-1,0,150)"/>
 </clipPath>
 <g clip-path="url(#clip574)">
  <path d="M65.92,63.33 l25.17,-63.33 l5.75,0 c-6.08,-19.0,-12.75,-25.33,-24.67,-25.33 c-5.5,0,-9.75,3.33,-12.92,10.83 l-3.17,0 l-1.58,-19.67 c4.25,-0.92,10.08,-1.5,16.75,-1.5 c21.58,0,29.42,12.33,38.5,35.67 l24.67,63.33 c4.0,10.42,7.5,18.17,12.67,22.17 l0,2.08 l-25.33,0 l0,-2.08 c2.0,-4.0,2.5,-11.75,-1.5,-22.17 l-19.0,-50.0 l-1.0,0 l-19.5,50.0 c-4.25,10.33,-3.58,18.17,-1.58,22.17 l0,2.08 l-25.58,0 l0,-2.08 c5.25,-4.0,8.25,-11.75,12.33,-22.17 Z M65.92,63.33" fill="rgb(0,0,0)" transform="matrix(1,0,0,-1,0,150)"/>
 </g>
 <path d="M0,43.79 l200,0" fill="none" stroke="rgb(255,0,0)" stroke-width="1" transform="matrix(1,0,0,-1,0,150)"/>
</svg>