<?xml version="1.0" encoding="UTF-8"?>
<svg width="200" height="200" viewBox="0 0 200 200" version="1.1" xmlns="http://www.w3.org/2000/svg" xmlns:xlink="http://www.w3.org/1999/xlink">
 <path d="M0,0 l200,0 l0,200 l-200,0 Z M0,0" fill="rgb(255,255,255)" transform="matrix(1,0,0,-1,0,200)"/>
 <clipPath id="clip607">
  <path clip-rule="evenodd" d="M0,43.79 l200,0 l0,200 l-200,0 Z M0,43.79" transform="matrix(1,0,0,-1,0,150)"/>
 </clipPath>
 <g clip-path="url(#clip607)">
  <path d="M96.83,0 c-5.67,-20.17,-11.92,-26.83,-23.0,-26.83 c-7.17,0,-11.33,6.08,-14.17,20.33 l-6.33,0 l-1.67,-27.92 c5.17,-0.83,10.42,-1.25,19.33,-1.25 c22.5,0,29.75,12.42,38.75,35.67 l24.58,63.33 c4.92,12.67,8.42,20.08,15.5,20.08 l0,4.17 l-36.08,0 l0,-4.17 c7.08,0,11.33,-7.33,6.5,-20.08 l-19.0,-50.08 l-1.0,0 l-19.5,50.08 c-5.33,12.58,-0.75,20.08,6.33,20.08 l0,4.17 l-35.83,0 l0,-4.17 c7.08,0,9.67,-7.5,14.67,-20.08 l25.17,-63.33 Z M96.83,0" fill="rgb(0,0,0)" transform="matrix(1,0,0,-1,0,150)"/>
 </g>
 <clipPath id="clip608">
  <path clip-rule="evenodd" d="M0,-50 l200,0 l0,93.79 l-200,0 Z M0,-50" transform="matrix(1,0,0,-1,0,150)"/>
 </clipPath>
 <g clip-path="url(#clip608)">
  <path d="M96.83,0 c-5.67,-20.17,-11.92,-26.83,-23.0,-26.83 c-7.17,0,-11.33,6.08,-14.17,20.33 l-6.33,0 l-1.67,-27.92 c5.17,-0.83,10.42,-1.25,19.33,-1.25 c22.5,0,29.75,12.42,38.75,35.67 l24.58,63.33 c4.92,12.67,8.42,20.08,15.5,20.08 l0,4.17 l-36.08,0 l0,-4.17 c7.08,0,11.33,-7.33,6.5,-20.08 l-19.0,-50.08 l-1.0,0 l-19.5,50.08 c-5.33,12.58,-0.75,20.08,6.33,20.08 l0,4.17 l-35.83,0 l0,-4.17 c7.08,0,9.67,-7.5,14.67,-20.08 l25.17,-63.33 Z M96.83,0" fill="rgb(0,0,0)" transform="matrix(1,0,0,-1,0,150)"/>
 </g>
 <path d="M0,43.79 l200,0" fill="none" stroke="rgb(255,0,0)" stroke-width="1" transform="matrix(1,0,0,-1,0,150)"/>
</svg>