<?xml version="1.0" encoding="UTF-8"?>
<svg width="200" height="200" viewBox="0 0 200 200" version="1.1" xmlns="http://www.w3.org/2000/svg" xmlns:xlink="http://www.w3.org/1999/xlink">
 <path d="M0,0 l200,0 l0,200 l-200,0 Z M0,0" fill="rgb(255,255,255)" transform="matrix(1,0,0,-1,0,200)"/>
 <clipPath id="clip585">
  <path clip-rule="evenodd" d="M0,43.79 l200,0 l0,200 l-200,0 Z M0,43.79" transform="matrix(1,0,0,-1,0,150)"/>
 </clipPath>
 <g clip-path="url(#clip585)">
  <path d="M62.25,0 l75.67,0 l0,15.33 l-1.25,0 c-6.0,-3.92,-12.92,-5.83,-21.0,-5.83 l-37.25,0 l0,0.92 l58.42,66.42 l0,10.75 l-73.42,0 l0,-15.33 l1.25,0 c6.08,3.92,12.92,5.83,21.08,5.83 l35.0,0 l0,-0.83 l-58.5,-66.5 Z M62.25,0" fill="rgb(0,0,0)" transform="matrix(1,0,0,-1,0,150)"/>
 </g>
 <clipPath id="clip586">
  <path clip-rule="evenodd" d="M0,-50 l200,0 l0,93.79 l-200,0 Z M0,-50" transform="matrix(1,0,0,-1,0,150)"/>
 </clipPath>
 <g clip-path="url(#clip586)">
  <path d="M62.25,0 l75.42,0 l0,11.42 l-22.5,0 l-35.0,0 l0,0.92 l56.67,64.5 l0,10.75 l-73.42,0 l0,-11.5 l22.5,0 l33.08,0 l0,-0.83 l-56.75,-64.5 Z M62.25,0" fill="rgb(0,0,0)" transform="matrix(1,0,0,-1,0,150)"/>
 </g>
 <path d="M0,43.79 l200,0" fill="none" stroke="rgb(255,0,0)" stroke-width="1" transform="matrix(1,0,0,-1,0,150)"/>
</svg>