<?xml version="1.0" encoding="UTF-8"?>
<svg width="200" height="200" viewBox="0 0 200 200" version="1.1" xmlns="http://www.w3.org/2000/svg" xmlns:xlink="http://www.w3.org/1999/xlink">
 <path d="M0,0 l200,0 l0,200 l-200,0 Z M0,0" fill="rgb(255,255,255)" transform="matrix(1,0,0,-1,0,200)"/>
 <clipPath id="clip599">
  <path clip-rule="evenodd" d="M0,43.79 l200,0 l0,200 l-200,0 Z M0,43.79" transform="matrix(1,0,0,-1,0,150)"/>
 </clipPath>
 <g clip-path="url(#clip599)">
  <path d="M62.25,0 l76.0,0 l-0.08,19.17 l-2.5,0 c-4.58,-7.83,-10.83,-11.67,-19.58,-11.67 l-39.33,0 l0,0.92 l60.08,68.42 l0,10.75 l-73.42,0 l0.08,-19.17 l2.5,0 c4.58,7.83,10.83,11.67,19.58,11.67 l36.92,0 l0,-0.83 l-60.25,-68.5 Z M62.25,0" fill="rgb(0,0,0)" transform="matrix(1,0,0,-1,0,150)"/>
 </g>
 <clipPath id="clip600">
  <path clip-rule="evenodd" d="M0,-50 l200,0 l0,93.79 l-200,0 Z M0,-50" transform="matrix(1,0,0,-1,0,150)"/>
 </clipPath>
 <g clip-path="url(#clip600)">
  <path d="M62.25,0 l76.25,0 l-0.08,23.08 l-3.75,0 c-3.08,-11.75,-8.75,-17.5,-18.08,-17.5 l-41.58,0 l0,0.92 l61.83,70.33 l0,10.75 l-73.42,0 l0.08,-23.08 l3.75,0 c3.08,11.75,8.75,17.5,18.08,17.5 l38.83,0 l0,-0.83 l-61.92,-70.42 Z M62.25,0" fill="rgb(0,0,0)" transform="matrix(1,0,0,-1,0,150)"/>
 </g>
 <path d="M0,43.79 l200,0" fill="none" stroke="rgb(255,0,0)" stroke-width="1" transform="matrix(1,0,0,-1,0,150)"/>
</svg>